<?xml version="1.0" encoding="utf-8"?>
<!-- Generator: Adobe Illustrator 15.0.2, SVG Export Plug-In . SVG Version: 6.00 Build 0)  -->
<!DOCTYPE svg PUBLIC "-//W3C//DTD SVG 1.1//EN" "http://www.w3.org/Graphics/SVG/1.1/DTD/svg11.dtd">
<svg version="1.1" id="Layer_1" xmlns="http://www.w3.org/2000/svg" xmlns:xlink="http://www.w3.org/1999/xlink" x="0px" y="0px"
	 width="460px" height="460px" viewBox="0 0 460 460" enable-background="new 0 0 460 460" xml:space="preserve">
<g>
	<path fill="#FFFFFF" d="M453.751526,182.187378l-48.971252,-182.187378l-182.783997,48.825695l-27.056763,47.570843l-54.904236,-0.395271l-133.786789,133.367249l133.786789,133.335587l0.0056,0l54.879959,-0.406494l27.095947,47.570831l182.763489,48.820129l48.971252,-182.15387l-27.808289,-47.177368l27.808289,-47.169952zm-114.592896,-113.964531l-80.262451,138.608589l-160.547134,0l101.011337,-102.773354l139.798248,-35.835236zm-80.262451,183.643639l80.282928,138.588043l-139.818726,-35.820313l-101.011337,-102.767731l160.547134,0l0,0zm39.124359,-22.509155l80.269775,-138.608574l38.788727,138.608574l-38.788727,138.576874l-80.269775,-138.576874z"/>
</g>
</svg>
