<?xml version="1.0" encoding="utf-8"?>
<!-- Generator: Adobe Illustrator 18.1.1, SVG Export Plug-In . SVG Version: 6.00 Build 0)  -->
<svg version="1.1" id="Layer_1" xmlns="http://www.w3.org/2000/svg" xmlns:xlink="http://www.w3.org/1999/xlink" x="0px" y="0px"
	 viewBox="0 0 1752 770.8" enable-background="new 0 0 1752 770.8" xml:space="preserve">
<g>
	<g>
		<g>
			<path fill="#00ADE0" d="M1380.8,17c29.5,0,58.5,4.5,86.2,13.5c26.8,8.6,51.9,21.2,74.6,37.4c22.5,16,42.1,35.2,58.3,56.9
				c16.5,22,29.1,46.3,37.5,72l1.1,3.5l3.6-0.3c4.6-0.4,8.4-0.6,11.9-0.6c35.3,0,68.5,13.1,93.4,36.9c24.9,23.7,38.6,55.3,38.6,88.8
				c0,0.1,0,0.3,0,0.5c0,0.3-0.1,0.7-0.1,1.1l-0.1,4.1l4.1,0.5c51.4,6.1,98.7,29.9,133.3,66.9c34.8,37.3,54,85.4,54,135.3
				c0,27.5-5.6,54.2-16.8,79.3c-10.8,24.3-26.2,46.1-45.8,64.8c-19.7,18.7-42.5,33.3-68,43.5c-26.4,10.6-54.4,15.8-83.4,15.8h-601.1
				c-36.3,0-71.5-6.6-104.6-19.9c-32-12.9-60.7-31.3-85.4-54.8c-24.7-23.5-44-50.8-57.5-81.3c-14-31.5-21.1-65-21.1-99.5
				c0-30.6,5.6-60.6,16.7-89c10.7-27.5,26.2-52.9,46.1-75.4c40.1-45.4,95.7-76.4,156.6-87.1l3.1-0.5l0.6-3.1
				c11.3-58,43.7-111,91.3-149.2c23.7-19,50.3-33.8,79.2-44C1317.1,22.3,1348.6,17,1380.8,17 M1380.8,12.4
				c-133.8,0-245.1,91.8-268.6,212.9C985.2,247.7,889,353.8,889,481.4c0,143.9,122.3,260.6,273.2,260.6h601.1
				c120.7,0,218.6-93.3,218.6-208.5c0-106.3-83.5-194-191.4-206.8c0-0.6,0.1-1.1,0.1-1.7c0-72-61.2-130.3-136.6-130.3
				c-4.2,0-8.3,0.2-12.3,0.6C1607.1,89.3,1503.4,12.4,1380.8,12.4L1380.8,12.4z"/>
		</g>
	</g>
	<g>
		<path fill="#00ADE0" d="M1584,274.6c0,0,0-0.4,0-1.3c0-0.8,0-2,0.1-3.6c0.1-1.6,0.2-3.4,0.4-5.6c0.1-1.1,0.2-2.2,0.4-3.4
			c0.1-0.6,0.2-1.2,0.3-1.8c0.1-0.6,0.2-1.3,0.4-1.9c0.1-0.7,0.2-1.3,0.4-2c0.2-0.7,0.3-1.4,0.5-2.1c0.3-1.4,0.7-2.8,1.1-4.3
			c0.4-1.5,0.9-2.9,1.4-4.5c0.6-1.5,1.1-3,1.8-4.6c1.3-3.1,2.8-6.1,4.6-9.2c1.7-3,3.8-6,5.9-8.8c2.2-2.8,4.6-5.5,7.1-7.9
			c2.5-2.5,5.2-4.6,8-6.6c2.7-2,5.6-3.6,8.3-5c1.4-0.7,2.8-1.3,4.1-1.8c1.3-0.6,2.7-1,4-1.5c1.3-0.5,2.5-0.7,3.7-1.1
			c1.2-0.3,2.3-0.5,3.4-0.8c2.2-0.4,4.1-0.7,5.6-0.8c1.6-0.2,3.1-0.2,3.9-0.2c0.8,0,1.5-0.1,1.5-0.1v4.6c0,0-0.7,0-1.4,0
			c-0.8,0-2.1,0-3.5,0.1c-1.5,0.1-3.3,0.3-5.3,0.6c-1,0.2-2.1,0.4-3.2,0.6c-1.1,0.3-2.3,0.5-3.5,0.9c-1.2,0.4-2.5,0.8-3.7,1.3
			c-1.3,0.5-2.6,1-3.9,1.6c-2.6,1.3-5.3,2.7-7.9,4.5c-2.6,1.8-5.2,3.8-7.7,6c-2.4,2.3-4.8,4.7-6.9,7.4c-2.1,2.7-4.1,5.4-5.8,8.3
			c-1.7,2.9-3.3,5.8-4.6,8.7c-0.7,1.4-1.2,2.9-1.8,4.4c-0.5,1.5-1,2.9-1.5,4.3c-0.4,1.4-0.9,2.8-1.2,4.1c-0.2,0.7-0.3,1.3-0.5,2
			c-0.2,0.7-0.3,1.3-0.4,1.9c-0.1,0.6-0.3,1.2-0.4,1.8c-0.1,0.6-0.2,1.2-0.3,1.8c-0.2,1.2-0.4,2.3-0.5,3.3c-0.3,2.1-0.4,3.9-0.5,5.4
			c-0.1,1.5-0.1,2.7-0.1,3.5c0,0.8,0,1.3,0,1.3L1584,274.6z"/>
	</g>
	<g>
		<path fill="#00ADE0" d="M1192.1,268.8c0,0-0.9-1.1-2.6-3c-0.4-0.5-0.9-1-1.4-1.6c-0.5-0.5-1.1-1.1-1.7-1.7
			c-1.2-1.2-2.5-2.7-4.1-4.1c-0.8-0.7-1.6-1.5-2.4-2.3c-0.9-0.8-1.8-1.5-2.7-2.3c-1.8-1.6-3.9-3.2-6-4.8c-1.1-0.8-2.2-1.5-3.3-2.3
			c-0.6-0.4-1.1-0.8-1.7-1.2c-0.6-0.4-1.2-0.7-1.8-1.1c-1.2-0.7-2.4-1.5-3.6-2.2c-1.2-0.7-2.5-1.4-3.7-2c-1.2-0.7-2.5-1.2-3.8-1.9
			l-1.9-0.9c-0.6-0.3-1.3-0.5-1.9-0.8c-1.3-0.5-2.6-1.1-3.8-1.5c-1.3-0.4-2.6-0.9-3.8-1.3c-1.2-0.4-2.5-0.7-3.7-1.1
			c-1.2-0.3-2.4-0.7-3.6-0.9c-1.2-0.2-2.3-0.5-3.4-0.7c-1.1-0.2-2.2-0.3-3.2-0.5c-1-0.1-2-0.3-3-0.4c-1-0.1-1.9-0.2-2.7-0.2
			c-0.9-0.1-1.7-0.1-2.4-0.2c-0.7-0.1-1.3,0-1.9-0.1c-2.5,0-3.7-0.1-3.7-0.1V225c0,0,1.3,0.1,3.9,0.2c0.6,0,1.3,0,2.1,0.1
			c0.8,0.1,1.6,0.2,2.5,0.3c0.9,0.1,1.8,0.2,2.8,0.3c1,0.2,2,0.3,3.1,0.5c1.1,0.2,2.2,0.3,3.4,0.6c1.2,0.3,2.4,0.6,3.6,0.8
			c1.2,0.3,2.5,0.7,3.7,1c1.3,0.4,2.6,0.7,3.9,1.2c1.3,0.5,2.6,1,3.9,1.4c1.3,0.5,2.6,1.1,4,1.7c0.7,0.3,1.3,0.6,2,0.9
			c0.6,0.3,1.3,0.7,2,1c1.3,0.7,2.6,1.3,3.9,2c1.3,0.7,2.5,1.5,3.8,2.2c1.3,0.7,2.4,1.6,3.7,2.4c0.6,0.4,1.2,0.8,1.8,1.2
			c0.6,0.4,1.1,0.8,1.7,1.3c1.1,0.8,2.3,1.6,3.3,2.5c2.1,1.7,4.2,3.4,6,5.1c0.9,0.8,1.8,1.6,2.7,2.5c0.8,0.8,1.6,1.6,2.4,2.4
			c1.6,1.5,2.9,3,4.1,4.3c0.6,0.7,1.2,1.3,1.7,1.8c0.5,0.6,0.9,1.1,1.3,1.6c1.6,1.9,2.5,3,2.5,3L1192.1,268.8z"/>
	</g>
</g>
<g>
	<path fill="#FFFFFF" d="M794.4,583.4c0.1,1.1,1.1,1.9,2.2,1.8l125-10.1c1.1-0.1,1.9-1.1,1.8-2.2l-2.3-27.9
		c-0.1-1.1-1.1-1.9-2.2-1.8l-125,10.1c-1.1,0.1-1.9,1.1-1.8,2.2L794.4,583.4z"/>
</g>
<g>
	<path fill="#FFFFFF" d="M786.9,414c-0.2,1.1,0.6,2.1,1.6,2.3l130.1,21.9c1.1,0.2,2.1-0.6,2.3-1.6l5.3-31.8c0.2-1.1-0.6-2.1-1.6-2.3
		l-130.1-21.9c-1.1-0.2-2.1,0.6-2.3,1.6L786.9,414z"/>
</g>
<g>
	<line fill="#333333" x1="286.4" y1="613.7" x2="1118.1" y2="542.5"/>
	<g>
		<line fill="none" stroke="#333333" stroke-width="3" stroke-miterlimit="10" x1="307.5" y1="611.9" x2="1097" y2="544.3"/>
		<g>
			<polygon fill="#333333" points="286.4,613.7 317.1,623.3 309,611.8 315.1,599 			"/>
		</g>
		<g>
			<polygon fill="#333333" points="1118.1,542.5 1089.4,557.2 1095.4,544.4 1087.3,532.9 			"/>
		</g>
	</g>
</g>
<g>
	<line fill="#333333" x1="299.6" y1="330.3" x2="1117.8" y2="452.9"/>
	<g>
		<line fill="none" stroke="#333333" stroke-width="3" stroke-miterlimit="10" x1="320.5" y1="333.5" x2="1096.9" y2="449.8"/>
		<g>
			<polygon fill="#333333" points="299.6,330.3 327.3,346.8 322.1,333.7 330.9,322.7 			"/>
		</g>
		<g>
			<polygon fill="#333333" points="1117.8,452.9 1086.5,460.6 1095.3,449.5 1090.1,436.4 			"/>
		</g>
	</g>
</g>
<g>
	<path fill="#FFFFFF" d="M375.3,627.8c0.1,1.1,1.1,1.9,2.2,1.8l293-24.7c1.1-0.1,1.9-1.1,1.8-2.2l-3.7-43.8
		c-0.1-1.1-1.1-1.9-2.2-1.8l-293,24.7c-1.1,0.1-1.9,1.1-1.8,2.2L375.3,627.8z"/>
</g>
<g>
	<path fill="#FFFFFF" d="M378.8,369c-0.1,1.1,0.7,2.1,1.8,2.2l292.4,31c1.1,0.1,2.1-0.7,2.2-1.8l4.7-44.1c0.1-1.1-0.7-2.1-1.8-2.2
		l-292.4-31c-1.1-0.1-2.1,0.7-2.2,1.8L378.8,369z"/>
</g>
<g>
	<path fill="#FFFFFF" stroke="#333333" stroke-width="4" stroke-miterlimit="10" d="M631.7,687.7H423c-15.4,0-27.9-10.9-27.9-26.3
		V316.8c0-15.4,12.5-26.3,27.9-26.3h208.8c15.4,0,27.9,10.9,27.9,26.3v344.5C659.6,676.7,647.1,687.7,631.7,687.7z"/>
	<rect x="411" y="331" fill="#FFFFFF" stroke="#333333" stroke-width="2" stroke-miterlimit="10" width="236" height="307"/>
	<circle fill="#FFFFFF" stroke="#333333" stroke-width="2" stroke-miterlimit="10" cx="528.2" cy="657.6" r="16.1"/>
	<g>
		<path fill="#FFFFFF" d="M631,620c0,1.1-0.9,2-2,2H429c-1.1,0-2-0.9-2-2V349c0-1.1,0.9-2,2-2h200c1.1,0,2,0.9,2,2V620z"/>
		<path fill="none" stroke="#333333" stroke-width="4" stroke-miterlimit="10" d="M631,620c0,1.1-0.9,2-2,2H429c-1.1,0-2-0.9-2-2
			V349c0-1.1,0.9-2,2-2h200c1.1,0,2,0.9,2,2V620z"/>
	</g>
	<g>
		<path fill="#FFFFFF" d="M609,599c0,1.1-0.9,2-2,2H450c-1.1,0-2-0.9-2-2V398c0-1.1,0.9-2,2-2h157c1.1,0,2,0.9,2,2V599z"/>
		<path fill="none" stroke="#333333" stroke-width="4" stroke-miterlimit="10" d="M609,599c0,1.1-0.9,2-2,2H450c-1.1,0-2-0.9-2-2
			V398c0-1.1,0.9-2,2-2h157c1.1,0,2,0.9,2,2V599z"/>
	</g>
	<path fill="#FFFFFF" stroke="#333333" stroke-width="4" stroke-miterlimit="10" d="M583,484.8c0-13.9-25.2-25.2-56.5-25.2
		S470,470.9,470,484.8v75.6c0,13.9,25.2,25.2,56.5,25.2s56.5-11.3,56.5-25.2V484.8z"/>
	<g>
		<path fill="#333333" d="M584.5,484.9c0,0,0,0.3-0.1,0.8c0,0.4-0.1,1.5-0.4,2.5c-0.3,1.1-0.8,2.4-1.6,3.7c-0.8,1.4-1.9,2.8-3.2,4.2
			c-2.7,2.8-6.6,5.3-11.4,7.3c-4.7,2.1-10.3,3.7-16.4,4.9c-6.1,1.1-12.8,1.8-19.9,2.1c-7.1,0.2-14.6,0-22.3-1
			c-7.7-0.9-15.7-2.6-23.3-5.9c-3.8-1.6-7.6-3.7-10.8-6.7c-3.2-2.9-6-7-6.1-12.2l0-0.8c0-0.3,0-0.5,0.1-0.8c0.1-0.6,0.2-1.3,0.4-1.9
			l0.2-0.9c0.1-0.3,0.2-0.6,0.3-0.8c0.2-0.6,0.5-1.1,0.7-1.6c1.1-2.1,2.5-3.8,4.1-5.4c3.2-3.1,6.9-5.3,10.7-7.1
			c7.6-3.6,15.6-5.6,23.4-6.8c7.8-1.2,15.4-1.5,22.6-1.2c7.2,0.3,14,1.2,20.2,2.6c6.2,1.4,11.7,3.3,16.4,5.6
			c4.7,2.3,8.5,4.9,11.2,7.8c1.4,1.4,2.4,2.9,3.2,4.3c0.8,1.4,1.2,2.7,1.5,3.8c0.3,1.1,0.4,2,0.4,2.5c0,0.6,0,0.9,0,0.9L584.5,484.9
			z M580.5,484.8c0,0,0-0.2,0-0.6c0-0.4-0.1-1-0.3-1.8c-0.2-0.8-0.6-1.7-1.2-2.8c-0.6-1-1.5-2.2-2.6-3.4c-2.3-2.4-5.8-4.7-10.1-6.8
			c-4.4-2-9.6-3.8-15.5-5.1c-5.9-1.3-12.4-2.1-19.4-2.4c-7-0.2-14.3,0-21.8,1.1c-7.5,1.1-15.1,3-22.2,6.2c-3.5,1.6-6.9,3.7-9.7,6.2
			c-1.4,1.3-2.6,2.7-3.4,4.3c-0.2,0.4-0.4,0.8-0.6,1.2l-0.2,0.6l-0.2,0.6c-0.1,0.4-0.2,0.8-0.3,1.2c-0.1,0.2-0.1,0.5-0.1,0.7l0,0.8
			c0-0.2,0,0,0,0l0,0.1l0,0.2l0,0.3c0,0.2,0,0.4,0,0.6c0.1,0.4,0.1,0.9,0.2,1.3l0.2,0.6l0.2,0.6c0.1,0.4,0.3,0.8,0.5,1.2
			c0.8,1.6,2,3.1,3.3,4.4c1.3,1.4,2.9,2.6,4.5,3.7c1.6,1.1,3.3,2.1,5.1,3c7.1,3.6,14.8,5.8,22.3,7.1c7.6,1.3,15,1.7,22.1,1.3
			c7-0.3,13.7-1.3,19.6-2.8c5.9-1.5,11.2-3.5,15.5-5.7c4.3-2.3,7.8-4.8,10-7.2c1.1-1.2,1.9-2.4,2.5-3.5c0.6-1.1,0.9-2,1.1-2.8
			c0.3-1.3,0.3-2.6,0.3-2.6L580.5,484.8z"/>
	</g>
	<g>
		<circle fill="#CC2A2E" cx="527" cy="545.6" r="30"/>
	</g>
	<path fill="#FFFFFF" d="M544.2,535.4c-1.1-0.2-3.5-0.4-5.4-0.3c-0.7,0-1.3,0.6-1.3,1.4c0,0,0,8.2,0,8.2c-3.7,0-6.8-0.2-10.5-0.2
		c-3.7,0-6.8,0.2-10.5,0.2c0,0,0-8.2,0-8.2c0-0.9-0.6-1.4-1.3-1.4c-1.9,0-4.3,0.2-5.4,0.3c-1.7,0.3-3.1,2-3.1,3.8
		c0,3.9,0,7.8,0,11.7c0,1.8,1.1,3.4,3.1,3.8c3.5,0.6,11,1,17.2,1c6.2,0,13.7-0.4,17.2-1c2-0.4,3.1-2,3.1-3.8c0-3.9,0-7.8,0-11.7
		C547.3,537.3,545.9,535.7,544.2,535.4z"/>
	<text transform="matrix(1 0 0 1 467.8331 424.0865)"><tspan x="0" y="0" fill="#333333" font-family="'KievitOT-Bold'" font-size="22">Couchbase</tspan><tspan x="0" y="26.4" fill="#333333" font-family="'KievitOT-Bold'" font-size="22">Lite</tspan></text>
	<text transform="matrix(1 0 0 1 447.9979 377.7531)" fill="#333333" font-family="'KievitOT-Bold'" font-size="22">Mobile App</text>
</g>
<g>
	<line fill="#333333" x1="610.6" y1="497.9" x2="1118" y2="497.9"/>
	<g>
		<line fill="none" stroke="#333333" stroke-width="3" stroke-miterlimit="10" x1="631.8" y1="497.9" x2="1096.8" y2="497.9"/>
		<g>
			<polygon fill="#333333" points="610.6,497.9 640.5,510.1 633.4,497.9 640.5,485.7 			"/>
		</g>
		<g>
			<polygon fill="#333333" points="1118,497.9 1088.2,510.1 1095.2,497.9 1088.2,485.7 			"/>
		</g>
	</g>
</g>
<g>
	<path fill="#FFFFFF" d="M1663,670c0,1.1-0.9,2-2,2h-229c-1.1,0-2-0.9-2-2V396c0-1.1,0.9-2,2-2h229c1.1,0,2,0.9,2,2V670z"/>
	<path fill="none" stroke="#333333" stroke-width="4" stroke-miterlimit="10" d="M1663,670c0,1.1-0.9,2-2,2h-229c-1.1,0-2-0.9-2-2
		V396c0-1.1,0.9-2,2-2h229c1.1,0,2,0.9,2,2V670z"/>
</g>
<text transform="matrix(1 0 0 1 1433.1211 337.7574)"><tspan x="0" y="0" fill="#333333" font-family="'KievitOT-Bold'" font-size="26">Couchbase Server</tspan><tspan x="0" y="31.2" fill="#333333" font-family="'KievitOT-Bold'" font-size="26">Cluster(s)</tspan></text>
<g>
	<path fill="#C6DD9F" d="M1313,557c0,1.1-0.9,2-2,2h-188c-1.1,0-2-0.9-2-2V441c0-1.1,0.9-2,2-2h188c1.1,0,2,0.9,2,2V557z"/>
	<path fill="none" stroke="#CC2A2E" stroke-width="4" stroke-miterlimit="10" d="M1313,557c0,1.1-0.9,2-2,2h-188c-1.1,0-2-0.9-2-2
		V441c0-1.1,0.9-2,2-2h188c1.1,0,2,0.9,2,2V557z"/>
</g>
<text transform="matrix(1 0 0 1 1138.1211 506.8564)" fill="#CC2A2E" font-family="'KievitOT-Bold'" font-size="26">Sync Gateway</text>
<g>
	<g>
		<circle fill="#CC2A2E" cx="1295.7" cy="559.4" r="30"/>
	</g>
	<path fill="#FFFFFF" d="M1312.9,549.2c-1.1-0.2-3.5-0.4-5.4-0.3c-0.7,0-1.3,0.6-1.3,1.4c0,0,0,8.2,0,8.2c-3.7,0-6.8-0.2-10.5-0.2
		c-3.7,0-6.8,0.2-10.5,0.2c0,0,0-8.2,0-8.2c0-0.9-0.6-1.4-1.3-1.4c-1.9,0-4.3,0.2-5.4,0.3c-1.7,0.3-3.1,2-3.1,3.8
		c0,3.9,0,7.8,0,11.7c0,1.8,1.1,3.4,3.1,3.8c3.5,0.6,11,1,17.2,1c6.2,0,13.7-0.4,17.2-1c2-0.4,3.1-2,3.1-3.8c0-3.9,0-7.8,0-11.7
		C1315.9,551.2,1314.6,549.5,1312.9,549.2z"/>
</g>
<g>
	<path fill="none" stroke="#7F7F7F" stroke-width="4" stroke-miterlimit="10" stroke-dasharray="12.0052,12.0052" d="M1728,705
		c0,1.1-0.9,2-2,2h-648c-1.1,0-2-0.9-2-2V291c0-1.1,0.9-2,2-2h648c1.1,0,2,0.9,2,2V705z"/>
</g>
<text transform="matrix(1 0 0 1 1132.1211 339.4233)" fill="#7F7F7F" font-family="'KievitOT-Bold'" font-size="28">Data Center</text>
<text transform="matrix(1 0 0 1 1305.8057 184.5989)" fill="#00ACE0" font-family="'KievitOT-Bold'" font-size="28">Private Cloud</text>
<text transform="matrix(1 0 0 1 393.1211 184.5996)" fill="#00ACE0" font-family="'KievitOT-Bold'" font-size="28">Mobile Devices</text>
<g>
	<line fill="#333333" x1="1312.9" y1="497.9" x2="1428" y2="497.9"/>
	<g>
		<line fill="none" stroke="#333333" stroke-width="3" stroke-miterlimit="10" x1="1334.1" y1="497.9" x2="1406.8" y2="497.9"/>
		<g>
			<polygon fill="#333333" points="1312.9,497.9 1342.7,510.1 1335.6,497.9 1342.7,485.7 			"/>
		</g>
		<g>
			<polygon fill="#333333" points="1428,497.9 1398.2,510.1 1405.2,497.9 1398.2,485.7 			"/>
		</g>
	</g>
</g>
<g>
	<path fill="#FFFFFF" d="M988,475c0-1.1-0.9-2-2-2H746c-1.1,0-2,0.9-2,2v41c0,1.1,0.9,2,2,2h240c1.1,0,2-0.9,2-2V475z"/>
</g>
<text transform="matrix(1 0 0 1 760.6406 505.8362)" fill="#333333" font-family="'KievitOT-Bold'" font-size="30">Synchronization</text>
<g>
	<path fill="#FFFFFF" stroke="#333333" stroke-width="4" stroke-miterlimit="10" d="M280,438.5h-72.5c-9.8,0-17.7-6.9-17.7-16.7
		V239.2c0-9.8,7.9-16.7,17.7-16.7H280c9.8,0,17.7,6.9,17.7,16.7v182.6C297.7,431.6,289.8,438.5,280,438.5z"/>
	<path fill="#FFFFFF" stroke="#333333" stroke-miterlimit="10" d="M252.2,246.5h-15.8c-0.9,0-1.7-0.8-1.7-1.7l0,0
		c0-0.9,0.8-1.7,1.7-1.7h15.8c0.9,0,1.7,0.8,1.7,1.7l0,0C253.9,245.8,253.1,246.5,252.2,246.5z"/>
	<rect x="199" y="254" fill="#FFFFFF" stroke="#333333" stroke-width="2" stroke-miterlimit="10" width="90" height="147"/>
	<circle fill="#FFFFFF" stroke="#333333" stroke-width="2" stroke-miterlimit="10" cx="244.5" cy="419.4" r="10.2"/>
	<circle fill="#FFFFFF" stroke="#333333" stroke-miterlimit="10" cx="244.5" cy="235.5" r="2.5"/>
	<g>
		<path fill="#FFFFFF" stroke="#333333" stroke-width="2" stroke-miterlimit="10" d="M265,313c0-5.5-9.7-9.9-22-9.9s-22,4.4-22,9.9
			v29.7c0,5.5,9.7,9.9,22,9.9s22-4.4,22-9.9V313z"/>
		<g>
			<path fill="#333333" d="M265.8,313.1c0,0,0,0.1,0,0.3c0,0.2,0,0.4-0.1,0.9c-0.3,1-0.8,2.1-1.9,3.3c-1.1,1.1-2.6,2.1-4.4,2.9
				c-1.8,0.8-4,1.5-6.4,1.9c-2.4,0.4-5,0.7-7.7,0.8c-2.8,0.1-5.6,0-8.6-0.4c-3-0.4-6.1-1-9-2.3c-1.5-0.6-2.9-1.5-4.2-2.7
				c-0.3-0.3-0.6-0.6-0.9-1c-0.3-0.3-0.5-0.7-0.7-1.1c-0.3-0.4-0.4-0.9-0.5-1.3c-0.1-0.2-0.1-0.5-0.1-0.7l0-0.4l0-0.2l0-0.1l0,0
				c0-0.1,0,0.1,0-0.2c0.1-0.4,0-0.7,0.2-1.2c0.2-0.5,0.3-1,0.5-1.4c0.2-0.4,0.4-0.8,0.7-1.2c0.3-0.4,0.5-0.7,0.9-1
				c1.2-1.2,2.7-2.2,4.2-2.9c3-1.5,6.1-2.2,9.1-2.7c3-0.5,6-0.6,8.8-0.5c2.8,0.1,5.4,0.5,7.8,1.1c4.8,1.1,8.6,3,10.7,5.3
				c1.1,1.2,1.6,2.4,1.8,3.2c0.1,0.4,0.1,0.8,0.1,1c0,0.2,0,0.4,0,0.4L265.8,313.1z M263.8,313c0,0,0-0.1,0-0.2c0-0.1,0-0.4-0.1-0.7
				c-0.2-0.6-0.5-1.4-1.4-2.3c-1.7-1.8-5.2-3.6-9.7-4.6c-2.3-0.5-4.8-0.8-7.4-0.9c-2.7-0.1-5.5,0-8.4,0.4c-2.9,0.4-5.8,1.1-8.5,2.4
				c-1.4,0.6-2.6,1.4-3.6,2.4c-0.3,0.2-0.5,0.5-0.7,0.8c-0.2,0.3-0.4,0.6-0.5,0.8c-0.2,0.3-0.2,0.5-0.3,0.8
				c-0.1,0.1-0.1,0.4-0.1,0.5l-0.1,0.6c0-0.2,0,0,0-0.1l0,0l0,0.1l0,0.1l0,0.2c0,0.2,0,0.3,0.1,0.5c0.1,0.3,0.1,0.6,0.3,0.9
				c0.2,0.3,0.3,0.6,0.5,0.9c0.2,0.3,0.4,0.6,0.7,0.8c1,1,2.2,1.9,3.6,2.6c2.7,1.4,5.6,2.3,8.5,2.9c2.9,0.5,5.8,0.7,8.5,0.5
				c2.7-0.1,5.3-0.5,7.5-1.2c2.3-0.6,4.3-1.4,5.9-2.3c1.6-0.9,2.9-1.9,3.7-2.8c0.8-1,1.2-1.8,1.3-2.3c0.1-0.3,0.1-0.6,0.1-0.8
				c0-0.2,0-0.3,0-0.3L263.8,313z"/>
		</g>
	</g>
	<g>
		<g>
			<circle fill="#CC2A2E" cx="261" cy="346.2" r="11.8"/>
		</g>
		<path fill="#FFFFFF" d="M267.8,342.2c-0.4-0.1-1.4-0.1-2.1-0.1c-0.3,0-0.5,0.2-0.5,0.6c0,0,0,3.2,0,3.2c-1.4,0-2.7-0.1-4.1-0.1
			c-1.4,0-2.7,0.1-4.1,0.1c0,0,0-3.2,0-3.2c0-0.3-0.2-0.6-0.5-0.6c-0.7,0-1.7,0.1-2.1,0.1c-0.7,0.1-1.2,0.8-1.2,1.5
			c0,1.5,0,3.1,0,4.6c0,0.7,0.4,1.3,1.2,1.5c1.4,0.2,4.3,0.4,6.8,0.4c2.4,0,5.4-0.1,6.8-0.4c0.8-0.1,1.2-0.8,1.2-1.5
			c0-1.5,0-3.1,0-4.6C269,343,268.4,342.3,267.8,342.2z"/>
	</g>
</g>
<g>
	<g>
		<g>
			<path fill="none" stroke="#333333" stroke-width="4" stroke-miterlimit="10" d="M1458.6,430.6c0-9.7,27.5-17.6,61.5-17.6
				c34,0,61.5,7.9,61.5,17.6v35.1c0,1.5-0.7,3-1.9,4.4c1.3,1.4,1.9,2.9,1.9,4.4v35.1c0,1.5-0.7,3-1.9,4.4c1.3,1.4,1.9,2.9,1.9,4.4
				v35.1c0,9.7-27.5,17.6-61.5,17.6c-34,0-61.5-7.9-61.5-17.6v-35.1c0-1.5,0.7-3,1.9-4.4c-1.3-1.4-1.9-2.9-1.9-4.4v-35.1
				c0-1.5,0.7-3,1.9-4.4c-1.3-1.4-1.9-2.9-1.9-4.4V430.6z"/>
			<g>
				<path fill="#333333" d="M1461.3,430.4c0,0,0,0.3,0.1,0.8c0,0.2,0,0.2,0.1,0.3c0,0.1,0,0.1,0.1,0.2c0,0.1,0.1,0.2,0.1,0.4
					c0.1,0.1,0.1,0.3,0.2,0.4c0.6,1.3,2.5,3.1,5.5,4.8c1.5,0.8,3.2,1.7,5.2,2.5c2,0.8,4.1,1.6,6.5,2.3c4.8,1.5,10.3,2.7,16.4,3.7
					c6.1,1,12.8,1.7,19.9,1.9c7.1,0.2,14.6,0,22.3-0.9c7.7-0.9,15.6-2.3,23.3-4.6c3.8-1.2,7.6-2.6,11.1-4.4c1.7-0.9,3.4-2,4.7-3.2
					c1.3-1.2,2.2-2.7,2.1-3.9c0,0.3,0,0,0,0.1l0-0.1l0-0.2l0-0.4c0-0.2,0-0.2-0.1-0.2c0-0.1,0-0.1-0.1-0.2c0-0.1-0.1-0.3-0.2-0.4
					c-0.1-0.2-0.1-0.3-0.3-0.5c-0.4-0.7-1-1.3-1.6-1.9c-1.3-1.2-3-2.2-4.7-3c-3.5-1.7-7.3-3-11.2-4c-7.7-2-15.6-3.1-23.3-3.7
					c-7.7-0.7-15.1-0.8-22.1-0.7c-7,0.1-13.7,0.6-19.8,1.4c-6.1,0.8-11.6,1.8-16.4,3.1c-4.8,1.2-8.8,2.7-11.8,4.3
					c-3,1.6-4.9,3.4-5.5,4.6c-0.7,1.2-0.5,1.8-0.6,1.9L1461.3,430.4z M1457.3,430.6c0,0,0-0.4,0.1-1c0-0.3,0.2-0.7,0.3-1.2
					c0.2-0.5,0.4-1,0.7-1.5c1.2-2.2,3.7-4.4,7.1-6.2c3.4-1.8,7.7-3.5,12.6-4.9c5-1.4,10.7-2.5,16.9-3.3c6.3-0.8,13-1.4,20.3-1.5
					c7.2-0.2,14.8,0,22.6,0.7c7.8,0.7,15.9,1.9,24,4.1c4,1.1,8.1,2.4,11.9,4.4c1.9,1,3.9,2.2,5.6,3.7c0.9,0.8,1.7,1.7,2.4,2.9
					c0.2,0.3,0.3,0.6,0.4,0.9c0.1,0.3,0.3,0.6,0.4,1l0.1,0.6c0,0.2,0.1,0.4,0.1,0.5l0.1,0.9c0,1.5-0.5,2.8-1.2,3.9
					c-0.7,1.1-1.5,2-2.4,2.8c-1.8,1.5-3.7,2.7-5.6,3.6c-3.9,1.9-8,3-12,4c-8.1,1.8-16.1,2.8-23.9,3.2c-7.8,0.5-15.3,0.6-22.5,0.5
					c-7.1-0.1-13.9-0.5-20.1-1.1c-6.2-0.6-11.9-1.5-16.9-2.7c-5-1.1-9.3-2.7-12.7-4.4c-3.4-1.7-5.9-3.9-7.1-6.1
					c-0.2-0.2-0.3-0.5-0.4-0.8c-0.1-0.3-0.2-0.5-0.3-0.8c-0.1-0.3-0.1-0.5-0.2-0.8c-0.1-0.2-0.1-0.5-0.1-0.6
					c-0.1-0.5-0.1-0.8-0.1-0.8L1457.3,430.6z"/>
			</g>
			<g>
				<path fill="#333333" d="M1460.6,464.2c0,0,0,0.1,0,0.4c0,0.1,0,0.1,0,0.2c0,0.1,0,0.2,0.1,0.4c0.1,0.6,0.6,1.6,1.7,2.8
					c1.1,1.1,2.8,2.4,4.9,3.5c2.1,1.2,4.7,2.2,7.7,3.2c5.8,2,13,3.5,20.7,4.6c3.9,0.5,7.9,0.9,12,1.2c4.1,0.3,8.3,0.4,12.4,0.4
					c4.2,0,8.3-0.1,12.4-0.4c4.1-0.2,8.1-0.7,12-1.2c7.7-1,14.9-2.6,20.7-4.6c5.8-1.9,10.4-4.4,12.6-6.7c1.1-1.1,1.6-2.1,1.7-2.8
					c0.1-0.3,0.1-0.7,0.1-0.8c0-0.2,0-0.4,0-0.4h4c0,0,0,0.3,0,0.7c0,0.3-0.1,0.9-0.3,1.6c-0.4,1.3-1.4,2.9-2.9,4.3
					c-3.1,2.9-8.1,5.1-14.3,6.9c-6.1,1.8-13.4,3.1-21.3,4.1c-3.9,0.5-8,0.8-12.1,1c-4.1,0.2-8.3,0.3-12.6,0.3
					c-4.2,0-8.4-0.1-12.6-0.3c-4.1-0.2-8.2-0.6-12.1-1c-7.9-0.9-15.1-2.3-21.3-4.1c-6.1-1.8-11.2-4-14.3-6.9c-1.5-1.4-2.5-3-2.9-4.3
					c-0.1-0.3-0.2-0.6-0.2-0.9c0-0.3-0.1-0.6-0.1-0.7c0-0.3,0-0.4,0-0.4L1460.6,464.2z"/>
			</g>
			<g>
				<path fill="#333333" d="M1460.9,473c0,0,0,0.1,0,0.4c0,0.1,0,0.1,0,0.2c0,0.1,0,0.2,0.1,0.4c0.1,0.6,0.6,1.6,1.7,2.8
					c1.1,1.1,2.8,2.4,4.9,3.5c2.1,1.2,4.7,2.2,7.7,3.2c5.8,2,13,3.5,20.7,4.6c3.9,0.5,7.9,0.9,12,1.2c4.1,0.3,8.2,0.4,12.4,0.4
					c4.2,0,8.3-0.1,12.4-0.4c4.1-0.2,8.1-0.7,12-1.2c7.7-1,14.8-2.6,20.7-4.6c5.8-1.9,10.4-4.4,12.6-6.7c1.1-1.1,1.6-2.1,1.7-2.8
					c0.1-0.3,0.1-0.6,0.1-0.7c0-0.2,0-0.3,0-0.3h4c0,0,0,0.2,0,0.6c0,0.3-0.1,0.9-0.3,1.5c-0.4,1.3-1.4,2.9-2.9,4.3
					c-1.5,1.4-3.6,2.7-6,3.8c-2.4,1.1-5.2,2.1-8.3,3.1c-6.1,1.8-13.4,3.1-21.3,4c-3.9,0.5-8,0.8-12.1,1c-4.1,0.2-8.3,0.3-12.5,0.3
					c-4.2,0-8.4-0.1-12.5-0.3c-4.1-0.2-8.2-0.6-12.1-1c-7.8-0.9-15.1-2.3-21.3-4.1c-6.1-1.8-11.1-4.1-14.2-6.9
					c-1.5-1.4-2.5-3-2.9-4.3c-0.1-0.3-0.2-0.6-0.2-0.9c0-0.3-0.1-0.6-0.1-0.7c0-0.3,0-0.4,0-0.4L1460.9,473z"/>
			</g>
			<g>
				<path fill="#333333" d="M1460.6,508.1c0,0,0,0.1,0,0.4c0,0.1,0,0.1,0,0.2c0,0.1,0,0.2,0.1,0.4c0.1,0.6,0.6,1.6,1.7,2.8
					c1.1,1.1,2.8,2.4,4.9,3.5c2.1,1.2,4.7,2.2,7.7,3.2c5.8,2,13,3.5,20.7,4.6c3.9,0.5,7.9,0.9,12,1.2c4.1,0.3,8.3,0.4,12.4,0.4
					c4.2,0,8.3-0.1,12.4-0.4c4.1-0.2,8.1-0.7,12-1.2c7.7-1,14.8-2.6,20.7-4.6c5.8-1.9,10.4-4.4,12.6-6.7c1.1-1.1,1.6-2.1,1.7-2.8
					c0.1-0.3,0.1-0.6,0.1-0.8c0-0.2,0-0.3,0-0.3h4c0,0,0,0.3,0,0.6c0,0.3-0.1,0.9-0.3,1.5c-0.4,1.3-1.4,2.9-2.9,4.3
					c-3.1,2.9-8.1,5.1-14.2,6.9c-6.1,1.8-13.4,3.1-21.3,4.1c-3.9,0.5-8,0.8-12.1,1c-4.1,0.2-8.3,0.3-12.5,0.3
					c-4.2,0-8.4-0.1-12.5-0.3c-4.1-0.2-8.2-0.6-12.1-1c-7.8-0.9-15.1-2.3-21.3-4.1c-6.1-1.8-11.2-4.1-14.2-6.9
					c-1.5-1.4-2.5-3-2.9-4.3c-0.1-0.3-0.2-0.6-0.2-0.9c0-0.3-0.1-0.6-0.1-0.7c0-0.3,0-0.4,0-0.4L1460.6,508.1z"/>
			</g>
			<g>
				<path fill="#333333" d="M1460.9,516.9c0,0,0,0.1,0,0.4c0,0.1,0,0.1,0,0.2c0,0.1,0,0.2,0.1,0.4c0.1,0.6,0.6,1.6,1.7,2.8
					c1.1,1.1,2.8,2.4,4.9,3.5c2.1,1.2,4.7,2.2,7.6,3.2c5.8,2,12.9,3.5,20.6,4.6c3.9,0.5,7.9,0.9,11.9,1.2c4.1,0.3,8.2,0.4,12.4,0.4
					c4.2,0,8.3-0.1,12.4-0.4c4.1-0.2,8.1-0.7,11.9-1.2c7.7-1,14.8-2.6,20.6-4.6c5.8-1.9,10.4-4.4,12.6-6.7c1.1-1.1,1.6-2.1,1.7-2.8
					c0.1-0.3,0.1-0.5,0.1-0.7c0-0.2,0-0.2,0-0.2h4c0,0,0,0.2,0,0.5c0,0.3-0.1,0.9-0.3,1.5c-0.4,1.3-1.4,2.9-2.9,4.3
					c-1.5,1.4-3.6,2.7-6,3.8c-2.4,1.1-5.2,2.1-8.2,3.1c-6.1,1.8-13.4,3.1-21.2,4c-3.9,0.5-8,0.8-12.1,1c-4.1,0.2-8.3,0.3-12.5,0.3
					c-4.2,0-8.4-0.1-12.5-0.3c-4.1-0.2-8.2-0.6-12.1-1c-7.8-0.9-15.1-2.3-21.2-4.1c-6.1-1.8-11.1-4.1-14.2-6.9
					c-1.5-1.4-2.5-3-2.9-4.3c-0.1-0.3-0.2-0.6-0.2-0.9c0-0.3-0.1-0.6-0.1-0.7c0-0.3,0-0.4,0-0.4L1460.9,516.9z"/>
			</g>
		</g>
		<g>
			<path fill="#FFFFFF" d="M1596,583c0,1.1-0.9,2-2,2h-109c-1.1,0-2-0.9-2-2V463c0-1.1,0.9-2,2-2h109c1.1,0,2,0.9,2,2V583z"/>
		</g>
	</g>
	<g>
		<path fill="none" stroke="#333333" stroke-width="4" stroke-miterlimit="10" d="M1613,484.6c0-9.7-27.5-17.6-61.5-17.6
			c-34,0-61.5,7.9-61.5,17.6v35.1c0,1.5,0.7,3,1.9,4.4c-1.3,1.4-1.9,2.9-1.9,4.4v35.1c0,1.5,0.7,3,1.9,4.4c-1.3,1.4-1.9,2.9-1.9,4.4
			v35.1c0,9.7,27.5,17.6,61.5,17.6c34,0,61.5-7.9,61.5-17.6v-35.1c0-1.5-0.7-3-1.9-4.4c1.3-1.4,1.9-2.9,1.9-4.4v-35.1
			c0-1.5-0.7-3-1.9-4.4c1.3-1.4,1.9-2.9,1.9-4.4V484.6z"/>
		<g>
			<path fill="#333333" d="M1614.3,484.7c0,0,0,0.3-0.1,0.8c0,0.1-0.1,0.3-0.1,0.6c-0.1,0.2-0.1,0.5-0.2,0.8
				c-0.1,0.3-0.2,0.5-0.3,0.8c-0.1,0.2-0.2,0.5-0.4,0.8c-1.2,2.2-3.7,4.3-7.1,6.1c-3.4,1.7-7.7,3.3-12.7,4.4
				c-5,1.2-10.7,2.1-16.9,2.7c-6.2,0.6-13,0.9-20.1,1.1c-7.1,0.1-14.7,0-22.5-0.5c-7.8-0.5-15.8-1.4-23.9-3.2c-4-0.9-8.1-2.1-12-4
				c-2-0.9-3.9-2-5.6-3.6c-0.9-0.8-1.7-1.7-2.4-2.8c-0.2-0.3-0.3-0.6-0.5-0.9c-0.1-0.3-0.3-0.6-0.4-1c-0.1-0.3-0.2-0.7-0.2-1
				l-0.1-0.5l0-0.3l0-0.1c0-0.1,0,0.1,0-0.3l0.1-0.8c0-0.1,0.1-0.3,0.1-0.5l0.1-0.6c0.1-0.4,0.2-0.7,0.4-1c0.1-0.3,0.3-0.6,0.4-0.9
				c0.6-1.2,1.5-2,2.4-2.9c1.8-1.6,3.7-2.7,5.6-3.7c3.9-2,7.9-3.3,11.9-4.4c8.1-2.2,16.1-3.4,24-4.1c7.8-0.7,15.4-0.9,22.6-0.7
				c7.2,0.2,14,0.7,20.3,1.5c6.3,0.8,11.9,2,16.9,3.3c5,1.4,9.3,3,12.6,4.9c3.4,1.8,5.9,4,7.1,6.2c0.3,0.5,0.5,1.1,0.7,1.5
				c0.1,0.5,0.3,0.9,0.3,1.2c0.1,0.7,0.1,1,0.1,1L1614.3,484.7z M1610.3,484.6c-0.1,0,0.1-0.6-0.6-1.9c-0.7-1.2-2.5-3-5.5-4.6
				c-3-1.6-7-3.1-11.8-4.3c-4.8-1.3-10.3-2.3-16.4-3.1c-6.1-0.8-12.7-1.3-19.8-1.4c-7.1-0.1-14.5,0-22.1,0.7
				c-7.6,0.7-15.5,1.8-23.3,3.7c-3.8,1-7.7,2.2-11.2,4c-1.7,0.9-3.4,1.9-4.7,3c-0.6,0.6-1.2,1.2-1.6,1.9c-0.1,0.2-0.2,0.3-0.3,0.5
				c-0.1,0.2-0.2,0.3-0.2,0.4c0,0.1,0,0.1-0.1,0.2c0,0.1-0.1,0.1-0.1,0.2l-0.1,0.8c0-0.3,0-0.1,0-0.1l0,0.1l0,0.1l0,0.2
				c0,0.2,0.1,0.3,0.1,0.5c0,0.2,0.1,0.3,0.2,0.5c0.1,0.2,0.1,0.3,0.2,0.5c0.3,0.7,1,1.3,1.6,1.9c1.3,1.2,3,2.3,4.7,3.2
				c3.5,1.8,7.3,3.2,11.1,4.4c7.7,2.3,15.6,3.7,23.3,4.6c7.7,0.8,15.2,1.1,22.3,0.9c7.1-0.2,13.8-0.9,19.9-1.9
				c6.1-1,11.6-2.2,16.4-3.7c2.4-0.7,4.6-1.5,6.5-2.3c2-0.8,3.7-1.6,5.2-2.5c3-1.7,4.8-3.5,5.5-4.8c0.1-0.2,0.1-0.3,0.2-0.4
				c0-0.1,0.1-0.3,0.1-0.4c0-0.1,0-0.2,0.1-0.2c0-0.1,0.1-0.1,0.1-0.3c0-0.5,0.1-0.8,0.1-0.8L1610.3,484.6z"/>
		</g>
		<g>
			<path fill="#333333" d="M1615,518.3c0,0,0,0.1,0,0.4c0,0.1-0.1,0.4-0.1,0.7c-0.1,0.3-0.1,0.5-0.2,0.9c-0.4,1.3-1.4,2.9-2.9,4.3
				c-3.1,2.8-8.1,5.1-14.3,6.9c-6.1,1.8-13.4,3.2-21.3,4.1c-3.9,0.5-8,0.8-12.1,1c-4.1,0.2-8.3,0.3-12.6,0.3
				c-4.2,0-8.4-0.1-12.6-0.3c-4.1-0.2-8.2-0.6-12.1-1c-7.9-0.9-15.2-2.2-21.3-4c-6.1-1.8-11.2-4-14.3-6.9c-1.5-1.4-2.5-3-2.9-4.3
				c-0.2-0.6-0.3-1.3-0.3-1.6c0-0.4,0-0.7,0-0.7h4c0,0,0,0.2,0,0.4c0,0.2,0,0.5,0.1,0.8c0.1,0.6,0.6,1.7,1.7,2.8
				c2.2,2.3,6.8,4.8,12.6,6.8c5.9,1.9,13,3.6,20.7,4.6c3.9,0.5,7.9,0.9,12,1.2c4.1,0.3,8.3,0.4,12.4,0.4c4.2,0,8.3-0.1,12.4-0.4
				c4.1-0.2,8.1-0.7,12-1.2c7.7-1,14.9-2.6,20.7-4.6c2.9-1,5.5-2.1,7.7-3.2c2.2-1.1,3.8-2.4,4.9-3.5c1.1-1.1,1.6-2.1,1.7-2.8
				c0-0.2,0.1-0.3,0.1-0.4c0-0.1,0-0.1,0-0.2c0-0.3,0-0.4,0-0.4L1615,518.3z"/>
		</g>
		<g>
			<path fill="#333333" d="M1614.8,527.1c0,0,0,0.1,0,0.4c0,0.1-0.1,0.4-0.1,0.7c-0.1,0.3-0.1,0.5-0.2,0.9c-0.4,1.3-1.4,2.9-2.9,4.3
				c-3.1,2.8-8.1,5.1-14.2,6.9c-6.1,1.8-13.4,3.2-21.3,4.1c-3.9,0.5-8,0.8-12.1,1c-4.1,0.2-8.3,0.3-12.5,0.3
				c-4.2,0-8.4-0.1-12.5-0.3c-4.1-0.2-8.2-0.6-12.1-1c-7.8-0.9-15.1-2.2-21.3-4c-3.1-0.9-5.8-1.9-8.3-3.1c-2.4-1.1-4.4-2.4-6-3.8
				c-1.5-1.4-2.5-3-2.9-4.3c-0.2-0.6-0.3-1.2-0.3-1.5c0-0.4,0-0.6,0-0.6h4c0,0,0,0.1,0,0.3c0,0.2,0,0.4,0.1,0.7
				c0.1,0.6,0.6,1.6,1.7,2.8c2.2,2.3,6.7,4.8,12.6,6.7c5.8,1.9,12.9,3.5,20.7,4.6c3.9,0.5,7.9,0.9,12,1.2c4.1,0.3,8.2,0.4,12.4,0.4
				c4.2,0,8.3-0.1,12.4-0.4c4.1-0.2,8.1-0.7,12-1.2c7.7-1,14.8-2.6,20.7-4.6c2.9-1,5.5-2.1,7.7-3.2c2.1-1.1,3.8-2.4,4.9-3.5
				c1.1-1.1,1.6-2.1,1.7-2.8c0-0.2,0.1-0.3,0.1-0.4c0-0.1,0-0.1,0-0.2c0-0.3,0-0.4,0-0.4L1614.8,527.1z"/>
		</g>
		<g>
			<path fill="#333333" d="M1615,562.3c0,0,0,0.1,0,0.4c0,0.1-0.1,0.4-0.1,0.7c-0.1,0.3-0.1,0.5-0.2,0.9c-0.4,1.3-1.4,2.9-2.9,4.3
				c-3.1,2.8-8.1,5.1-14.2,6.9c-6.1,1.8-13.4,3.2-21.3,4.1c-3.9,0.5-8,0.8-12.1,1c-4.1,0.2-8.3,0.3-12.5,0.3
				c-4.2,0-8.4-0.1-12.5-0.3c-4.1-0.2-8.2-0.6-12.1-1c-7.8-0.9-15.1-2.2-21.3-4c-6.1-1.8-11.2-4-14.2-6.9c-1.5-1.4-2.5-3-2.9-4.3
				c-0.2-0.6-0.3-1.2-0.3-1.6c0-0.4,0-0.6,0-0.6h4c0,0,0,0.2,0,0.3c0,0.2,0,0.4,0.1,0.7c0.1,0.6,0.6,1.7,1.7,2.8
				c2.2,2.3,6.8,4.8,12.6,6.8c5.9,1.9,13,3.6,20.7,4.6c3.9,0.5,7.9,0.9,12,1.2c4.1,0.3,8.3,0.4,12.4,0.4c4.2,0,8.3-0.1,12.4-0.4
				c4.1-0.2,8.1-0.7,12-1.2c7.7-1,14.9-2.6,20.7-4.6c2.9-1,5.5-2.1,7.7-3.2c2.2-1.1,3.8-2.4,4.9-3.5c1.1-1.1,1.6-2.1,1.7-2.8
				c0-0.2,0.1-0.3,0.1-0.4c0-0.1,0-0.1,0-0.2c0-0.3,0-0.4,0-0.4L1615,562.3z"/>
		</g>
		<g>
			<path fill="#333333" d="M1614.8,571.1c0,0,0,0.1,0,0.4c0,0.1-0.1,0.4-0.1,0.7c-0.1,0.3-0.1,0.5-0.2,0.9c-0.4,1.3-1.4,2.9-2.9,4.3
				c-3.1,2.8-8.1,5.1-14.2,6.9c-6.1,1.8-13.4,3.2-21.2,4.1c-3.9,0.5-8,0.8-12.1,1c-4.1,0.2-8.3,0.3-12.5,0.3
				c-4.2,0-8.4-0.1-12.5-0.3c-4.1-0.2-8.2-0.6-12.1-1c-7.8-0.9-15.1-2.2-21.2-4.1c-3.1-0.9-5.8-1.9-8.2-3.1c-2.4-1.1-4.4-2.4-6-3.8
				c-1.5-1.4-2.5-3-2.9-4.3c-0.2-0.6-0.3-1.1-0.3-1.5c0-0.3,0-0.5,0-0.5h4c0,0,0,0.1,0,0.2c0,0.2,0,0.4,0.1,0.7
				c0.1,0.6,0.6,1.6,1.7,2.8c2.2,2.3,6.7,4.8,12.6,6.7c5.8,1.9,12.9,3.5,20.6,4.6c3.9,0.5,7.9,0.9,11.9,1.2
				c4.1,0.3,8.2,0.4,12.4,0.4c4.2,0,8.3-0.1,12.4-0.4c4.1-0.2,8.1-0.7,11.9-1.2c7.7-1,14.8-2.6,20.6-4.6c2.9-1,5.5-2.1,7.6-3.2
				c2.1-1.1,3.8-2.4,4.9-3.5c1.1-1.1,1.6-2.1,1.7-2.8c0-0.2,0.1-0.3,0.1-0.4c0-0.1,0-0.1,0-0.2c0-0.3,0-0.4,0-0.4L1614.8,571.1z"/>
		</g>
	</g>
	<g>
		<path fill="#FFFFFF" d="M1637,596c0-1.1-0.9-2-2-2h-45c-1.1,0-2,0.9-2,2v48c0,1.1,0.9,2,2,2h45c1.1,0,2-0.9,2-2V596z"/>
	</g>
	<g>
		<g>
			<circle fill="#CC2A2E" cx="1619.9" cy="627.5" r="30"/>
		</g>
		<path fill="#FFFFFF" d="M1637.1,617.3c-1.1-0.2-3.5-0.4-5.4-0.3c-0.7,0-1.3,0.6-1.3,1.4c0,0,0,8.2,0,8.2c-3.7,0-6.8-0.2-10.5-0.2
			c-3.7,0-6.8,0.2-10.5,0.2c0,0,0-8.2,0-8.2c0-0.9-0.6-1.4-1.3-1.4c-1.9,0-4.3,0.2-5.4,0.3c-1.7,0.3-3.1,2-3.1,3.8
			c0,3.9,0,7.8,0,11.7c0,1.8,1.1,3.4,3.1,3.8c3.5,0.6,11,1,17.2,1c6.2,0,13.7-0.4,17.2-1c2-0.4,3.1-2,3.1-3.8c0-3.9,0-7.8,0-11.7
			C1640.2,619.2,1638.8,617.6,1637.1,617.3z"/>
	</g>
</g>
<g>
	<path fill="#FFFFFF" stroke="#333333" stroke-width="2" stroke-miterlimit="10" d="M282,678V537.4c0-3.4-2.4-5.4-5.8-5.4h-205
		c-3.4,0-7.1,2-7.1,5.4V678H282z"/>
	<rect x="75.5" y="544.5" fill="#FFFFFF" stroke="#333333" stroke-miterlimit="10" width="194" height="121"/>
	<path fill="#FFFFFF" stroke="#333333" stroke-width="2" stroke-miterlimit="10" d="M32.5,677.8c-0.6,0-1,0.5-1,1v8
		c0,0.8,0.4,1.5,1.2,1.9c0,0,16.6,3.6,18.5,3.6h245c1.9,0,18.5-3.6,18.5-3.6c0.7-0.4,1.2-1.1,1.2-1.9v-8c0-0.6-0.5-1-1-1H32.5z"/>
	<line fill="#FFFFFF" stroke="#333333" stroke-width="2" stroke-miterlimit="10" x1="31" y1="688" x2="316" y2="688"/>
	<g>
		<ellipse fill="#FFFFFF" stroke="#333333" stroke-width="0.5" stroke-miterlimit="10" cx="173.6" cy="537.8" rx="1.4" ry="1.4"/>
		<ellipse fill="#FFFFFF" stroke="#333333" stroke-width="0.5" stroke-miterlimit="10" cx="173.6" cy="537.8" rx="0.9" ry="0.9"/>
	</g>
	<g>
		<path fill="#FFFFFF" stroke="#333333" stroke-width="4" stroke-miterlimit="10" d="M210.3,579.5c0-9.3-16.8-16.8-37.6-16.8
			s-37.6,7.5-37.6,16.8v50.4c0,9.3,16.8,16.8,37.6,16.8s37.6-7.5,37.6-16.8V579.5z"/>
		<g>
			<path fill="#333333" d="M212.3,579.6c0,0,0,0.2,0,0.5c0,0.2-0.1,1.1-0.3,1.8c-0.2,0.8-0.6,1.7-1.1,2.6c-0.6,0.9-1.3,1.9-2.3,2.9
				c-1.9,1.9-4.6,3.6-7.8,4.9c-3.2,1.3-6.9,2.4-11.1,3.1c-4.1,0.7-8.6,1.1-13.3,1.3c-4.7,0.1-9.7,0-14.9-0.6
				c-5.2-0.6-10.5-1.6-15.7-3.7c-2.6-1.1-5.2-2.4-7.4-4.5c-1.1-1-2.2-2.2-3-3.6c-0.8-1.4-1.3-3.1-1.3-4.8c0-0.6,0-0.7,0.1-1.2
				c0.1-0.5,0.1-1,0.3-1.4c0.1-0.4,0.2-0.8,0.4-1.2c0.1-0.4,0.3-0.8,0.5-1.1c0.8-1.5,1.8-2.7,2.9-3.8c2.2-2.1,4.7-3.7,7.3-4.9
				c5.2-2.5,10.5-3.8,15.8-4.6c5.2-0.8,10.4-1,15.2-0.8c4.9,0.2,9.4,0.8,13.6,1.7c4.2,0.9,7.9,2.2,11.1,3.8c3.2,1.6,5.8,3.4,7.7,5.4
				c0.9,1,1.7,2,2.2,3c0.5,1,0.9,1.9,1.1,2.7c0.2,0.8,0.3,1.4,0.3,1.8c0,0.4,0,0.6,0,0.6L212.3,579.6z M208.3,579.5c0,0,0-0.1,0-0.4
				c0-0.2-0.1-0.6-0.2-1.1c-0.1-0.5-0.3-1-0.7-1.7c-0.4-0.6-0.9-1.4-1.6-2.1c-1.4-1.5-3.7-3-6.5-4.3c-2.9-1.3-6.3-2.5-10.2-3.3
				c-3.9-0.8-8.2-1.4-12.8-1.5c-4.6-0.1-9.4,0-14.4,0.7c-4.9,0.7-10,1.9-14.6,4.1c-2.3,1.1-4.5,2.4-6.3,4c-1.8,1.6-3,3.6-3,5.7
				c-0.1,2,1.1,4.1,2.8,5.9c0.8,0.9,1.8,1.7,2.9,2.4c1,0.7,2.1,1.4,3.3,2c4.6,2.4,9.7,4,14.7,5c5,0.9,10,1.2,14.7,0.9
				c4.7-0.2,9.1-0.9,13-2c3.9-1.1,7.4-2.5,10.2-4c2.8-1.5,5-3.2,6.4-4.8c0.7-0.8,1.2-1.5,1.6-2.2c0.3-0.7,0.6-1.3,0.7-1.7
				c0.2-0.7,0.1-1.6,0.2-1.6L208.3,579.5z"/>
		</g>
	</g>
	<g>
		<g>
			<circle fill="#CC2A2E" cx="206.3" cy="634" r="16"/>
		</g>
		<path fill="#FFFFFF" d="M215.5,628.6c-0.6-0.1-1.9-0.2-2.9-0.2c-0.4,0-0.7,0.3-0.7,0.8c0,0,0,4.4,0,4.4c-2,0-3.7-0.1-5.6-0.1
			c-2,0-3.7,0.1-5.6,0.1c0,0,0-4.4,0-4.4c0-0.5-0.3-0.8-0.7-0.8c-1,0-2.3,0.1-2.9,0.2c-0.9,0.2-1.7,1.1-1.7,2c0,2.1,0,4.2,0,6.3
			c0,1,0.6,1.8,1.7,2c1.9,0.3,5.9,0.5,9.2,0.5c3.3,0,7.3-0.2,9.2-0.5c1.1-0.2,1.7-1.1,1.7-2c0-2.1,0-4.2,0-6.3
			C217.2,629.6,216.4,628.7,215.5,628.6z"/>
	</g>
</g>
</svg>
