<?xml version="1.0" encoding="utf-8"?>
<!-- Generator: Adobe Illustrator 19.1.0, SVG Export Plug-In . SVG Version: 6.00 Build 0)  -->
<svg version="1.1" id="Layer_1" xmlns="http://www.w3.org/2000/svg" xmlns:xlink="http://www.w3.org/1999/xlink" x="0px" y="0px"
	 viewBox="1070 97 539 267" enable-background="new 1070 97 539 267" xml:space="preserve">
<g>
	<g>
		<circle fill="#FF8900" cx="1300" cy="217.1" r="18.8"/>
	</g>
	<text transform="matrix(1 0 0 1 1292.6287 225.2709)" fill="#FFFFFF" font-family="'KievitOT-Bold'" font-size="36px">1</text>
</g>
<g>
	<g>
		<line fill="none" stroke="#7F7F7F" stroke-width="3" stroke-miterlimit="10" x1="1243.8" y1="180.1" x2="1244.7" y2="181.8"/>
		
			<line fill="none" stroke="#7F7F7F" stroke-width="3" stroke-miterlimit="10" stroke-dasharray="3.8899,3.8899" x1="1246.6" y1="185.2" x2="1279.2" y2="245"/>
		<line fill="none" stroke="#7F7F7F" stroke-width="3" stroke-miterlimit="10" x1="1280.2" y1="246.7" x2="1281.1" y2="248.4"/>
	</g>
</g>
<g>
	<g>
		<line fill="none" stroke="#CC2A2E" stroke-width="3" stroke-miterlimit="10" x1="1394.7" y1="294.7" x2="1243" y2="294.7"/>
		<g>
			<polygon fill="#CC2A2E" points="1226,294.7 1249.9,285 1244.2,294.7 1249.9,304.5 			"/>
		</g>
	</g>
</g>
<g>
	<g>
		<line fill="none" stroke="#71AB0F" stroke-width="3" stroke-miterlimit="10" x1="1376.9" y1="265.7" x2="1226" y2="265.7"/>
		<g>
			<polygon fill="#71AB0F" points="1393.9,265.7 1370,256 1375.7,265.7 1370,275.5 			"/>
		</g>
	</g>
</g>
<text transform="matrix(1 0 0 1 1273.3757 121.0743)" enable-background="new    "><tspan x="0" y="0" fill="#333333" font-family="'KievitOT-Medium'" font-size="21.6978px">Configuration file</tspan><tspan x="0" y="26" fill="#333333" font-family="'KievitOT-Medium'" font-size="21.6978px">(database online)</tspan></text>
<g>
	<rect x="1262.5" y="251.5" fill="#FFFFFF" stroke="#71AB0F" stroke-width="3" stroke-miterlimit="10" width="64.5" height="24.5"/>
	<text transform="matrix(1 0 0 1 1268.5463 270.6856)" fill="#333333" font-family="'KievitOT-Medium'" font-size="24px">Start</text>
</g>
<g>
	<rect x="1313.6" y="282.5" fill="#FFFFFF" stroke="#CC2A2E" stroke-width="3" stroke-miterlimit="10" width="63.5" height="24.5"/>
	<text transform="matrix(1 0 0 1 1321.4362 301.6487)" fill="#333333" font-family="'KievitOT-Medium'" font-size="24px">Stop</text>
</g>
<g>
	<g>
		<circle fill="#FF8900" cx="1364.2" cy="339.1" r="18.8"/>
	</g>
	<text transform="matrix(1 0 0 1 1354.838 347.2521)" fill="#FFFFFF" font-family="'KievitOT-Bold'" font-size="36px">2</text>
</g>
<path fill="#C6DD9F" stroke="#333333" stroke-width="2" stroke-linecap="round" stroke-miterlimit="10" d="M1594,329.5h-189.8
	c-5,0-9-12.5-9-27.7v-48.5c0-15.3,4.1-27.7,9-27.7H1594c5,0,9,12.5,9,27.7v48.5C1603.1,317,1599,329.5,1594,329.5z"/>
<text transform="matrix(1 0 0 1 1410.1729 260.2203)" enable-background="new    "><tspan x="0" y="0" fill="#333333" font-family="'KievitOT-Medium'" font-size="21.6978px">Sync Gateway</tspan><tspan x="0" y="26" fill="#333333" font-family="'KievitOT-Medium'" font-size="21.6978px">running and the</tspan><tspan x="0" y="52.1" fill="#333333" font-family="'KievitOT-Medium'" font-size="21.6978px">database is online</tspan></text>
<g>
	<rect x="1519.6" y="211" fill="#FFC425" width="76.1" height="29"/>
	<text transform="matrix(1 0 0 1 1526.2577 233.7625)" fill="#333333" font-family="'KievitOT-Medium'" font-size="21.6978px">Online</text>
</g>
<g>
	<path fill="#EBAAAB" stroke="#333333" stroke-width="2" stroke-linecap="round" stroke-miterlimit="10" d="M1216.5,307.4h-131.8
		c-4.6,0-8.3-7.2-8.3-16v-28c0-8.8,3.7-16,8.3-16h131.8c4.6,0,8.3,7.2,8.3,16v28C1224.8,300.2,1221.1,307.4,1216.5,307.4z"/>
	<text transform="matrix(1 0 0 1 1087.3757 270.7386)" enable-background="new    "><tspan x="0" y="0" fill="#333333" font-family="'KievitOT-Medium'" font-size="21.6978px">Sync Gateway</tspan><tspan x="0" y="26" fill="#333333" font-family="'KievitOT-Medium'" font-size="21.6978px">not running</tspan></text>
</g>
<g>
	<rect x="1199.3" y="103" fill="#FFFFFF" stroke="#333333" stroke-width="2" stroke-miterlimit="10" width="61" height="76"/>
	
		<image overflow="visible" width="333" height="452" xlink:href="../Config-file-cropped.png"  transform="matrix(0.1602 0 0 0.1602 1203.1409 104.799)">
	</image>
</g>
</svg>
