<?xml version="1.0" encoding="utf-8"?>
<!DOCTYPE svg PUBLIC "-//W3C//DTD SVG 1.0//EN" "http://www.w3.org/TR/2001/REC-SVG-20010904/DTD/svg10.dtd">
<svg version="1.0" xmlns="http://www.w3.org/2000/svg" width="48px" height="24px">
	<path fill="#FF3B30" d="M47.99,18.61V4.544c0,0-0.417-1.696-1.398-2.772
		c-1.611-1.768-7.727-1.768-7.727-1.768s-1.192-0.046-1.752,0.379c-0.637,0.483-0.65,1.98-0.65,1.98v8.857H11.538V2.363
		c0,0-0.014-1.497-0.651-1.98c-0.56-0.425-1.753-0.379-1.753-0.379s-6.115,0-7.726,1.768C0.427,2.848,0.01,4.544,0.01,4.544V18.61
		c0,0-0.342,2.669,3.516,4.229C6.279,23.951,24,23.996,24,23.996s17.721-0.045,20.475-1.157C48.332,21.279,47.99,18.61,47.99,18.61
		z"/>
</svg>
