<?xml version="1.0" encoding="utf-8"?>
<!DOCTYPE svg PUBLIC "-//W3C//DTD SVG 1.0//EN" "http://www.w3.org/TR/2001/REC-SVG-20010904/DTD/svg10.dtd">
<svg version="1.0" xmlns="http://www.w3.org/2000/svg" width="64px" height="64px">
	<circle fill="#FF3B30" cx="22" cy="22" r="16"/>
	<path fill-rule="evenodd" clip-rule="evenodd" fill="#FFFFFF" d="M21.706,14.997c-0.34,1.681-2.161,2.341-4.081,2.32v1.801h3.441
		V29h2.5V14.997H21.706z"/>
	<circle fill-rule="evenodd" clip-rule="evenodd" fill="#4CD964" cx="22" cy="42" r="16"/>
	<path fill-rule="evenodd" clip-rule="evenodd" fill="#FFFFFF" d="M23.807,43.739c1.6-1.121,3.121-2.501,3.121-4.722
		c0-1.8-1.08-4.301-4.501-4.301c-3.121,0-4.821,2.301-4.821,5.401h2.28c0.06-1.961,0.6-3.501,2.4-3.501c1.96,0,2.38,1.48,2.36,2.48
		c-0.04,2.181-2.4,3.281-4.221,4.602c-1.88,1.26-3.061,3-3.081,5.301h9.562v-2.04h-6.821C20.486,45.72,22.186,44.859,23.807,43.739
		z"/>
	<circle fill-rule="evenodd" clip-rule="evenodd" fill="#5AC8FA" cx="42" cy="32" r="16"/>
	<path fill-rule="evenodd" clip-rule="evenodd" fill="#FFFFFF" d="M44.527,31.498v-0.04c1.34-0.479,1.98-1.6,1.98-3
		c0-2.48-2.241-3.741-4.422-3.741c-2.82,0-4.521,2.041-4.641,4.761h2.28c-0.04-1.439,0.74-2.86,2.321-2.86
		c1.26,0,2.18,0.801,2.18,1.98c0,1.721-1.58,2.261-3.101,2.2v1.701c1.8-0.08,3.661,0.199,3.661,2.38
		c0,1.601-1.16,2.501-2.682,2.501c-1.779,0-2.699-1.28-2.64-2.98h-2.28c0.06,2.92,1.68,4.881,4.92,4.881
		c2.682,0,4.962-1.641,4.962-4.281C47.067,33.199,46.107,31.818,44.527,31.498z"/>
</svg>
