<?xml version="1.0" encoding="utf-8"?>
<!-- Generator: Adobe Illustrator 15.0.2, SVG Export Plug-In . SVG Version: 6.00 Build 0)  -->
<!DOCTYPE svg PUBLIC "-//W3C//DTD SVG 1.1//EN" "http://www.w3.org/Graphics/SVG/1.1/DTD/svg11.dtd">
<svg version="1.1" id="Layer_1" xmlns="http://www.w3.org/2000/svg" xmlns:xlink="http://www.w3.org/1999/xlink" x="0px" y="0px"
	 width="256px" height="711px" viewBox="0 0 256 711" enable-background="new 0 0 256 711" xml:space="preserve">
<g>
	<g>
		<path fill-rule="evenodd" clip-rule="evenodd" fill="#FFFFFF" d="M128,464c2.209,0,4-1.791,4-4s-1.791-4-4-4s-4,1.791-4,4
			S125.791,464,128,464z M128,666.081c-8.583,0-15.542,6.966-15.542,15.559s6.958,15.559,15.542,15.559s15.542-6.966,15.542-15.559
			S136.583,666.081,128,666.081z M128,400c2.209,0,4-1.791,4-4c0-2.209-1.791-4-4-4s-4,1.791-4,4C124,398.209,125.791,400,128,400z
			 M128,448c2.209,0,4-1.791,4-4c0-2.209-1.791-4-4-4s-4,1.791-4,4C124,446.209,125.791,448,128,448z M100,485.809v50.18h0.001
			c0,0.005-0.001,0.01-0.001,0.016c0,4.417,12.536,7.997,28,7.997s28-3.58,28-7.997c0-0.005-0.001-0.01-0.001-0.016H156v-50.18
			c-5.458,3.692-15.948,6.192-28,6.192C115.949,492.001,105.458,489.501,100,485.809z M128,532.001c-7.979,0-14.449-6.716-14.449-15
			H110l5.479-6.892l5.478,6.892h-3.496c0,6.043,4.718,10.942,10.539,10.942c2.91,0,5.545-1.225,7.452-3.205l2.764,2.87
			C135.602,530.322,131.99,532.001,128,532.001z M142.479,517H146l-5.479,6.892L135.043,517h3.522
			c0-6.046-4.73-10.946-10.565-10.946c-2.914,0-5.551,1.222-7.462,3.198l-2.764-2.87C120.393,503.675,124.007,502,128,502
			C135.996,502,142.479,508.716,142.479,517z M128,416c2.209,0,4-1.791,4-4c0-2.209-1.791-4-4-4s-4,1.791-4,4
			C124,414.209,125.791,416,128,416z M128,432c2.209,0,4-1.791,4-4c0-2.209-1.791-4-4-4s-4,1.791-4,4
			C124,430.209,125.791,432,128,432z M128,273c2.209,0,4-1.791,4-4c0-2.209-1.791-4-4-4s-4,1.791-4,4
			C124,271.209,125.791,273,128,273z M128,472c-15.464,0-28,3.581-28,7.997c0,4.417,12.536,7.997,28,7.997s28-3.58,28-7.997
			C156,475.581,143.464,472,128,472z M128,289c2.209,0,4-1.791,4-4s-1.791-4-4-4s-4,1.791-4,4S125.791,289,128,289z M128,257
			c2.209,0,4-1.791,4-4c0-2.209-1.791-4-4-4s-4,1.791-4,4C124,255.209,125.791,257,128,257z M128,305c2.209,0,4-1.791,4-4
			s-1.791-4-4-4s-4,1.791-4,4S125.791,305,128,305z M223.931,66.719C223.969,65.816,224,64.912,224,64c0-35.347-28.654-64-64-64
			c-23.977,0-44.86,13.193-55.823,32.708C101.518,32.251,98.789,32,96,32c-20.898,0-38.667,13.359-45.258,32H48
			c-26.51,0-48,21.49-48,48c0,26.51,21.49,48,48,48h160c26.51,0,48-21.49,48-48C256,91.077,242.608,73.291,223.931,66.719z M128,241
			c2.209,0,4-1.791,4-4c0-2.209-1.791-4-4-4s-4,1.791-4,4C124,239.209,125.791,241,128,241z M128,225c2.209,0,4-1.791,4-4
			c0-2.209-1.791-4-4-4s-4,1.791-4,4C124,223.209,125.791,225,128,225z M194.427,313H61.573C46.345,313,34,325.359,34,340.604
			v342.792C34,698.642,46.345,711,61.573,711h132.854C209.655,711,222,698.642,222,683.396V340.604
			C222,325.359,209.655,313,194.427,313z M128,328.308c2.077,0,3.76,1.685,3.76,3.764c0,2.079-1.683,3.764-3.76,3.764
			s-3.76-1.685-3.76-3.764C124.24,329.993,125.923,328.308,128,328.308z M114.464,345.372h27.072c1.107,0,2.005,0.899,2.005,2.008
			c0,1.108-0.898,2.007-2.005,2.007h-27.072c-1.107,0-2.005-0.899-2.005-2.007C112.458,346.271,113.356,345.372,114.464,345.372z
			 M128,699.206c-9.691,0-17.546-7.865-17.546-17.566c0-9.702,7.855-17.566,17.546-17.566s17.547,7.865,17.547,17.566
			C145.547,691.341,137.691,699.206,128,699.206z M210.469,655.039c0,1.386-1.122,2.51-2.506,2.51H48.037
			c-1.384,0-2.506-1.124-2.506-2.51V370.467c0-1.386,1.122-2.509,2.506-2.509h159.926c1.384,0,2.506,1.123,2.506,2.509V655.039z
			 M128,177c2.209,0,4-1.791,4-4c0-2.209-1.791-4-4-4s-4,1.791-4,4C124,175.209,125.791,177,128,177z M128,193c2.209,0,4-1.791,4-4
			s-1.791-4-4-4s-4,1.791-4,4S125.791,193,128,193z M128,209c2.209,0,4-1.791,4-4c0-2.209-1.791-4-4-4s-4,1.791-4,4
			C124,207.209,125.791,209,128,209z M128,384c2.209,0,4-1.791,4-4c0-2.209-1.791-4-4-4s-4,1.791-4,4
			C124,382.209,125.791,384,128,384z"/>
	</g>
</g>
</svg>
