<?xml version="1.0" encoding="utf-8"?>
<!-- Generator: Adobe Illustrator 15.0.2, SVG Export Plug-In . SVG Version: 6.00 Build 0)  -->
<!DOCTYPE svg PUBLIC "-//W3C//DTD SVG 1.1//EN" "http://www.w3.org/Graphics/SVG/1.1/DTD/svg11.dtd">
<svg version="1.1" id="Layer_1" xmlns="http://www.w3.org/2000/svg" xmlns:xlink="http://www.w3.org/1999/xlink" x="0px" y="0px"
	 width="256px" height="256px" viewBox="0 0 156 156" enable-background="new 0 0 156 156" xml:space="preserve">
<path fill-rule="evenodd" clip-rule="evenodd" fill="none" d="M-458.993-1147c43.078,0,78,34.922,78,78s-34.922,78-78,78
	s-78-34.922-78-78S-502.071-1147-458.993-1147z"/>
<path fill-rule="evenodd" clip-rule="evenodd" fill="#ED1F24" d="M78.007,0c43.078,0,78,34.922,78,78s-34.922,78-78,78
	s-78-34.922-78-78S34.929,0,78.007,0z"/>
<path fill-rule="evenodd" clip-rule="evenodd" fill="#FFFFFF" d="M106.007,106.004c0,4.417-12.536,7.997-28,7.997s-28-3.58-28-7.997
	c0-0.005,0.001-0.011,0.001-0.016h-0.001v-50.18C55.465,59.5,65.956,62,78.007,62c12.052,0,22.542-2.5,28-6.192v50.18h-0.001
	C106.006,105.993,106.007,105.999,106.007,106.004z M78.007,57.994c-15.464,0-28-3.581-28-7.997S62.543,42,78.007,42
	s28,3.581,28,7.997S93.471,57.994,78.007,57.994z"/>
</svg>
