<?xml version="1.0" encoding="utf-8"?>
<!-- Generator: Adobe Illustrator 15.0.2, SVG Export Plug-In . SVG Version: 6.00 Build 0)  -->
<!DOCTYPE svg PUBLIC "-//W3C//DTD SVG 1.1//EN" "http://www.w3.org/Graphics/SVG/1.1/DTD/svg11.dtd">
<svg version="1.1" id="svg2816" xmlns:svg="http://www.w3.org/2000/svg"
	 xmlns="http://www.w3.org/2000/svg" xmlns:xlink="http://www.w3.org/1999/xlink" x="0px" y="0px" width="256px" height="256px"
	 viewBox="0 -7.501 315 315" enable-background="new 0 -7.501 315 315" xml:space="preserve">
<g id="layer1" transform="translate(-937.60684,-1834.4815)">
	<path id="path12245" d="M1198.497,1947.681h-2.797v8.693h-1.142v-8.693h-2.808v-1.034h6.744v1.034H1198.497z"/>
	<path id="path12257" d="M1209.951,1956.372h-1.137v-6.532c0-0.515,0.04-1.146,0.094-1.888l0,0
		c-0.117,0.444-0.215,0.752-0.304,0.949l-3.312,7.471h-0.557l-3.32-7.415c-0.099-0.206-0.193-0.54-0.299-1.005h-0.041
		c0.041,0.392,0.053,1.025,0.053,1.903v6.517h-1.09v-9.729h1.504l2.983,6.79c0.226,0.51,0.367,0.903,0.439,1.166h0.044
		c0.197-0.535,0.359-0.934,0.47-1.196l3.043-6.76h1.435v9.729H1209.951L1209.951,1956.372z"/>
	<path id="path12261" d="M1201.095,1992.489c0-0.53-0.145-0.909-0.444-1.156c-0.331-0.267-0.903-0.409-1.7-0.409h-1.146v3.15h1.383
		C1200.464,1994.073,1201.095,1993.543,1201.095,1992.489 M1202.882,1999.057h-1.575l-1.004-2.217
		c-0.511-1.109-1.056-1.666-1.651-1.666h-0.848v3.883h-1.298v-9.238h2.601c1.156,0,2.023,0.25,2.619,0.771
		c0.506,0.449,0.758,1.025,0.758,1.742c0,0.636-0.206,1.171-0.621,1.615c-0.404,0.449-0.983,0.752-1.727,0.908v0.039
		c0.515,0.122,1.029,0.688,1.529,1.707l1.217,2.459V1999.057L1202.882,1999.057z M1205.759,1994.527c0-1.816-0.62-3.352-1.857-4.567
		c-1.242-1.217-2.756-1.827-4.543-1.827c-1.843,0-3.377,0.61-4.594,1.838c-1.217,1.231-1.822,2.756-1.822,4.559
		c0,1.843,0.631,3.383,1.883,4.608c1.237,1.228,2.752,1.832,4.533,1.832c1.771,0,3.286-0.61,4.533-1.853
		C1205.139,1997.895,1205.759,1996.361,1205.759,1994.527 M1206.633,1994.488c0,2.04-0.702,3.751-2.11,5.129
		c-1.408,1.389-3.135,2.08-5.199,2.08c-2.08,0-3.807-0.682-5.18-2.021c-1.373-1.356-2.055-3.063-2.055-5.134
		c0-2.023,0.697-3.727,2.09-5.123c1.395-1.395,3.13-2.09,5.205-2.09c2.033,0,3.74,0.666,5.123,1.993
		C1205.926,1990.688,1206.632,1992.404,1206.633,1994.488"/>
	<path id="path12265" d="M1009.187,2020.248h-4.478v-25.624c0-2.024,0.134-4.488,0.372-7.396h-0.101
		c-0.419,1.701-0.803,2.933-1.141,3.694l-13.014,29.324h-2.181l-13.04-29.112c-0.368-0.813-0.752-2.121-1.141-3.906h-0.097
		c0.137,1.528,0.214,4.008,0.214,7.444v25.574h-4.316v-38.159h5.907l11.707,26.609c0.883,2.004,1.454,3.527,1.731,4.567h0.186
		c0.762-2.085,1.368-3.649,1.828-4.68l11.959-26.498h5.603v38.159h0.002V2020.248z"/>
	<path id="path12267" d="M1022.96,2020.247h-4.351v-27.25h4.351V2020.247z M1023.713,1983.229c0,0.803-0.283,1.474-0.843,2.024
		c-0.55,0.55-1.231,0.828-2.029,0.828c-0.777,0-1.454-0.267-2.009-0.798c-0.555-0.535-0.828-1.217-0.828-2.055
		c0-0.787,0.274-1.459,0.828-2.004c0.555-0.545,1.231-0.808,2.009-0.808c0.798,0,1.479,0.263,2.029,0.808
		C1023.43,1981.77,1023.713,1982.442,1023.713,1983.229"/>
	<path id="path12271" d="M1050.154,2018.987c-2.09,1.282-4.583,1.918-7.466,1.918c-3.907,0-7.052-1.298-9.455-3.888
		c-2.332-2.515-3.508-5.76-3.508-9.737c0-4.464,1.277-8.077,3.852-10.823c2.56-2.751,6.002-4.124,10.333-4.124
		c2.368,0,4.468,0.464,6.305,1.383v4.479c-2.034-1.43-4.185-2.137-6.492-2.137c-2.776,0-5.033,0.97-6.785,2.902
		c-1.822,1.979-2.746,4.624-2.746,7.926c0,3.17,0.843,5.68,2.519,7.532c1.681,1.843,3.917,2.767,6.739,2.767
		c2.383,0,4.614-0.782,6.704-2.343V2018.987L1050.154,2018.987z"/>
	<path id="path12275" d="M1070.968,1997.418c-0.768-0.591-1.873-0.879-3.332-0.879c-1.771,0-3.261,0.793-4.467,2.395
		c-1.368,1.786-2.049,4.26-2.049,7.42v13.893h-4.362v-27.249h4.362v5.618h0.104c0.642-1.989,1.631-3.52,2.954-4.604
		c1.237-0.989,2.635-1.489,4.174-1.489c1.161,0,2.025,0.125,2.615,0.371v4.523L1070.968,1997.418z"/>
	<path id="path12279" d="M1095.277,2006.671c0-3.487-0.787-6.153-2.362-7.979c-1.529-1.758-3.665-2.635-6.416-2.635
		c-2.711,0-4.887,0.887-6.513,2.664c-1.721,1.898-2.579,4.578-2.579,8.058c0,3.262,0.818,5.819,2.469,7.646
		c1.641,1.839,3.852,2.757,6.623,2.757c2.867,0,5.063-0.934,6.567-2.791C1094.54,2012.573,1095.277,2010.003,1095.277,2006.671
		 M1099.749,2006.518c0,4.342-1.228,7.83-3.67,10.445c-2.454,2.625-5.754,3.938-9.904,3.938c-4.089,0-7.345-1.313-9.732-3.938
		c-2.338-2.529-3.514-5.871-3.514-10.025c0-4.74,1.327-8.396,3.993-10.99c2.463-2.407,5.76-3.618,9.89-3.618
		c4.063,0,7.239,1.267,9.525,3.774C1098.604,1998.628,1099.749,2002.102,1099.749,2006.518"/>
	<path id="path12283" d="M1121.38,2012.956c0,2.231-0.832,4.079-2.504,5.554c-1.822,1.596-4.326,2.393-7.478,2.393
		c-2.579,0-4.841-0.539-6.759-1.641v-4.688c2.136,1.735,4.493,2.608,7.083,2.608c3.452,0,5.184-1.271,5.184-3.806
		c0-1.065-0.379-1.949-1.146-2.631c-0.768-0.696-2.258-1.529-4.473-2.504c-2.283-0.999-3.908-2.023-4.867-3.089
		c-1.15-1.264-1.731-2.902-1.731-4.922c0-2.263,0.904-4.146,2.69-5.645c1.791-1.505,4.095-2.257,6.921-2.257
		c2.166,0,4.104,0.424,5.825,1.276v4.393c-1.797-1.298-3.852-1.943-6.184-1.943c-1.443,0-2.604,0.359-3.469,1.061
		c-0.873,0.717-1.313,1.631-1.313,2.746c0,1.207,0.366,2.146,1.096,2.816c0.646,0.621,2.02,1.379,4.09,2.262
		c2.326,0.975,4.008,1.983,5.031,3.02C1120.708,2009.268,1121.38,2010.934,1121.38,2012.956"/>
	<path id="path12287" d="M1148.036,2006.671c0-3.487-0.787-6.153-2.367-7.979c-1.525-1.758-3.666-2.635-6.412-2.635
		c-2.711,0-4.887,0.887-6.521,2.664c-1.717,1.898-2.569,4.578-2.569,8.058c0,3.262,0.817,5.819,2.452,7.646
		c1.662,1.839,3.873,2.757,6.64,2.757c2.873,0,5.063-0.934,6.567-2.791C1147.299,2012.573,1148.036,2010.003,1148.036,2006.671
		 M1152.519,2006.518c0,4.342-1.236,7.83-3.686,10.445c-2.443,2.625-5.744,3.938-9.896,3.938c-4.094,0-7.35-1.313-9.737-3.938
		c-2.337-2.529-3.514-5.871-3.514-10.025c0-4.74,1.338-8.396,3.988-10.99c2.464-2.407,5.765-3.618,9.898-3.618
		c4.063,0,7.234,1.267,9.517,3.774C1151.363,1998.628,1152.519,2002.102,1152.519,2006.518"/>
	<path id="path12291" d="M1171.74,1983.739c-0.858-0.475-1.813-0.717-2.897-0.717c-3.056,0-4.568,1.923-4.568,5.774v4.2h6.386v3.695
		h-6.386v23.555h-4.366v-23.555h-4.635v-3.695h4.635v-4.417c0-2.999,0.918-5.352,2.787-7.048c1.6-1.474,3.559-2.205,5.885-2.205
		c1.35,0,2.397,0.161,3.16,0.475V1983.739L1171.74,1983.739z"/>
	<path id="path12295" d="M1188.953,2019.973c-1.029,0.592-2.402,0.883-4.099,0.883c-4.756,0-7.133-2.681-7.133-8.041v-16.118h-4.675
		v-3.7h4.675v-6.648c1.393-0.438,2.842-0.918,4.371-1.413v8.062h6.86v3.7h-6.86v15.377c0,1.827,0.299,3.135,0.924,3.892
		c0.631,0.782,1.661,1.166,3.114,1.166c1.086,0,2.023-0.29,2.822-0.878V2019.973L1188.953,2019.973z"/>
	<path id="path12299" d="M953.165,2126.6c0,2.136-0.762,3.982-2.302,5.543c-1.535,1.556-3.397,2.338-5.583,2.338
		c-2.136,0-3.953-0.782-5.442-2.338c-1.489-1.561-2.231-3.407-2.231-5.543c0-2.195,0.742-4.049,2.231-5.582
		c1.489-1.541,3.306-2.304,5.442-2.304c2.186,0,4.048,0.773,5.583,2.333C952.403,2122.607,953.165,2124.459,953.165,2126.6"/>
	<path id="path12303" d="M1050.825,2132.875h-14.226l-51.637-79.745c-1.207-1.918-2.247-4.004-3.13-6.28h-0.425
		c0.368,2.137,0.556,6.719,0.556,13.741v72.284h-11.727v-100.049h15.22l50.092,78.487c1.994,3.115,3.357,5.347,4.049,6.689h0.278
		c-0.464-2.878-0.706-7.784-0.706-14.711v-70.468h11.656L1050.825,2132.875L1050.825,2132.875L1050.825,2132.875z"/>
	<path id="path12307" d="M1126.004,2132.875h-53.025v-100.049h50.724v10.601h-39.006v33.282h36.145v10.605h-36.145v34.955h41.309
		L1126.004,2132.875L1126.004,2132.875z"/>
	<path id="path12311" d="M1206.435,2043.429h-28.818v89.448h-11.723v-89.448h-28.875v-10.605h69.416V2043.429L1206.435,2043.429z"/>
	
		<linearGradient id="path12339_1_" gradientUnits="userSpaceOnUse" x1="1401.2914" y1="-3.1782" x2="1402.2893" y2="-3.1782" gradientTransform="matrix(0 149.7346 -149.7346 0 599.066 -207985.3906)">
		<stop  offset="0" style="stop-color:#0994DC"/>
		<stop  offset="0.35" style="stop-color:#66CEF5"/>
		<stop  offset="0.35" style="stop-color:#66CEF5"/>
		<stop  offset="0.8462" style="stop-color:#127BCA"/>
		<stop  offset="0.8462" style="stop-color:#127BCA"/>
		<stop  offset="1" style="stop-color:#127BCA"/>
	</linearGradient>
	<path id="path12339" fill="url(#path12339_1_)" d="M1046.849,1860.019c11.313,34.595,15.599,96.309,48.679,96.309l0,0
		c2.52,0,5.063-0.246,7.618-0.732l0,0c-30.072-7.012-33.636-68.054-51.986-99.665l0,0
		C1049.721,1857.238,1048.292,1858.6,1046.849,1860.019"/>
	
		<linearGradient id="path12367_1_" gradientUnits="userSpaceOnUse" x1="1401.2386" y1="-3.1001" x2="1402.2386" y2="-3.1001" gradientTransform="matrix(0 153.5506 -153.5506 0 604.7469 -213328.4688)">
		<stop  offset="0" style="stop-color:#0E76BC"/>
		<stop  offset="0.36" style="stop-color:#36AEE8"/>
		<stop  offset="0.36" style="stop-color:#36AEE8"/>
		<stop  offset="0.8462" style="stop-color:#00ADEF"/>
		<stop  offset="0.8462" style="stop-color:#00ADEF"/>
		<stop  offset="1" style="stop-color:#00ADEF"/>
	</linearGradient>
	<path id="path12367" fill="url(#path12367_1_)" d="M1051.16,1855.93c18.35,31.611,21.914,92.653,51.986,99.665l0,0
		c2.362-0.434,4.729-1.09,7.102-1.918l0,0c-26.991-13.227-34.452-72.502-55.292-101.039l0,0
		C1053.694,1853.689,1052.427,1854.789,1051.16,1855.93"/>
	<path id="path12379" fill="#14559A" d="M1077.599,1837.13c-2.514,0-5.063,0.246-7.623,0.731
		c-6.694,1.263-13.493,4.145-20.349,8.506c1.873,1.848,3.654,3.963,5.33,6.271c6.972-5.785,13.898-10.062,20.799-12.631
		c2.59-0.959,5.169-1.681,7.759-2.155C1081.647,1837.377,1079.679,1837.13,1077.599,1837.13"/>
	
		<linearGradient id="path12459_1_" gradientUnits="userSpaceOnUse" x1="1396.6683" y1="3.8945" x2="1397.6688" y2="3.8945" gradientTransform="matrix(0 -122.178 122.178 0 635.7231 172595.0313)">
		<stop  offset="0" style="stop-color:#1C63B7"/>
		<stop  offset="0.5" style="stop-color:#33BDF2"/>
		<stop  offset="1" style="stop-color:#33BDF2;stop-opacity:0.4196"/>
	</linearGradient>
	<path id="path12459" fill="url(#path12459_1_)" d="M1131.319,1941.486c2.763-2.196,5.528-4.624,8.3-7.274
		c-11.494-34.434-15.608-97.03-48.921-97.03c-2.383,0-4.786,0.222-7.184,0.666
		C1113.857,1845.394,1117.745,1911.413,1131.319,1941.486"/>
	<path id="path12521" fill="#3092C4" d="M1083.514,1837.85c-1.868-0.475-3.836-0.722-5.917-0.722l13.1,0.048
		c-2.383,0-4.786,0.222-7.184,0.672"/>
	<path id="path12525" fill="#1969BC" d="M1130.738,1948.8c-1.303-1.241-2.539-2.604-3.756-4.059
		c-5.604,3.968-11.188,6.977-16.734,8.936c1.974,0.964,4.043,1.682,6.24,2.125c1.699,0.348,3.463,0.525,5.314,0.525
		c6.225,0,11.146-0.737,15.336-2.746C1134.831,1952.334,1132.716,1950.719,1130.738,1948.8"/>
	
		<linearGradient id="path12553_1_" gradientUnits="userSpaceOnUse" x1="1401.1644" y1="-2.9863" x2="1402.163" y2="-2.9863" gradientTransform="matrix(0 159.4252 -159.4252 0 627.3795 -221563.9844)">
		<stop  offset="0" style="stop-color:#166AB8"/>
		<stop  offset="0.4" style="stop-color:#36AEE8"/>
		<stop  offset="0.4" style="stop-color:#36AEE8"/>
		<stop  offset="0.8462" style="stop-color:#0798DD"/>
		<stop  offset="0.8462" style="stop-color:#0798DD"/>
		<stop  offset="1" style="stop-color:#0798DD"/>
	</linearGradient>
	<path id="path12553" fill="url(#path12553_1_)" d="M1075.754,1840.013c27.179,14.216,29.542,78.59,51.229,104.729l0,0
		c1.454-1.024,2.894-2.109,4.331-3.256l0,0c-13.574-30.072-17.457-96.097-47.796-103.639l0,0
		C1080.929,1838.331,1078.344,1839.049,1075.754,1840.013"/>
	
		<linearGradient id="path12581_1_" gradientUnits="userSpaceOnUse" x1="1401.0482" y1="-2.8086" x2="1402.0468" y2="-2.8086" gradientTransform="matrix(0 169.5276 -169.5276 0 614.847 -235698.4844)">
		<stop  offset="0" style="stop-color:#124379"/>
		<stop  offset="0.39" style="stop-color:#1487CB"/>
		<stop  offset="0.39" style="stop-color:#1487CB"/>
		<stop  offset="0.7802" style="stop-color:#165197"/>
		<stop  offset="0.7802" style="stop-color:#165197"/>
		<stop  offset="1" style="stop-color:#165197"/>
	</linearGradient>
	<path id="path12581" fill="url(#path12581_1_)" d="M1054.955,1852.638c20.839,28.537,28.3,87.813,55.292,101.039l0,0
		c5.549-1.959,11.131-4.968,16.734-8.936l0,0c-21.688-26.139-24.05-90.513-51.229-104.729l0,0
		C1068.853,1842.577,1061.927,1846.853,1054.955,1852.638"/>
	
		<linearGradient id="path12651_1_" gradientUnits="userSpaceOnUse" x1="2475.8003" y1="2145.9658" x2="2481.7358" y2="2145.9658" gradientTransform="matrix(4.0385 0 0 4.0385 -8975.6738 -6796.6133)">
		<stop  offset="0" style="stop-color:#33BDF2;stop-opacity:0.698"/>
		<stop  offset="1" style="stop-color:#1DACD8"/>
	</linearGradient>
	<path id="path12651" fill="url(#path12651_1_)" d="M1033.516,1859.186c-3.267,7.386-6.604,17.093-10.637,29.764
		c8.021-11.303,16.018-21.04,23.969-28.931c-1.096-3.367-2.271-6.472-3.539-9.238
		C1040.058,1853.27,1036.782,1856.072,1033.516,1859.186"/>
	<path id="path12655" fill="#2B74B1" d="M1046.205,1848.651c-0.959,0.687-1.923,1.389-2.893,2.131
		c1.267,2.766,2.438,5.871,3.534,9.238c1.443-1.414,2.877-2.782,4.311-4.09C1049.618,1853.285,1047.982,1850.842,1046.205,1848.651"
		/>
	<path id="path12659" fill="#125A9E" d="M1049.627,1846.368c-1.141,0.722-2.276,1.483-3.423,2.281
		c1.777,2.191,3.413,4.634,4.958,7.285c1.267-1.146,2.534-2.252,3.796-3.297C1053.282,1850.331,1051.5,1848.215,1049.627,1846.368"
		/>
	
		<linearGradient id="path12741_1_" gradientUnits="userSpaceOnUse" x1="1396.6" y1="3.999" x2="1397.6" y2="3.999" gradientTransform="matrix(0 -119.0183 119.0183 0 726.9681 168170.875)">
		<stop  offset="0" style="stop-color:#136AB4"/>
		<stop  offset="0.6" style="stop-color:#59CAF5;stop-opacity:0.549"/>
		<stop  offset="1" style="stop-color:#59CAF5;stop-opacity:0.2353"/>
	</linearGradient>
	<path id="path12741" fill="url(#path12741_1_)" d="M1235.013,1834.495c-15.372,59.28-47.479,106.895-74.395,118.898h-0.052
		c-0.489,0.223-0.975,0.425-1.454,0.621c-0.066,0.04-0.126,0.045-0.177,0.069c-0.142,0.057-0.272,0.101-0.414,0.157
		c-0.065,0.04-0.126,0.053-0.187,0.077c-0.229,0.081-0.449,0.149-0.672,0.238c-0.097,0.04-0.188,0.064-0.277,0.097
		c-0.102,0.04-0.219,0.077-0.333,0.109c-0.103,0.04-0.207,0.069-0.324,0.113c-0.096,0.04-0.196,0.057-0.287,0.097
		c-0.196,0.057-0.378,0.105-0.575,0.174c-0.08,0-0.155,0.044-0.241,0.064c-0.121,0.04-0.259,0.069-0.39,0.105
		c-0.091,0.04-0.166,0.053-0.263,0.073c-0.137,0.04-0.288,0.076-0.424,0.108c-0.183,0.04-0.344,0.077-0.517,0.113
		c1.218,0.449,2.484,0.677,3.853,0.677c25.522,0,51.259-45.741,93.84-121.807h-16.719L1235.013,1834.495z"/>
	
		<linearGradient id="path12803_1_" gradientUnits="userSpaceOnUse" x1="2454.7476" y1="2153.0068" x2="2476.7612" y2="2153.0068" gradientTransform="matrix(4.0385 0 0 4.0385 -8975.6738 -6796.6133)">
		<stop  offset="0" style="stop-color:#05A1E6;stop-opacity:0.2471"/>
		<stop  offset="1" style="stop-color:#05A1E6"/>
	</linearGradient>
	<path id="path12803" fill="url(#path12803_1_)" d="M1017.336,1839.535c0.016,0,0.036-0.04,0.046-0.04c0.021,0,0.051,0,0.061-0.04
		c0,0,0.021,0,0.032,0c0.141-0.048,0.272-0.104,0.414-0.157c0.036,0,0.055,0,0.081-0.04c0.036,0,0.071-0.04,0.106-0.045
		c0.151-0.048,0.303-0.105,0.444-0.157c0,0,0.016,0,0.024,0c0.338-0.102,0.651-0.227,0.979-0.344c0.046,0,0.091-0.04,0.146-0.04
		c0.136-0.044,0.278-0.093,0.419-0.125c0.066-0.04,0.131-0.04,0.192-0.062c0.146-0.044,0.288-0.093,0.424-0.125
		c0.061,0,0.116-0.04,0.162-0.044c0.47-0.129,0.934-0.25,1.403-0.363c0.066,0,0.121-0.04,0.192-0.044
		c0.136-0.04,0.263-0.063,0.409-0.081c0.061-0.04,0.131-0.04,0.202-0.063c0.136-0.04,0.267-0.044,0.414-0.076
		c0.036,0,0.055,0,0.096,0c0.283-0.058,0.571-0.105,0.854-0.158c0.051,0,0.116,0,0.171,0c0.136-0.04,0.257-0.044,0.395-0.068
		c0.075,0,0.151-0.04,0.222-0.04c0.126,0,0.252-0.04,0.378-0.058c0.066,0,0.131,0,0.208-0.04c0.297-0.04,0.605-0.056,0.918-0.081
		c-0.883-0.085-1.792-0.141-2.716-0.141c-28.744,0-68.347,53.333-86.187,122.401c0,0,1.302,0,3.438,0
		c5.71-10.182,10.839-19.813,15.528-28.854c12.494-48.922,37.942-82.285,60.547-91.124"/>
	<path id="path12807" fill="#0D82CA" d="M1033.516,1859.186c3.267-3.114,6.542-5.916,9.793-8.405
		c-0.742-1.625-1.509-3.13-2.333-4.508C1038.347,1849.463,1035.944,1853.673,1033.516,1859.186"/>
	<path id="path12811" fill="#0D82CA" d="M1035.877,1839.94c1.878,1.575,3.559,3.741,5.099,6.336
		c0.484-0.596,0.975-1.146,1.484-1.661c-2.135-1.994-4.442-3.63-6.946-4.861c0.101,0.056,0.202,0.101,0.307,0.146
		C1035.821,1839.899,1035.861,1839.939,1035.877,1839.94"/>
	
		<linearGradient id="path12831_1_" gradientUnits="userSpaceOnUse" x1="1396.6615" y1="3.9063" x2="1397.6615" y2="3.9063" gradientTransform="matrix(0 -121.8652 121.8652 0 511.0099 172157.2656)">
		<stop  offset="0" style="stop-color:#318ED5"/>
		<stop  offset="1" style="stop-color:#38A7E4"/>
	</linearGradient>
	<path id="path12831" fill="url(#path12831_1_)" d="M956.789,1930.657c26.21-50.507,38.628-82.472,60.547-91.124l0,0
		C994.736,1848.378,969.284,1881.74,956.789,1930.657"/>
	<path id="path12843" fill="#127BCA" d="M1042.458,1844.614c-0.51,0.52-0.994,1.064-1.484,1.661c0.823,1.378,1.59,2.877,2.338,4.508
		c0.969-0.742,1.933-1.444,2.893-2.131C1045.018,1847.188,1043.766,1845.83,1042.458,1844.614"/>
	
		<linearGradient id="path12923_1_" gradientUnits="userSpaceOnUse" x1="1396.5883" y1="4.0186" x2="1397.5883" y2="4.0186" gradientTransform="matrix(0 -118.4596 118.4596 0 518.659 167392.5)">
		<stop  offset="0" style="stop-color:#05A1E6"/>
		<stop  offset="1" style="stop-color:#05A1E6;stop-opacity:0.549"/>
	</linearGradient>
	<path id="path12923" fill="url(#path12923_1_)" d="M968.688,1959.285L968.688,1959.285c-0.162,0.04-0.323,0.04-0.475,0.058
		c-0.05,0-0.061,0-0.091,0c-0.136,0-0.278,0.04-0.404,0.04c0,0-0.05,0-0.066,0c-0.328,0.04-0.651,0.04-0.964,0.064h-0.101
		c26.528-0.742,38.654-14.024,44.671-33.288c4.574-14.604,8.33-26.906,11.621-37.229c-11.111,15.64-22.272,34.282-33.495,55.166
		c-5.412,10.066-13.64,14.271-20.697,15.17"/>
	
		<linearGradient id="path12949_1_" gradientUnits="userSpaceOnUse" x1="1396.1068" y1="4.7549" x2="1397.1068" y2="4.7549" gradientTransform="matrix(0 -100.1002 100.1002 0 525.1047 141709.875)">
		<stop  offset="0" style="stop-color:#1959A6"/>
		<stop  offset="0.5" style="stop-color:#05A1E6"/>
		<stop  offset="0.5" style="stop-color:#05A1E6"/>
		<stop  offset="0.9176" style="stop-color:#7EC5EA"/>
		<stop  offset="1" style="stop-color:#7EC5EA"/>
	</linearGradient>
	<path id="path12949" fill="url(#path12949_1_)" d="M968.688,1959.276L968.688,1959.276c7.058-0.899,15.286-5.099,20.697-15.17l0,0
		c11.222-20.879,22.389-39.527,33.49-55.166l0,0c4.039-12.677,7.37-22.378,10.641-29.764l0,0
		c-22.126,21.061-44.338,56.08-64.828,100.09"/>
	<path id="path12961" fill="#05A1E6" d="M956.788,1930.658c-4.69,9.042-9.819,18.674-15.528,28.854c2.469,0,6.043,0,10,0
		c1.323-10.111,3.201-19.754,5.528-28.851"/>
	
		<linearGradient id="path12981_1_" gradientUnits="userSpaceOnUse" x1="1395.6849" y1="3.7627" x2="1396.6849" y2="3.7627" gradientTransform="matrix(-19.138 -108.5369 108.5369 -19.138 27307.1328 153508.25)">
		<stop  offset="0" style="stop-color:#165096"/>
		<stop  offset="1" style="stop-color:#0D82CA"/>
	</linearGradient>
	<path id="path12981" fill="url(#path12981_1_)" d="M1025.808,1837.353c-0.081,0-0.142,0.04-0.212,0.04l0,0
		c-0.121,0.04-0.248,0.04-0.374,0.053l0,0c-0.075,0-0.146,0-0.222,0.04l0,0c-0.136,0.04-0.262,0.044-0.394,0.069l0,0
		c-0.061,0-0.121,0-0.172,0.04l0,0c-0.288,0.048-0.57,0.101-0.853,0.149l0,0c-0.05,0-0.066,0-0.096,0l0,0
		c-0.146,0.04-0.278,0.061-0.414,0.081l0,0c-0.071,0.04-0.142,0.04-0.208,0.056l0,0c-0.136,0.04-0.272,0.058-0.404,0.081l0,0
		c-0.071,0.04-0.126,0.04-0.192,0.044l0,0c-0.469,0.113-0.934,0.234-1.403,0.363l0,0c-0.05,0-0.101,0.04-0.162,0.049l0,0
		c-0.141,0.04-0.277,0.081-0.424,0.125l0,0c-0.061,0.04-0.131,0.04-0.192,0.056l0,0c-0.141,0.04-0.283,0.081-0.419,0.125l0,0
		c-0.055,0-0.101,0.04-0.151,0.04l0,0c-0.323,0.121-0.641,0.243-0.975,0.344l0,0l0,0l0,0c-0.141,0.044-0.292,0.101-0.444,0.153l0,0
		c-0.061,0.04-0.116,0.049-0.188,0.077l0,0c-0.142,0.044-0.283,0.101-0.414,0.153l0,0c-0.05,0.04-0.101,0.044-0.136,0.065l0,0
		c-21.919,8.652-34.337,40.617-60.547,91.124l0,0c-2.327,9.097-4.21,18.738-5.528,28.85l0,0h1.403c3.953,0,5.068-0.04,9.617-0.04
		l0,0h0.232h0.676h0.232h0.066h0.232h0.131h0.091h0.182h0.565h0.565h0.475h0.126c0.272,0,0.55,0,0.833,0l0,0
		c0.313-0.04,0.636-0.04,0.964-0.064l0,0c0,0,0.051,0,0.061,0l0,0c0.136,0,0.272-0.04,0.404-0.04l0,0c0.05,0,0.055,0,0.096,0l0,0
		c0.146,0,0.313-0.04,0.475-0.058l0,0l0,0c20.49-44.01,42.702-79.028,64.828-100.09l0,0c2.433-5.512,4.831-9.723,7.456-12.907l0,0
		c-1.535-2.595-3.216-4.766-5.094-6.341l0,0c0,0-0.051,0-0.055-0.04l0,0c-0.106-0.044-0.207-0.098-0.313-0.149l0,0
		c-0.106-0.058-0.197-0.102-0.308-0.158l0,0c-0.096-0.04-0.207-0.093-0.303-0.146l0,0c-0.131-0.04-0.237-0.097-0.353-0.149l0,0
		c-0.096-0.04-0.182-0.081-0.278-0.121l0,0c-0.197-0.077-0.394-0.157-0.581-0.242l0,0c-0.086-0.04-0.167-0.061-0.248-0.093l0,0
		c-0.136-0.049-0.293-0.113-0.434-0.174l0,0c-0.071-0.04-0.152-0.048-0.232-0.077l0,0c-0.207-0.068-0.409-0.142-0.601-0.206l0,0
		c-0.05,0-0.05,0-0.05,0l0,0c-0.232-0.077-0.459-0.133-0.696-0.197l0,0c-0.055-0.04-0.101-0.04-0.156-0.049l0,0
		c-0.208-0.057-0.389-0.112-0.586-0.165l0,0c-0.05,0-0.096-0.04-0.136-0.04l0,0c-0.475-0.125-0.964-0.228-1.459-0.319l0,0
		c-0.051,0-0.101-0.04-0.151-0.04l0,0c-0.212-0.04-0.419-0.077-0.631-0.101l0,0c-0.051-0.04-0.081-0.04-0.126-0.04l0,0
		c-0.253-0.04-0.5-0.069-0.748-0.098l0,0c-0.05,0-0.086,0-0.131,0l0,0c-0.202-0.04-0.388-0.044-0.575-0.064l0,0
		c-0.318,0.04-0.621,0.057-0.919,0.085"/>
	
		<linearGradient id="path13003_1_" gradientUnits="userSpaceOnUse" x1="1393.7308" y1="8.3911" x2="1394.7308" y2="8.3911" gradientTransform="matrix(0 -56.7206 56.7206 0 706.5698 80944.7344)">
		<stop  offset="0" style="stop-color:#05A1E6"/>
		<stop  offset="0.8736" style="stop-color:#0495D6"/>
		<stop  offset="1" style="stop-color:#0495D6"/>
	</linearGradient>
	<path id="path13003" fill="url(#path13003_1_)" d="M1174.97,1867.314c-5.043,16.153-9.127,29.48-12.682,40.445l0,0
		c13.838-19.042,27.468-42.995,40.446-70.639l0,0C1187.595,1841.875,1179.519,1852.76,1174.97,1867.314"/>
	
		<linearGradient id="path13093_1_" gradientUnits="userSpaceOnUse" x1="1400.8969" y1="-3.9365" x2="1401.8969" y2="-3.9365" gradientTransform="matrix(-23.0627 130.7947 -130.7947 -23.0627 33002.7031 -181491.0781)">
		<stop  offset="0" style="stop-color:#38A7E4;stop-opacity:0.3294"/>
		<stop  offset="0.9615" style="stop-color:#0E88D3"/>
		<stop  offset="0.9615" style="stop-color:#0E88D3"/>
		<stop  offset="1" style="stop-color:#0E88D3"/>
	</linearGradient>
	<path id="path13093" fill="url(#path13093_1_)" d="M1162.728,1952.385c-0.706,0.359-1.413,0.701-2.109,1.01
		c26.916-12.005,59.023-59.619,74.396-118.899h-3.115C1196.581,1897.582,1185.223,1939.815,1162.728,1952.385"/>
	<path id="path13097" fill="#079AE1" d="M1145.152,1947.084c5.856-7.147,10.627-19.299,17.139-39.325
		c-7.512,10.318-15.072,19.188-22.641,26.423c0,0.04,0,0.04-0.04,0.064c1.651,4.947,3.464,9.313,5.528,12.837"/>
	<path id="path13101" fill="#1969BC" d="M1145.152,1947.084c-1.994,2.434-4.104,4.286-6.451,5.659
		c-0.515,0.299-1.033,0.581-1.563,0.838c2.479,1.338,5.184,2.231,8.213,2.59l0,0l0,0c0.442,0.044,0.883,0.085,1.343,0.117h0.081
		c0.206,0,0.425,0,0.646,0.04h0.089c0.222,0,0.443,0,0.661,0c0.237,0,0.475,0,0.713,0c0.076,0,0.147,0,0.222,0
		c0.161,0,0.335,0,0.506,0c0.08,0,0.164,0,0.245-0.04c0.157,0,0.323,0,0.484-0.04c0.04,0,0.04,0,0.057,0c0.065,0,0.121,0,0.183,0
		c0.166,0,0.348-0.04,0.524-0.058h0.04c0.055,0,0.109-0.04,0.161-0.04c0.187-0.04,0.381-0.057,0.562-0.085c0.062,0,0.104,0,0.166,0
		c0.205-0.04,0.418-0.064,0.631-0.104h0.04c0.04,0,0.044,0,0.062,0c0.424-0.081,0.838-0.161,1.258-0.267
		c-3.475-1.272-6.382-4.271-8.886-8.541"/>
	<path id="path13105" fill="#1E5CB3" d="M1095.528,1956.328c2.52,0,5.063-0.246,7.618-0.737c2.363-0.429,4.73-1.085,7.104-1.913
		c1.974,0.964,4.043,1.681,6.234,2.125c1.7,0.348,3.467,0.525,5.32,0.525H1095.528z"/>
	<path id="path13109" fill="#1E5CB3" d="M1121.804,1956.328c6.22,0,11.146-0.737,15.332-2.746c2.479,1.338,5.184,2.231,8.213,2.59
		l0,0l0,0c0.443,0.044,0.884,0.085,1.343,0.117h0.081c0.206,0,0.424,0,0.646,0.04h0.093c0.222,0,0.444,0,0.661,0h-26.387
		L1121.804,1956.328z"/>
	<path id="path13113" fill="#1D60B5" d="M1148.189,1956.328c0.242,0,0.48,0,0.717,0c0.069,0,0.15,0,0.224,0c0.161,0,0.327,0,0.5,0
		c0.085,0,0.166,0,0.245-0.04c0.158,0,0.324,0,0.49-0.04c0.041,0,0.041,0,0.053,0c0.064,0,0.125,0,0.187,0
		c0.166,0,0.349-0.04,0.521-0.056c0,0,0.041,0,0.045,0c0.053,0,0.104-0.04,0.156-0.04c0.188-0.04,0.381-0.057,0.562-0.085
		c0.062,0,0.108,0,0.173-0.04c0.207-0.04,0.42-0.062,0.632-0.102h0.04c0.04,0,0.044,0,0.061,0c0.426-0.081,0.839-0.161,1.259-0.267
		l0,0c1.216,0.449,2.483,0.677,3.853,0.677l-9.703,0.04L1148.189,1956.328z"/>
	<path id="path13117" fill="#175FAB" d="M1139.626,1934.247v-0.04c-2.771,2.65-5.538,5.078-8.301,7.274
		c-1.442,1.146-2.882,2.231-4.336,3.256c1.217,1.454,2.454,2.817,3.756,4.059c1.979,1.918,4.094,3.534,6.401,4.78
		c0.524-0.258,1.05-0.54,1.56-0.838c2.354-1.373,4.463-3.226,6.457-5.658c-2.064-3.523-3.877-7.891-5.527-12.838"/>
	
		<linearGradient id="path13139_1_" gradientUnits="userSpaceOnUse" x1="1401.7269" y1="-3.8467" x2="1402.7269" y2="-3.8467" gradientTransform="matrix(0 123.7424 -123.7424 0 712.4059 -171618.9063)">
		<stop  offset="0" style="stop-color:#168CD4"/>
		<stop  offset="0.5" style="stop-color:#1C87CC"/>
		<stop  offset="1" style="stop-color:#154B8D"/>
	</linearGradient>
	<path id="path13139" fill="url(#path13139_1_)" d="M1222.035,1834.495h-13.096c-0.438,0-0.873,0-1.302,0l0,0
		c-0.419,0-0.823,0-1.231,0l0,0h-0.049c-0.848,0.04-1.67,0.069-2.482,0.121l0,0c-0.385,0.823-0.777,1.646-1.156,2.475l0,0
		c-12.979,27.643-26.607,51.597-40.445,70.638l0,0c-6.507,20.026-11.281,32.178-17.139,39.325l0,0
		c2.504,4.271,5.417,7.274,8.88,8.547l0,0c0.101-0.04,0.183-0.04,0.272-0.062l0,0c0,0,0.05,0,0.056,0l0,0
		c0.062,0,0.127-0.04,0.192-0.04l0,0c0.142-0.04,0.293-0.064,0.435-0.108l0,0c0.09-0.04,0.166-0.044,0.257-0.073l0,0
		c0.133-0.04,0.268-0.069,0.389-0.102l0,0c0.082-0.04,0.162-0.053,0.242-0.068l0,0c0.202-0.065,0.385-0.113,0.575-0.174l0,0
		c0.093-0.04,0.188-0.073,0.288-0.097l0,0c0.111-0.04,0.223-0.069,0.323-0.117l0,0c0.116-0.04,0.231-0.062,0.334-0.105l0,0
		c0.09-0.04,0.186-0.064,0.271-0.101l0,0c0.229-0.081,0.449-0.149,0.678-0.238l0,0c0.062,0,0.121-0.057,0.187-0.069l0,0
		c0.137-0.057,0.278-0.101,0.414-0.161l0,0c0.051-0.04,0.11-0.044,0.177-0.065l0,0c0.475-0.197,0.964-0.399,1.454-0.62l0,0h0.051
		l0,0c0.697-0.308,1.403-0.651,2.105-1.01l0,0c22.5-12.57,33.856-54.803,69.175-117.89l0,0h-9.864L1222.035,1834.495z"/>
	<path id="path13231" fill="#7DCBEC" d="M1026.727,1837.268c0.056,0,0.106,0,0.162,0.04c0.136,0,0.272,0,0.409,0.044
		c0.051,0,0.096,0,0.136,0c0.247,0.04,0.495,0.061,0.747,0.097c0.046,0,0.086,0,0.126,0.04c0.207,0.04,0.419,0.073,0.631,0.104
		c0.046,0,0.106,0.04,0.157,0.04c0.485,0.097,0.979,0.197,1.454,0.322c0.045,0,0.091,0.04,0.131,0.04
		c0.202,0.049,0.383,0.109,0.585,0.166c0.061,0,0.105,0.04,0.162,0.049c0.237,0.062,0.459,0.121,0.691,0.198
		c0.01,0,0.024,0,0.051,0.04c0.196,0.06,0.398,0.137,0.605,0.206c0.081,0.04,0.156,0.057,0.232,0.076
		c0.141,0.062,0.298,0.121,0.434,0.178c0.081,0,0.162,0.057,0.247,0.085c0.187,0.085,0.384,0.162,0.576,0.243
		c0.101,0.04,0.187,0.085,0.282,0.121c0.111,0.057,0.228,0.108,0.349,0.149c0.101,0.048,0.212,0.101,0.308,0.145
		c0.106,0.058,0.207,0.102,0.308,0.158c2.504,1.231,4.811,2.872,6.946,4.861c0.788-0.828,1.61-1.57,2.463-2.236
		c-4.669-3.312-9.96-5.2-16.063-5.2c-0.707,0-1.413,0.04-2.13,0.094"/>
	<path id="path13235" fill="#5EC5ED" d="M1042.458,1844.614c1.308,1.216,2.56,2.574,3.746,4.038
		c1.146-0.798,2.282-1.564,3.422-2.281c-1.494-1.495-3.069-2.838-4.71-3.994C1044.064,1843.038,1043.246,1843.785,1042.458,1844.614
		"/>
	<g id="g13243" transform="matrix(5.0481458,0,0,-5.0481458,-9064.2597,2270.6096)">
		
			<linearGradient id="path13245_1_" gradientUnits="userSpaceOnUse" x1="2318.0002" y1="-4.7004" x2="2319.0046" y2="-4.7004" gradientTransform="matrix(143.8888 -59.6807 -59.6807 -143.8888 -331815.125 137750.4844)">
			<stop  offset="0" style="stop-color:#97D6EE"/>
			<stop  offset="0.7033" style="stop-color:#55C1EA"/>
			<stop  offset="1" style="stop-color:#55C1EA"/>
		</linearGradient>
		<path id="path13245" fill="url(#path13245_1_)" d="M1998.949,85.842c0.142,0.012,0.282,0.017,0.422,0.017
			c1.209,0,2.257-0.374,3.182-1.029c0.976,0.77,2.156,1.039,3.795,1.039h-7.937C1998.594,85.869,1998.773,85.858,1998.949,85.842"/>
	</g>
	<g id="g13253" transform="matrix(5.0481458,0,0,-5.0481458,-9064.2597,2270.6096)">
		
			<linearGradient id="path13255_1_" gradientUnits="userSpaceOnUse" x1="2317.7744" y1="-4.0725" x2="2318.7744" y2="-4.0725" gradientTransform="matrix(113.6429 51.5183 51.5183 -113.6429 -261185.7344 -119786.5547)">
			<stop  offset="0" style="stop-color:#7ACCEC"/>
			<stop  offset="1" style="stop-color:#3FB7ED"/>
		</linearGradient>
		<path id="path13255" fill="url(#path13255_1_)" d="M2006.348,85.869c-1.639,0-2.819-0.269-3.795-1.039
			c0.324-0.229,0.636-0.495,0.932-0.791c1.359,0.864,2.705,1.436,4.032,1.686c0.506,0.095,1.011,0.144,1.509,0.144H2006.348
			L2006.348,85.869z"/>
	</g>
	
		<linearGradient id="path13333_1_" gradientUnits="userSpaceOnUse" x1="1401.7849" y1="-3.9326" x2="1402.7844" y2="-3.9326" gradientTransform="matrix(0 121.0325 -121.0325 0 695.8286 -167820.4063)">
		<stop  offset="0" style="stop-color:#1DA7E7"/>
		<stop  offset="1" style="stop-color:#37ABE7;stop-opacity:0"/>
	</linearGradient>
	<path id="path13333" fill="url(#path13333_1_)" d="M1162.291,1907.769c3.56-10.975,7.633-24.296,12.687-40.456
		c4.554-14.559,12.615-25.442,27.754-30.192c0.4-0.813,0.777-1.651,1.166-2.474c-24.68,1.479-36.215,14.033-42.021,32.626
		c-10.151,32.46-16.301,53.5-22.223,66.908C1147.218,1926.951,1154.778,1918.077,1162.291,1907.769"/>
</g>
</svg>
