<?xml version="1.0" encoding="utf-8"?>
<!DOCTYPE svg PUBLIC "-//W3C//DTD SVG 1.0//EN" "http://www.w3.org/TR/2001/REC-SVG-20010904/DTD/svg10.dtd">
<svg version="1.0" xmlns="http://www.w3.org/2000/svg" width="64px" height="64px">
	<path fill="#5AC8FA" d="M55,14H45c-1.104,0-2,0.896-2,2v38c0,1.104,0.896,2,2,2h10
		c1.104,0,2-0.896,2-2V16C57,14.896,56.104,14,55,14z"/>
	<path fill="#83D6FB" d="M43.003,48H56.94v-1H43.003V48z M43.003,50H56.94v-1H43.003V50z
		M43.003,20v1H56.94v-1H43.003z M43.003,23H56.94v-1H43.003V23z"/>
	<path fill="#4CD964" d="M26.524,20.175l-9.659-2.589
		c-1.067-0.285-2.164,0.348-2.45,1.414L5.874,50.876c-0.286,1.067,0.348,2.164,1.415,2.449l9.659,2.589
		c1.067,0.285,2.164-0.348,2.449-1.415l8.542-31.875C28.224,21.557,27.591,20.46,26.524,20.175z"/>
	<path fill="#79E38B" d="M7.43,45.08l13.523,3.624l0.259-0.966L7.688,44.114L7.43,45.08z
		M6.912,47.013l13.523,3.623l0.259-0.966L7.171,46.047L6.912,47.013z M13.383,22.864l-0.259,0.966l13.523,3.623l0.259-0.966
		L13.383,22.864z M12.606,25.762l13.523,3.624l0.259-0.966l-13.523-3.624L12.606,25.762z"/>
	<path fill="#FF3B30" d="M40,8H30c-1.104,0-2,0.896-2,2v44c0,1.104,0.896,2,2,2h10
		c1.104,0,2-0.896,2-2V10C42,8.896,41.104,8,40,8z"/>
	<path fill="#FF6C64" d="M28.034,48H41.94v-1H28.034V48z M28.034,50H41.94v-1H28.034V50z
		M28.034,14v1H41.94v-1H28.034z M28.034,17H41.94v-1H28.034V17z"/>
</svg>
