<?xml version="1.0" encoding="utf-8"?>
<!-- Generator: Adobe Illustrator 15.0.2, SVG Export Plug-In . SVG Version: 6.00 Build 0)  -->
<!DOCTYPE svg PUBLIC "-//W3C//DTD SVG 1.1//EN" "http://www.w3.org/Graphics/SVG/1.1/DTD/svg11.dtd">
<svg version="1.1" id="Layer_1" xmlns="http://www.w3.org/2000/svg" xmlns:xlink="http://www.w3.org/1999/xlink" x="0px" y="0px"
	 width="552px" height="668px" viewBox="-8.5 -5.5 552 668" enable-background="new -8.5 -5.5 552 668" xml:space="preserve">
<g id="g1369" transform="translate(-310.752 -64.2527)">
	<path id="path106" d="M417.184,591.999c-27.985-40.277-33.442-171.229,31.859-251.788c32.357-38.646,40.612-65.582,43.164-101.741
		c1.736-41.224-29.156-164.303,87.353-173.68c118.009-9.415,111.672,107.075,110.992,168.719
		c-0.563,52.05,38.218,81.551,64.745,122.119c49.1,74.539,44.946,202.875-9.249,272.341
		c-68.646,86.959-127.44,49.248-166.488,52.412C506.444,684.382,504.026,723.368,417.184,591.999z"/>
	<path id="path113" fill="#FFFFFF" d="M702.234,363.244c20.266,18.655,73.01,102.624-10.395,154.866
		c-29.4,18.191,26.216,87.879,52.918,54.123c47.125-60.598,17.072-157.102-11.196-191.68
		C714.365,356.04,685.011,346.542,702.234,363.244z"/>
	<path id="path111" stroke="#000000" stroke-width="0.9773" d="M696.503,351.793c33.408,26.997,94.238,122.038,5.517,183.772
		c-29.14,19.248,25.821,79.939,56.685,48.896c107.301-107.91-2.8-231.995-40.701-274.654
		C684.129,272.709,654.124,318.572,696.503,351.793z"/>
	<path id="path115" fill="#FFFFFF" d="M550.668,197.232c1.155,20.117-8.471,37.037-21.501,37.792
		c-13.031,0.755-24.532-14.942-25.688-35.059c-1.155-20.118,8.471-37.038,21.502-37.792
		C538.013,161.418,549.513,177.114,550.668,197.232L550.668,197.232z"/>
	<path id="path116" fill="#FFFFFF" d="M574.319,198.772c0.477,23.275,15.525,41.743,33.613,41.248
		c18.09-0.495,32.369-19.764,31.893-43.039c-0.475-23.275-15.523-41.743-33.613-41.248
		C588.122,156.227,573.845,175.497,574.319,198.772L574.319,198.772z"/>
	<path id="path117" d="M589.306,204.033c-0.273,12.776,6.172,23.148,14.395,23.166c8.225,0.018,15.111-10.325,15.385-23.102
		c0.273-12.777-6.172-23.148-14.395-23.166C596.466,180.914,589.579,191.257,589.306,204.033L589.306,204.033z"/>
	<path id="path118" d="M537.179,204.169c1.031,10.576-2.945,19.735-8.883,20.458c-5.938,0.722-11.588-7.267-12.619-17.843
		c-1.029-10.577,2.946-19.736,8.885-20.458C530.499,185.604,536.148,193.592,537.179,204.169L537.179,204.169z"/>
	<path id="path128" fill="#FFFFFF" d="M461.028,420.255c16.045-36.379,50.143-100.282,50.869-149.697
		c0-39.302,117.724-48.689,127.171-9.447c9.446,39.241,33.427,98.104,48.688,126.445c15.262,28.34,59.763,118.369,12.355,196.934
		c-42.696,69.555-172.156,124.582-241.263-9.447C435.594,528.532,439.741,470.897,461.028,420.255z"/>
	<path id="path112" fill="#FFFFFF" d="M446.522,393.259c-13.71,25.947-42.238,94.191,27.293,131.531
		c74.848,39.641,74.487,121.227-15.352,82.406c-82.133-35.086-45.822-176.867-22.851-210.791
		C450.673,372.645,473.261,343.563,446.522,393.259z"/>
	<path id="path109" stroke="#000000" stroke-width="1.25" d="M458.291,363.849c-21.831,35.634-74.221,119.765-4.11,163.402
		c94.46,57.945,67.716,115.891-18.499,63.719c-121.386-72.83-14.781-219.52,33.914-275.422
		C525.151,252.798,480.289,326.906,458.291,363.849z"/>
	<path id="path132" fill="#FFD429" stroke="#E68C3F" stroke-width="6.25" d="M413.794,697.85
		c-50.552-26.771-124.065,5.154-97.377-67.584c5.345-16.547-7.969-41.26,0.726-57.406c10.174-19.623,31.975-15.262,45.057-28.342
		c12.897-13.615,21.074-37.063,45.055-33.428c23.98,3.633,39.931,33.074,56.68,69.035c12.354,25.799,56.176,62.08,53.313,90.947
		C513.876,715.448,463.463,723.811,413.794,697.85z"/>
	<path id="path177" fill="#FFFFFF" d="M782.267,527.141c-7.769,14.564-39.785,37.676-61.124,31.652
		c-21.772-5.908-31.578-38.865-27.314-63.809c3.958-28.088,27.314-29.484,56.604-15.629
		C781.92,494.694,791.442,507.839,782.267,527.141z"/>
	<path id="path133" fill="#FFD429" stroke="#E68C3F" stroke-width="6.2507" d="M764.595,685.37
		c37.077-44.963,119.39-35.74,63.879-97.393c-11.745-13.217-8.239-41.871-22.509-53.975c-16.971-14.842-35.691-2.67-52.895-10.432
		c-17.232-8.318-35.244-24.494-56.28-12.988c-21.035,11.502-23.299,41.432-25.282,80.609c-1.738,28.221-27.454,75.41-13.802,101.34
		C677.729,732.743,729.24,727.419,764.595,685.37z"/>
	<path id="path136" d="M777.112,526.35c-6.693,11.672-34.29,30.195-52.681,25.367c-18.768-4.734-27.219-31.148-23.542-51.139
		c3.41-22.512,23.541-23.631,48.783-12.525C776.814,500.344,785.021,510.88,777.112,526.35z"/>
	<path id="path119" fill="#FFD429" stroke="#E68C3F" stroke-width="3.75" d="M525.093,225.11
		c8.935-8.462,31.015-33.832,72.451-7.193c7.703,5.012,13.953,5.471,28.776,11.818c29.657,12.187,15.478,41.574-15.931,51.385
		c-13.447,4.361-25.67,20.695-50.16,19.299c-20.918-1.221-26.399-14.843-39.248-22.382c-22.836-12.889-26.206-30.318-13.875-39.566
		C519.439,229.22,524.263,225.897,525.093,225.11z"/>
	<path id="path120" fill="none" stroke="#E68C3F" stroke-width="2.5" d="M626.714,248.755c-12.354,0.727-39.24,27.614-67.582,27.614
		s-45.055-26.161-49.416-26.161"/>
</g>
</svg>
