<?xml version="1.0" encoding="utf-8"?>
<!-- Generator: Adobe Illustrator 15.0.2, SVG Export Plug-In . SVG Version: 6.00 Build 0)  -->
<!DOCTYPE svg PUBLIC "-//W3C//DTD SVG 1.1//EN" "http://www.w3.org/Graphics/SVG/1.1/DTD/svg11.dtd">
<svg version="1.1" id="Layer_1" xmlns="http://www.w3.org/2000/svg" xmlns:xlink="http://www.w3.org/1999/xlink" x="0px" y="0px"
	 width="256px" height="256px" viewBox="-58 -58 256 256" enable-background="new -58 -58 256 256" xml:space="preserve">
<path fill="none" d="M177.419,30.647c-1.336-22.979-1.411-23.604-2.902-26.659c-1.716-3.487-4.806-6.662-8.477-8.535
	c-2.18-1.116-5.814-1.49-35.814-3.777c-24.702-1.881-35.346-2.593-40.893-2.414c-3.328,0.102-4.827,0.521-6.373,1.234
	c-3.655,1.699-6.376,4.965-7.553,8.966c-0.825,2.835-0.78,6.888,0.87,51.77c0.991,26.799,2.006,55.199,2.285,63.149
	c0.56,15.686,1.025,18.087,4.21,22.702c2.718,3.946,7.72,6.442,12.923,6.498c1.594,0.009,18.174-1.547,36.813-3.464
	c18.633-1.93,34.918-3.753,36.197-4.086c6.492-1.73,11.789-6.418,13.357-11.811c0.82-2.797,0.726-5.531-1.177-36.494
	C179.75,69.322,178.176,43.616,177.419,30.647z M123.907,137.41c-0.199,0.215-5.723,0.88-12.248,1.54
	c-6.535,0.67-12.81,1.36-13.926,1.491c-1.109,0.125-3.161-0.027-4.568-0.307c-5.36-1.078-8.988-5.07-10.463-11.445
	c-0.383-1.685-0.61-3.11-0.492-3.218c0.118-0.103,4.187-0.618,9.098-1.116c7.781-0.785,9.403-1.142,12.612-2.717
	c2.086-1.024,4.356-2.663,5.196-3.775c3.182-4.16,3.108-2.985,0.996-51.462c-2.083-47.813-2.115-48.516-5.32-52.394
	c-3.076-3.72-6.37-5.056-14.543-5.754C77.34,7.146,78.065,7.413,78.065,4.61c0.012-3.999,1.135-6.937,3.521-9.219
	c2.249-2.144,3.93-3.026,8.915-3.093c2.992-0.038,7.214,0.209,13.358,0.684l13.858,1.112l3.271,71.442
	C122.784,104.84,124.109,137.19,123.907,137.41z"/>
<path fill="#020202" d="M195.421,126.829c-3.223-47.575-7.757-117.508-8.786-135.272c-1.018-17.599-1.631-20.775-5.195-26.041
	c-2.54-3.746-8.039-7.824-12.063-9.033c-1.647-0.491-11.874-2.206-22.708-3.776c-51.387-7.445-65.725-9.501-72.074-9.216
	c-2.119,0.094-3.363,0.495-4.759,0.992c-8.796,3.112-12.626,9.89-12.622,22.33c0,3.52,1.022,38.719,2.289,78.183
	c1.262,39.461,2.715,85.172,3.215,101.561c0.652,21.576,1.152,30.927,1.791,33.959c1.578,7.458,6.468,12.99,13.423,15.215
	c1.82,0.591,5.067,1.106,7.239,1.124c4.293,0.034,92.913-14.923,97.866-16.525c4.145-1.33,9.02-6.165,11.261-11.063
	C197.778,161.668,197.79,161.82,195.421,126.829z M182.057,124.235c-1.57,5.398-6.873,10.084-13.361,11.805
	c-1.27,0.339-17.558,2.166-36.195,4.095c-18.631,1.918-35.221,3.47-36.805,3.456c-5.211-0.043-10.205-2.539-12.927-6.495
	c-3.181-4.614-3.646-7.015-4.206-22.695c-0.279-7.96-1.305-36.355-2.285-63.151c-1.656-44.884-1.695-48.943-0.87-51.771
	c1.179-4.003,3.89-7.269,7.545-8.968c1.544-0.724,3.043-1.128,6.381-1.236c5.542-0.18,16.19,0.537,40.886,2.414
	c30.007,2.278,33.627,2.658,35.821,3.778c3.671,1.868,6.771,5.047,8.468,8.534c1.5,3.057,1.578,3.677,2.906,26.662
	c0.754,12.97,2.332,38.671,3.465,57.089C182.781,118.705,182.865,121.443,182.057,124.235z"/>
<path fill="#333333" d="M47.004,128.624c-11.971,1.206-14.976,1.037-18.62-0.857c-3.315-1.738-5.99-5.67-6.986-10.276
	c-0.302-1.376-1.051-25.203-1.61-52.939c-1.142-56.884-1.281-53.596,3.278-57.714c3.569-3.225,5.51-3.477,18.189-2.659
	c6.055,0.389,11.616,0.817,12.373,0.992l1.426,0.37l-0.37-12.681c-0.197-6.968-0.504-14.757-0.679-17.313l-0.371-4.703l-16.02-1.61
	c-9.674-0.991-13.526-1.384-15.961-1.303c-1.465,0.051-2.43,0.273-3.776,0.621c-4.89,1.262-7.351,2.838-9.402,6.063
	c-3.512,5.525-3.337-2.711-1.613,91.79c1.563,85.417,1.702,90.637,3.342,94.335c2.365,5.312,6.443,8.549,12.374,9.828
	c2.007,0.441,4.169,0.781,4.826,0.807c1.633,0.07,32.224-3.891,32.542-4.201c0.248-0.254-0.978-39.314-1.238-39.593
	C58.622,127.502,53.356,127.989,47.004,128.624z M117.719-5.907L103.86-7.019c-6.145-0.475-10.366-0.722-13.358-0.684
	c-4.988,0.067-6.663,0.955-8.915,3.093c-2.392,2.283-3.508,5.22-3.529,9.219c0,2.808-0.71,2.536,12.191,3.643
	c8.173,0.699,11.459,2.035,14.543,5.754c3.205,3.878,3.237,4.579,5.32,52.394c2.112,48.473,2.191,47.302-0.99,51.462
	c-0.854,1.112-3.116,2.743-5.196,3.775c-3.215,1.575-4.841,1.932-12.618,2.717c-4.9,0.498-8.979,1.011-9.102,1.116
	c-0.114,0.103,0.104,1.533,0.496,3.218c1.475,6.379,5.103,10.367,10.463,11.445c1.397,0.279,3.459,0.438,4.568,0.307
	c1.116-0.131,7.391-0.832,13.926-1.491c6.525-0.66,12.042-1.325,12.248-1.54c0.202-0.22-1.114-32.57-2.908-71.875L117.719-5.907z"/>
<path fill="#666666" d="M4.257,109.638c-0.052-0.076-3.827,0.141-8.35,0.49c-10.13,0.783-12.756,0.45-15.524-1.978
	c-3.865-3.387-3.737-2.201-4.646-42.433l-0.861-36.551l1.236-2.414c0.93-1.817,1.913-2.711,3.9-3.588
	c2.458-1.088,3.35-1.132,12.807-0.741l10.146,0.434l-0.37-11.75C2.379,4.639,1.911-0.827,1.603-1.018
	C0.774-1.526-17.731-3.053-22.465-2.995c-6.585,0.077-11.137,3.389-12.188,8.842c-0.224,1.154-0.084,19.799,0.308,41.446
	c1.174,64.549,1.668,81.672,2.477,84.371c0.976,3.261,4.38,6.538,7.854,7.604c3.691,1.137,5.577,1.086,17.504-0.246
	c5.576-0.626,10.491-1.165,10.889-1.174c0.567-0.009,0.597-3.031,0.308-14.034C4.49,116.084,4.312,109.713,4.257,109.638z
	 M42.456,101.346l-1.156,1.857c-2.628,2.802-5.823,4.091-11.835,4.517l-5.113,0.371l-0.113,3.161
	c-0.418,6.942,1.937,11.863,6.594,13.976c1.285,0.582,3.533,1.001,4.966,0.992c3.909-0.024,16.659-1.366,17.083-1.789
	c0.522-0.523,0.418-13.041-0.547-56.594c-1.265-56.425-1.42-58.304-3.775-59.57c-1.328-0.71-10.766-1.142-16.454-0.991
	c-1.894,0.054-3.404,0.173-4.02,0.373c-4.421,1.46-6.546,6.16-5.875,12.805l0.372,3.832l6.432,0.309
	c7.705,0.343,9.943,1.469,12.415,5.198l1.029,2.406v69.148H42.456z"/>
<path fill="#B3B3B3" d="M-36.884,89.527l-5.38-0.301c-8.51-0.464-7.902,1.123-8.106-22.33c-0.188-21.907-0.255-21.63,3.955-22.763
	c1.362-0.365,3.004-0.467,4.802-0.245l2.453,0.37V31.461l-1.895-0.37c-0.707-0.11-1.558-0.216-2.928-0.247
	c-1.377-0.03-2.722,0.004-4.096,0.063c-4.807,0.201-5.727,0.291-7.353,2.102l-2.272,1.85v24.436c0,13.44,0.855,28.206,1.07,32.777
	c0.348,7.585,0.843,8.425,2.083,9.899c0.745,0.889,2.508,1.897,3.697,2.23c1.196,0.336,3.175,0.893,4.294,0.752
	c1.115-0.135,3.867,0.134,6.022,0.134h3.957l-0.187-7.81L-36.884,89.527z M-18.884,90.237h-1.72v4.114
	c0,2.823,0.263,5.993,0.464,6.987c0.356,1.769,0.506,1.801,3.699,1.792c3.729,0,6.663-1.264,8.372-3.59
	c1.121-1.526,1.142-2.023,0.448-31.231c-0.613-25.629-0.83-29.951-1.668-31.666c-1.545-3.164-3.139-4.318-7.757-4.576l-3.554-0.246
	v10.193h0.86c2.342,0,5.576,2.604,6.428,4.155c1,1.792,1.383,37.277,0.437,39.572C-13.642,87.572-16.479,90.237-18.884,90.237
	L-18.884,90.237z"/>
</svg>
