<?xml version="1.0" encoding="utf-8"?>
<!DOCTYPE svg PUBLIC "-//W3C//DTD SVG 1.0//EN" "http://www.w3.org/TR/2001/REC-SVG-20010904/DTD/svg10.dtd">
<svg version="1.0" xmlns="http://www.w3.org/2000/svg" width="32px" height="32px">
	<path fill="#808080" d="M19.295,17.881c2.436-3.139,2.246-7.653-0.636-10.535
		c-3.125-3.125-8.189-3.125-11.314,0c-3.124,3.124-3.124,8.189,0,11.313c2.882,2.882,7.397,3.071,10.536,0.636l7.701,7.701
		l1.414-1.414L19.295,17.881z M17.244,17.245c-2.342,2.343-6.142,2.343-8.484,0c-2.343-2.344-2.343-6.143,0-8.485
		c2.343-2.344,6.142-2.344,8.484,0C19.588,11.103,19.588,14.901,17.244,17.245z"/>
</svg>
