<?xml version="1.0" encoding="utf-8"?>
<!-- Generator: Adobe Illustrator 19.1.0, SVG Export Plug-In . SVG Version: 6.00 Build 0)  -->
<svg version="1.1" id="Layer_1" xmlns="http://www.w3.org/2000/svg" xmlns:xlink="http://www.w3.org/1999/xlink" x="0px" y="0px"
	 viewBox="1059 60 1027 757" enable-background="new 1059 60 1027 757" xml:space="preserve">
<g>
	<g>
		<line fill="none" stroke="#71AB0F" stroke-width="3" stroke-miterlimit="10" x1="1815.6" y1="658.4" x2="1675.8" y2="758.5"/>
		<g>
			<polygon fill="#71AB0F" points="1663.7,767.2 1675.8,748.1 1676.7,757.9 1685.7,761.9 			"/>
		</g>
	</g>
</g>
<g>
	<g>
		<line fill="none" stroke="#FF8900" stroke-width="3" stroke-miterlimit="10" x1="1354.6" y1="660.1" x2="1448.2" y2="755.3"/>
		<g>
			<polygon fill="#FF8900" points="1458.6,765.9 1437.9,757 1447.4,754.5 1450,745 			"/>
		</g>
	</g>
</g>
<g>
	<g>
		<line fill="none" stroke="#CC2A2E" stroke-width="3" stroke-miterlimit="10" x1="1536.2" y1="138" x2="1536.2" y2="169.6"/>
		<g>
			<polygon fill="#CC2A2E" points="1536.2,184.4 1527.7,163.5 1536.2,168.5 1544.8,163.5 			"/>
		</g>
	</g>
</g>
<g>
	<g>
		<line fill="none" stroke="#CC2A2E" stroke-width="3" stroke-miterlimit="10" x1="1540.2" y1="311.7" x2="1370.2" y2="398.5"/>
		<g>
			<polygon fill="#CC2A2E" points="1357,405.2 1371.7,388.1 1371.2,398 1379.5,403.3 			"/>
		</g>
	</g>
</g>
<g>
	<g>
		<line fill="none" stroke="#CC2A2E" stroke-width="3" stroke-miterlimit="10" x1="1635.3" y1="529.6" x2="1649.3" y2="549.6"/>
		<g>
			<polygon fill="#CC2A2E" points="1657.8,561.7 1638.9,549.5 1648.7,548.7 1652.8,539.7 			"/>
		</g>
	</g>
</g>
<line fill="none" stroke="#CC2A2E" stroke-width="3" stroke-miterlimit="10" x1="1359.8" y1="473.3" x2="1636.2" y2="530.6"/>
<g>
	<g>
		<line fill="none" stroke="#CC2A2E" stroke-width="3" stroke-miterlimit="10" x1="1665.1" y1="657.7" x2="1624.9" y2="752.8"/>
		<g>
			<polygon fill="#CC2A2E" points="1619.1,766.4 1619.4,743.9 1625.3,751.8 1635.1,750.5 			"/>
		</g>
	</g>
</g>
<line fill="none" stroke="#00ACE0" stroke-width="3" stroke-miterlimit="10" x1="1195.8" y1="658.7" x2="1195.8" y2="685.4"/>
<g>
	<path fill="#99DEF3" stroke="#333333" stroke-width="2" stroke-linecap="round" stroke-miterlimit="10" d="M1654.5,809.7h-187.8
		c-6.5,0-11.8-5.3-11.8-11.8v-20.7c0-6.5,5.3-11.8,11.8-11.8h187.8c6.5,0,11.8,5.3,11.8,11.8v20.7
		C1666.4,804.3,1661,809.7,1654.5,809.7z"/>
	<text transform="matrix(1 0 0 1 1475.4984 793.7488)" fill="#333333" font-family="'KievitOT-Medium'" font-size="21.6978px">Upgrade complete</text>
</g>
<g>
	<g>
		<circle fill="#FF8900" cx="1124.7" cy="105.1" r="18.8"/>
	</g>
	<text transform="matrix(1 0 0 1 1117.3231 113.2374)" fill="#FFFFFF" font-family="'KievitOT-Bold'" font-size="36px">1</text>
</g>
<g>
	<g>
		<circle fill="#FF8900" cx="1082.3" cy="609.5" r="18.8"/>
	</g>
	<text transform="matrix(1 0 0 1 1069.9883 614.6564)" fill="#FFFFFF" font-family="'KievitOT-Bold'" font-size="36px">4</text>
</g>
<g>
	<g>
		<circle fill="#FF8900" cx="1273.3" cy="248.5" r="18.8"/>
	</g>
	<text transform="matrix(1 0 0 1 1263.9824 256.6692)" fill="#FFFFFF" font-family="'KievitOT-Bold'" font-size="36px">2</text>
</g>
<g>
	<g>
		<circle fill="#FF8900" cx="1152" cy="447.7" r="18.8"/>
	</g>
	<text transform="matrix(1 0 0 1 1144.6326 452.8946)" fill="#FFFFFF" font-family="'KievitOT-Bold'" font-size="36px">3</text>
</g>
<g>
	<g>
		<line fill="none" stroke="#FF8900" stroke-width="3" stroke-miterlimit="10" x1="1368.8" y1="310.5" x2="1287" y2="393.7"/>
		<g>
			<polygon fill="#FF8900" points="1276.6,404.2 1285.2,383.3 1287.8,392.9 1297.3,395.3 			"/>
		</g>
	</g>
</g>
<g>
	<g>
		<line fill="none" stroke="#71AB0F" stroke-width="3" stroke-miterlimit="10" x1="1688.7" y1="312.2" x2="1371.6" y2="422"/>
		<g>
			<polygon fill="#71AB0F" points="1357.6,426.9 1374.6,412 1372.7,421.7 1380.2,428.1 			"/>
		</g>
	</g>
</g>
<g>
	<g>
		<line fill="none" stroke="#00ACE0" stroke-width="3" stroke-miterlimit="10" x1="1254.5" y1="497.2" x2="1224.9" y2="548.8"/>
		<g>
			<polygon fill="#00ACE0" points="1217.5,561.6 1220.5,539.3 1225.5,547.8 1235.3,547.8 			"/>
		</g>
	</g>
</g>
<g>
	<g>
		<line fill="none" stroke="#00737D" stroke-width="3" stroke-miterlimit="10" x1="1359.2" y1="496.9" x2="1458.2" y2="553.6"/>
		<g>
			<polygon fill="#00737D" points="1471.1,561 1448.7,558 1457.3,553.1 1457.2,543.2 			"/>
		</g>
	</g>
</g>
<g>
	<g>
		<line fill="none" stroke="#FF8900" stroke-width="3" stroke-miterlimit="10" x1="1316.6" y1="497.2" x2="1346.2" y2="548.8"/>
		<g>
			<polygon fill="#FF8900" points="1353.6,561.6 1335.8,547.8 1345.6,547.8 1350.6,539.3 			"/>
		</g>
	</g>
</g>
<g>
	<g>
		<line fill="none" stroke="#00ACE0" stroke-width="3" stroke-miterlimit="10" x1="1234.2" y1="136.2" x2="1234.2" y2="389.4"/>
		<g>
			<polygon fill="#00ACE0" points="1234.2,404.2 1225.7,383.3 1234.2,388.3 1242.8,383.3 			"/>
		</g>
	</g>
</g>
<g>
	<g>
		<line fill="none" stroke="#71AB0F" stroke-width="3" stroke-miterlimit="10" x1="1783.1" y1="512.9" x2="1809" y2="550"/>
		<g>
			<polygon fill="#71AB0F" points="1817.5,562.1 1798.6,549.9 1808.4,549.1 1812.6,540.1 			"/>
		</g>
	</g>
</g>
<line fill="none" stroke="#71AB0F" stroke-width="3" stroke-miterlimit="10" x1="1358.7" y1="452.4" x2="1783.2" y2="513.1"/>
<g>
	<g>
		<line fill="none" stroke="#00737D" stroke-width="3" stroke-miterlimit="10" x1="1509.8" y1="658.7" x2="1524.2" y2="751"/>
		<g>
			<polygon fill="#00737D" points="1526.5,765.6 1514.8,746.3 1524,749.9 1531.7,743.7 			"/>
		</g>
	</g>
</g>
<g>
	<g>
		<line fill="none" stroke="#00ACE0" stroke-width="3" stroke-miterlimit="10" x1="1194.8" y1="684.1" x2="1439.9" y2="786.1"/>
		<g>
			<polygon fill="#00ACE0" points="1453.6,791.7 1431,791.6 1438.9,785.6 1437.6,775.8 			"/>
		</g>
	</g>
</g>
<g>
	<g>
		<line fill="none" stroke="#00737D" stroke-width="3" stroke-miterlimit="10" x1="1389.3" y1="309" x2="1306" y2="393.7"/>
		<g>
			<polygon fill="#00737D" points="1295.6,404.2 1304.2,383.3 1306.8,392.9 1316.4,395.3 			"/>
		</g>
	</g>
</g>
<path fill="#99DEF3" stroke="#333333" stroke-width="2" stroke-linecap="round" stroke-miterlimit="10" d="M1417.5,137.4h-82.2
	c-2.2,0-3.9-8.6-3.9-19.1V84.9c0-10.5,1.8-19.1,3.9-19.1h82.2c2.2,0,3.9,8.6,3.9,19.1v33.4C1421.4,128.8,1419.6,137.4,1417.5,137.4z
	"/>
<text transform="matrix(1 0 0 1 1350.0928 96.2594)" enable-background="new    "><tspan x="0" y="0" fill="#333333" font-family="'KievitOT-Medium'" font-size="21.6978px">Spare</tspan><tspan x="-1.4" y="26" fill="#333333" font-family="'KievitOT-Medium'" font-size="21.6978px">nodes</tspan></text>
<g>
	<g>
		<path fill="#C6DD9F" d="M1444,308c0,1.1-0.9,2-2,2h-131c-1.1,0-2-0.9-2-2V187c0-1.1,0.9-2,2-2h131c1.1,0,2,0.9,2,2V308z"/>
		<path fill="none" stroke="#333333" stroke-width="2" stroke-miterlimit="10" d="M1444,308c0,1.1-0.9,2-2,2h-131c-1.1,0-2-0.9-2-2
			V187c0-1.1,0.9-2,2-2h131c1.1,0,2,0.9,2,2V308z"/>
	</g>
	<g>
		<text transform="matrix(1 0 0 1 1343.6218 214.2473)"><tspan x="0" y="0" fill="#333333" font-family="'KievitOT-Medium'" font-size="22px">Obtain</tspan><tspan x="-23.2" y="26.4" fill="#333333" font-family="'KievitOT-Medium'" font-size="22px">spare nodes</tspan><tspan x="-15.6" y="52.8" fill="#333333" font-family="'KievitOT-Medium'" font-size="22px">and install</tspan><tspan x="-23.5" y="79.2" fill="#333333" font-family="'KievitOT-Medium'" font-size="22px">new version</tspan></text>
	</g>
</g>
<g>
	<g>
		<path fill="#C6DD9F" d="M1757,310c0,1.1-0.9,2-2,2h-129c-1.1,0-2-0.9-2-2V187c0-1.1,0.9-2,2-2h129c1.1,0,2,0.9,2,2V310z"/>
		<path fill="none" stroke="#333333" stroke-width="2" stroke-miterlimit="10" d="M1757,310c0,1.1-0.9,2-2,2h-129c-1.1,0-2-0.9-2-2
			V187c0-1.1,0.9-2,2-2h129c1.1,0,2,0.9,2,2V310z"/>
	</g>
	<text transform="matrix(1 0 0 1 1657.9454 214.9012)"><tspan x="0" y="0" fill="#333333" font-family="'KievitOT-Medium'" font-size="22px">Obtain</tspan><tspan x="-17.1" y="26.4" fill="#333333" font-family="'KievitOT-Medium'" font-size="22px">new nodes</tspan><tspan x="-15.6" y="52.8" fill="#333333" font-family="'KievitOT-Medium'" font-size="22px">and install</tspan><tspan x="-23.5" y="79.2" fill="#333333" font-family="'KievitOT-Medium'" font-size="22px">new version</tspan></text>
</g>
<g>
	<g>
		<path fill="#C6DD9F" d="M1598,310c0,1.1-0.9,2-2,2h-119c-1.1,0-2-0.9-2-2V187c0-1.1,0.9-2,2-2h119c1.1,0,2,0.9,2,2V310z"/>
		<path fill="none" stroke="#333333" stroke-width="2" stroke-miterlimit="10" d="M1598,310c0,1.1-0.9,2-2,2h-119c-1.1,0-2-0.9-2-2
			V187c0-1.1,0.9-2,2-2h119c1.1,0,2,0.9,2,2V310z"/>
	</g>
	<text transform="matrix(1 0 0 1 1495.5708 214.2468)"><tspan x="0" y="0" fill="#333333" font-family="'KievitOT-Medium'" font-size="22px">Upgrade</tspan><tspan x="3.2" y="26.4" fill="#333333" font-family="'KievitOT-Medium'" font-size="22px">standby</tspan><tspan x="12.5" y="52.8" fill="#333333" font-family="'KievitOT-Medium'" font-size="22px">nodes</tspan></text>
</g>
<g>
	<path fill="#99DEF3" stroke="#333333" stroke-width="2" stroke-linecap="round" stroke-miterlimit="10" d="M1582.8,137.4h-93.1
		c-2.4,0-4.4-8.6-4.4-19.1V84.9c0-10.5,2-19.1,4.4-19.1h93.1c2.4,0,4.4,8.6,4.4,19.1v33.4C1587.2,128.8,1585.2,137.4,1582.8,137.4z"
		/>
	<text transform="matrix(1 0 0 1 1498.4058 96.2594)" enable-background="new    "><tspan x="0" y="0" fill="#333333" font-family="'KievitOT-Medium'" font-size="21.6978px">Standby</tspan><tspan x="10.2" y="26" fill="#333333" font-family="'KievitOT-Medium'" font-size="21.6978px">nodes</tspan></text>
</g>
<g>
	<path fill="#99DEF3" stroke="#333333" stroke-width="2" stroke-linecap="round" stroke-miterlimit="10" d="M1294.5,137.4h-120.5
		c-3.2,0-5.7-8.6-5.7-19.1V84.9c0-10.5,2.6-19.1,5.7-19.1h120.5c3.2,0,5.7,8.6,5.7,19.1v33.4
		C1300.2,128.8,1297.7,137.4,1294.5,137.4z"/>
	<text transform="matrix(1 0 0 1 1195.9452 96.2591)" enable-background="new    "><tspan x="0" y="0" fill="#333333" font-family="'KievitOT-Medium'" font-size="21.6978px">Without</tspan><tspan x="-16.9" y="26" fill="#333333" font-family="'KievitOT-Medium'" font-size="21.6978px">spare nodes</tspan></text>
</g>
<g>
	<g>
		<g>
			<line fill="none" stroke="#FF8900" stroke-width="3" stroke-miterlimit="10" x1="1366.3" y1="138" x2="1366.3" y2="169.6"/>
			<g>
				<polygon fill="#FF8900" points="1366.3,184.4 1357.8,163.5 1366.3,168.5 1374.9,163.5 				"/>
			</g>
		</g>
	</g>
	<g>
		<g>
			<line fill="none" stroke="#00737D" stroke-width="3" stroke-miterlimit="10" x1="1386.3" y1="138" x2="1386.3" y2="169.6"/>
			<g>
				<polygon fill="#00737D" points="1386.3,184.4 1377.8,163.5 1386.3,168.5 1394.9,163.5 				"/>
			</g>
		</g>
	</g>
</g>
<g>
	<g>
		<line fill="none" stroke="#71AB0F" stroke-width="3" stroke-miterlimit="10" x1="1690.7" y1="136" x2="1690.7" y2="169.6"/>
		<g>
			<polygon fill="#71AB0F" points="1690.7,184.4 1682.1,163.5 1690.7,168.5 1699.2,163.5 			"/>
		</g>
	</g>
</g>
<g>
	<g>
		<path fill="#C6DD9F" d="M1987,498c0,1.1-0.9,2-2,2h-129c-1.1,0-2-0.9-2-2v-87c0-1.1,0.9-2,2-2h129c1.1,0,2,0.9,2,2V498z"/>
		<path fill="none" stroke="#333333" stroke-width="2" stroke-miterlimit="10" d="M1987,498c0,1.1-0.9,2-2,2h-129c-1.1,0-2-0.9-2-2
			v-87c0-1.1,0.9-2,2-2h129c1.1,0,2,0.9,2,2V498z"/>
	</g>
	<text transform="matrix(1 0 0 1 1866.892 447.4139)"><tspan x="0" y="0" fill="#333333" font-family="'KievitOT-Medium'" font-size="22px">Upgrade all</tspan><tspan x="25.8" y="26.4" fill="#333333" font-family="'KievitOT-Medium'" font-size="22px">nodes</tspan></text>
</g>
<g>
	<path fill="#99DEF3" stroke="#333333" stroke-width="2" stroke-linecap="round" stroke-miterlimit="10" d="M1970.7,137.4h-99.9
		c-2.6,0-4.8-8.6-4.8-19.1V84.9c0-10.5,2.1-19.1,4.8-19.1h99.9c2.6,0,4.8,8.6,4.8,19.1v33.4C1975.4,128.8,1973.3,137.4,1970.7,137.4
		z"/>
	<text transform="matrix(1 0 0 1 1888.804 96.2594)" enable-background="new    "><tspan x="0" y="0" fill="#333333" font-family="'KievitOT-Medium'" font-size="21.6978px">Offline</tspan><tspan x="-6.3" y="26" fill="#333333" font-family="'KievitOT-Medium'" font-size="21.6978px">upgrade</tspan></text>
</g>
<g>
	<g>
		<line fill="none" stroke="#333333" stroke-width="3" stroke-miterlimit="10" x1="1920.7" y1="138" x2="1920.7" y2="395.2"/>
		<g>
			<polygon fill="#333333" points="1920.7,410 1912.2,389.1 1920.7,394.1 1929.3,389.1 			"/>
		</g>
	</g>
</g>
<g>
	<g>
		<line fill="none" stroke="#333333" stroke-width="3" stroke-miterlimit="10" x1="1921" y1="678.2" x2="1680.5" y2="785.7"/>
		<g>
			<polygon fill="#333333" points="1666.9,791.7 1682.5,775.4 1681.5,785.2 1689.5,791 			"/>
		</g>
	</g>
</g>
<line fill="none" stroke="#333333" stroke-width="3" stroke-miterlimit="10" x1="1920.7" y1="500" x2="1920.7" y2="679.4"/>
<g>
	<path fill="#99DEF3" stroke="#333333" stroke-width="2" stroke-linecap="round" stroke-miterlimit="10" d="M1731.9,137.4h-82.5
		c-2.2,0-3.9-8.6-3.9-19.1V84.9c0-10.5,1.8-19.1,3.9-19.1h82.5c2.2,0,3.9,8.6,3.9,19.1v33.4C1735.9,128.8,1734.1,137.4,1731.9,137.4
		z"/>
	<text transform="matrix(1 0 0 1 1661.7766 96.2594)" enable-background="new    "><tspan x="0" y="0" fill="#333333" font-family="'KievitOT-Medium'" font-size="21.6978px">Added</tspan><tspan x="2.6" y="26" fill="#333333" font-family="'KievitOT-Medium'" font-size="21.6978px">nodes</tspan></text>
</g>
<g>
	<g>
		<circle fill="#FF8900" cx="1807.2" cy="454.3" r="18.8"/>
	</g>
	<text transform="matrix(1 0 0 1 1798.8717 459.4411)" fill="#FFFFFF" font-family="'KievitOT-Bold'" font-size="36px">5</text>
</g>
<g>
	<g>
		<g>
			<path fill="#FFE7A8" d="M1569.8,594.4c0,0.8-0.5,1.5-1.2,1.5h-119.9c-0.6,0-1.2-0.7-1.2-1.5V565c0-0.8,0.5-1.5,1.2-1.5h119.9
				c0.6,0,1.2,0.7,1.2,1.5V594.4z"/>
			<path fill="none" d="M1569.8,594.4c0,0.8-0.5,1.5-1.2,1.5h-119.9c-0.6,0-1.2-0.7-1.2-1.5V565c0-0.8,0.5-1.5,1.2-1.5h119.9
				c0.6,0,1.2,0.7,1.2,1.5V594.4z"/>
		</g>
		<g>
			<path fill="#C6DD9F" d="M1570,658c0,1.1-0.9,2-2,2h-118c-1.1,0-2-0.9-2-2v-61c0-1.1,0.9-2,2-2h118c1.1,0,2,0.9,2,2V658z"/>
		</g>
		<g>
			<path fill="none" stroke="#333333" stroke-width="2" stroke-miterlimit="10" d="M1569,657c0,1.1-0.9,2-2,2h-118c-1.1,0-2-0.9-2-2
				v-92c0-1.1,0.9-2,2-2h118c1.1,0,2,0.9,2,2V657z"/>
		</g>
	</g>
	<text transform="matrix(1 0 0 1 1479.7559 588.7734)"><tspan x="0" y="0" fill="#333333" font-family="'KievitOT-Medium'" font-size="22px">Retire</tspan><tspan x="-7.1" y="26.4" fill="#333333" font-family="'KievitOT-Medium'" font-size="22px">original</tspan><tspan x="-1.4" y="52.8" fill="#333333" font-family="'KievitOT-Medium'" font-size="22px">spares</tspan></text>
</g>
<g>
	<g>
		<path fill="#FFE7A8" d="M1721,658c0,1.1-0.9,2-2,2h-126c-1.1,0-2-0.9-2-2v-92c0-1.1,0.9-2,2-2h126c1.1,0,2,0.9,2,2V658z"/>
		<path fill="none" stroke="#333333" stroke-width="2" stroke-miterlimit="10" d="M1721,658c0,1.1-0.9,2-2,2h-126c-1.1,0-2-0.9-2-2
			v-92c0-1.1,0.9-2,2-2h126c1.1,0,2,0.9,2,2V658z"/>
	</g>
	<text transform="matrix(1 0 0 1 1608.6926 591.9781)"><tspan x="0" y="0" fill="#333333" font-family="'KievitOT-Medium'" font-size="22px">Designate</tspan><tspan x="10.1" y="26.4" fill="#333333" font-family="'KievitOT-Medium'" font-size="22px">standby</tspan><tspan x="19.4" y="52.8" fill="#333333" font-family="'KievitOT-Medium'" font-size="22px">nodes</tspan></text>
</g>
<g>
	<g>
		<path fill="#FFE7A8" d="M1273.3,656.4c0,2.5-0.7,4.6-1.4,4.6h-148.1c-0.8,0-1.4-2.1-1.4-4.6v-88.9c0-2.5,0.7-4.6,1.4-4.6h148.1
			c0.8,0,1.4,2.1,1.4,4.6V656.4z"/>
		<path fill="none" stroke="#333333" stroke-width="2" stroke-miterlimit="10" d="M1273.3,656.4c0,2.5-0.7,4.6-1.4,4.6h-148.1
			c-0.8,0-1.4-2.1-1.4-4.6v-88.9c0-2.5,0.7-4.6,1.4-4.6h148.1c0.8,0,1.4,2.1,1.4,4.6V656.4z"/>
	</g>
	<text transform="matrix(1 0 0 1 1139.603 591.9114)"><tspan x="0" y="0" fill="#333333" font-family="'KievitOT-Medium'" font-size="22px">Redistribute</tspan><tspan x="30.4" y="26.4" fill="#333333" font-family="'KievitOT-Medium'" font-size="22px">traffic</tspan><tspan x="11.4" y="52.8" fill="#333333" font-family="'KievitOT-Medium'" font-size="22px">and verify</tspan></text>
</g>
<g>
	<g>
		<path fill="#FFE7A8" d="M1892.4,656.4c0,2.5-0.7,4.6-1.4,4.6h-148.1c-0.8,0-1.4-2.1-1.4-4.6v-88.9c0-2.5,0.7-4.6,1.4-4.6H1891
			c0.8,0,1.4,2.1,1.4,4.6V656.4z"/>
		<path fill="none" stroke="#333333" stroke-width="2" stroke-miterlimit="10" d="M1892.4,656.4c0,2.5-0.7,4.6-1.4,4.6h-148.1
			c-0.8,0-1.4-2.1-1.4-4.6v-88.9c0-2.5,0.7-4.6,1.4-4.6H1891c0.8,0,1.4,2.1,1.4,4.6V656.4z"/>
	</g>
	<text transform="matrix(1 0 0 1 1758.7269 591.9114)"><tspan x="0" y="0" fill="#333333" font-family="'KievitOT-Medium'" font-size="22px">Redistribute</tspan><tspan x="30.4" y="26.4" fill="#333333" font-family="'KievitOT-Medium'" font-size="22px">traffic</tspan><tspan x="11.4" y="52.8" fill="#333333" font-family="'KievitOT-Medium'" font-size="22px">and verify</tspan></text>
</g>
<g>
	<g>
		<g>
			<path fill="#FFE7A8" d="M1420.8,594.5c0,0.8-0.5,1.5-1.2,1.5h-119.9c-0.6,0-1.2-0.7-1.2-1.5V565c0-0.8,0.5-1.5,1.2-1.5h119.9
				c0.6,0,1.2,0.7,1.2,1.5V594.5z"/>
			<path fill="none" d="M1420.8,594.5c0,0.8-0.5,1.5-1.2,1.5h-119.9c-0.6,0-1.2-0.7-1.2-1.5V565c0-0.8,0.5-1.5,1.2-1.5h119.9
				c0.6,0,1.2,0.7,1.2,1.5V594.5z"/>
		</g>
		<g>
			<path fill="#C6DD9F" d="M1421,658c0,1.1-0.9,2-2,2h-118c-1.1,0-2-0.9-2-2v-62c0-1.1,0.9-2,2-2h118c1.1,0,2,0.9,2,2V658z"/>
		</g>
		<g>
			<path fill="none" stroke="#333333" stroke-width="2" stroke-miterlimit="10" d="M1420,657c0,1.1-0.9,2-2,2h-118c-1.1,0-2-0.9-2-2
				v-92c0-1.1,0.9-2,2-2h118c1.1,0,2,0.9,2,2V657z"/>
		</g>
	</g>
	<text transform="matrix(1 0 0 1 1330.7559 588.7734)"><tspan x="0" y="0" fill="#333333" font-family="'KievitOT-Medium'" font-size="22px">Retire</tspan><tspan x="-12.3" y="26.4" fill="#333333" font-family="'KievitOT-Medium'" font-size="22px">different</tspan><tspan x="-1.4" y="52.8" fill="#333333" font-family="'KievitOT-Medium'" font-size="22px">spares</tspan></text>
</g>
<g>
	<g>
		<g>
			<g>
				<path fill="#FFE7A8" d="M1359.2,436.4c0,0.8-0.7,1.5-1.6,1.5h-160c-0.9,0-1.6-0.7-1.6-1.5V407c0-0.8,0.7-1.5,1.6-1.5h160
					c0.9,0,1.6,0.7,1.6,1.5V436.4z"/>
				<path fill="none" d="M1359.2,436.4c0,0.8-0.7,1.5-1.6,1.5h-160c-0.9,0-1.6-0.7-1.6-1.5V407c0-0.8,0.7-1.5,1.6-1.5h160
					c0.9,0,1.6,0.7,1.6,1.5V436.4z"/>
			</g>
			<g>
				<path fill="#C6DD9F" d="M1359,495c0,1.1-0.9,2-2,2h-159c-1.1,0-2-0.9-2-2v-55c0-1.1,0.9-2,2-2h159c1.1,0,2,0.9,2,2V495z"/>
			</g>
		</g>
		<g>
			<path fill="none" stroke="#333333" stroke-width="2" stroke-miterlimit="10" d="M1359,496c0,1.1-0.9,2-2,2h-159c-1.1,0-2-0.9-2-2
				v-89c0-1.1,0.9-2,2-2h159c1.1,0,2,0.9,2,2V496z"/>
		</g>
	</g>
	<text transform="matrix(1 0 0 1 1229.0173 431.1862)"><tspan x="0" y="0" fill="#333333" font-family="'KievitOT-Medium'" font-size="22px">Iteratively</tspan><tspan x="9.9" y="26.4" fill="#333333" font-family="'KievitOT-Medium'" font-size="22px">upgrade</tspan><tspan x="20.6" y="52.8" fill="#333333" font-family="'KievitOT-Medium'" font-size="22px">nodes</tspan></text>
</g>
</svg>
