<?xml version="1.0" encoding="utf-8"?>
<!-- Generator: Adobe Illustrator 19.1.0, SVG Export Plug-In . SVG Version: 6.00 Build 0)  -->
<svg version="1.1" id="Layer_1" xmlns="http://www.w3.org/2000/svg" xmlns:xlink="http://www.w3.org/1999/xlink" x="0px" y="0px"
	 viewBox="837 65 672 1110" enable-background="new 837 65 672 1110" xml:space="preserve">
<path fill="#CCCCCC" d="M1316.6,1091.2c0,1-0.9,1.8-2,1.8H846.1c-1.1,0-2-0.8-2-1.8V933c0-1,0.9-1.8,2-1.8h468.5c1.1,0,2,0.8,2,1.8
	V1091.2z"/>
<text transform="matrix(1 0 0 1 855.2368 1016.0176)" fill="#333333" font-family="'KievitOT-Medium'" font-size="21.6978px">On nodes that</text>
<text transform="matrix(1 0 0 1 855.2368 1042.0557)" fill="#333333" font-family="'KievitOT-Medium'" font-size="21.6978px">will be spares</text>
<path fill="#CCCCCC" d="M1316.6,663.7c0,0.7-0.9,1.3-2,1.3H846.1c-1.1,0-2-0.6-2-1.3V429c0-0.7,0.9-1.3,2-1.3h468.5
	c1.1,0,2,0.6,2,1.3V663.7z"/>
<text transform="matrix(1 0 0 1 855.2368 518.8251)" fill="#333333" font-family="'KievitOT-Medium'" font-size="21.6978px">On one</text>
<text transform="matrix(1 0 0 1 855.2368 544.8627)" enable-background="new    "><tspan x="0" y="0" fill="#333333" font-family="'KievitOT-Medium'" font-size="21.6978px">Sync Gateway</tspan><tspan x="0" y="26" fill="#333333" font-family="'KievitOT-Medium'" font-size="21.6978px">node</tspan></text>
<g>
	<path fill="#CCCCCC" d="M1316.6,300.2c0,1-0.9,1.8-2,1.8H846.1c-1.1,0-2-0.8-2-1.8V137.8c0-1,0.9-1.8,2-1.8h468.5
		c1.1,0,2,0.8,2,1.8V300.2z"/>
</g>
<text transform="matrix(1 0 0 1 855.2368 220.6836)" fill="#333333" font-family="'KievitOT-Medium'" font-size="21.6978px">On spare</text>
<text transform="matrix(1 0 0 1 855.2368 246.7207)" fill="#333333" font-family="'KievitOT-Medium'" font-size="21.6978px">Sync Gateway</text>
<text transform="matrix(1 0 0 1 855.2368 272.7583)" fill="#333333" font-family="'KievitOT-Medium'" font-size="21.6978px">nodes</text>
<g>
	<path fill="#FFE7A8" d="M1298.3,403c0,1.1-1.3,2-2.9,2h-293.9c-1.6,0-2.9-0.9-2.9-2v-38.5c0-1.1,1.3-2,2.9-2h293.9
		c1.6,0,2.9,0.9,2.9,2V403z"/>
	<path fill="none" stroke="#333333" stroke-width="2" stroke-miterlimit="10" d="M1298.3,403c0,1.1-1.3,2-2.9,2h-293.9
		c-1.6,0-2.9-0.9-2.9-2v-38.5c0-1.1,1.3-2,2.9-2h293.9c1.6,0,2.9,0.9,2.9,2V403z"/>
</g>
<text transform="matrix(1 0 0 1 1013.7834 390.0645)" fill="#333333" font-family="'KievitOT-Medium'" font-size="21.6978px">Redistribute traffic and verify</text>
<g>
	<path fill="#99DEF3" stroke="#333333" stroke-width="2" stroke-linecap="round" stroke-miterlimit="10" d="M1276.9,116.2h-255.7
		c-6.7,0-12.2-5.3-12.2-11.8V83.7c0-6.5,5.5-11.8,12.2-11.8h255.7c6.7,0,12.2,5.3,12.2,11.8v20.7
		C1289.1,110.9,1283.6,116.2,1276.9,116.2z"/>
	<text transform="matrix(1 0 0 1 1025.8348 100.2965)" fill="#333333" font-family="'KievitOT-Medium'" font-size="21.6978px">Temporary-spares upgrade</text>
</g>
<g>
	<g>
		<line fill="none" stroke="#333333" stroke-width="2" stroke-miterlimit="10" x1="1354.6" y1="327.9" x2="1161.4" y2="327.9"/>
		<g>
			<polygon fill="#333333" points="1151.8,327.9 1165.5,322.3 1162.2,327.9 1165.5,333.4 			"/>
		</g>
	</g>
</g>
<line fill="none" stroke="#333333" stroke-width="2" stroke-miterlimit="10" x1="1353.6" y1="328.4" x2="1353.6" y2="759.6"/>
<polygon fill="#EBAAAB" stroke="#333333" stroke-width="2" stroke-miterlimit="10" points="1276.4,759.4 1148.7,824.3 1020.6,761.5 
	1148.3,696.4 "/>
<text transform="matrix(1 0 0 1 1089.3574 743.8662)" fill="#333333" font-family="'KievitOT-Medium'" font-size="21.6978px">Are required</text>
<text transform="matrix(1 0 0 1 1070.8701 769.9043)" fill="#333333" font-family="'KievitOT-Medium'" font-size="21.6978px">number of nodes</text>
<text transform="matrix(1 0 0 1 1100.0635 795.9414)" fill="#333333" font-family="'KievitOT-Medium'" font-size="21.6978px">upgraded?</text>
<line fill="none" stroke="#333333" stroke-width="2" stroke-miterlimit="10" x1="1274" y1="759.4" x2="1353.6" y2="759.4"/>
<g>
	<path fill="#99DEF3" stroke="#333333" stroke-width="2" stroke-linecap="round" stroke-miterlimit="10" d="M1242.4,1166.7h-187.8
		c-6.5,0-11.8-5.3-11.8-11.8v-20.7c0-6.5,5.3-11.8,11.8-11.8h187.8c6.5,0,11.8,5.3,11.8,11.8v20.7
		C1254.2,1161.4,1248.9,1166.7,1242.4,1166.7z"/>
	<text transform="matrix(1 0 0 1 1063.3625 1150.7601)" fill="#333333" font-family="'KievitOT-Medium'" font-size="21.6978px">Upgrade complete</text>
</g>
<g>
	<path fill="#FFE7A8" d="M1298.3,908.6c0,1.1-1.3,2-2.9,2h-293.9c-1.6,0-2.9-0.9-2.9-2v-38.5c0-1.1,1.3-2,2.9-2h293.9
		c1.6,0,2.9,0.9,2.9,2V908.6z"/>
	<path fill="none" stroke="#333333" stroke-width="2" stroke-miterlimit="10" d="M1298.3,908.6c0,1.1-1.3,2-2.9,2h-293.9
		c-1.6,0-2.9-0.9-2.9-2v-38.5c0-1.1,1.3-2,2.9-2h293.9c1.6,0,2.9,0.9,2.9,2V908.6z"/>
</g>
<text transform="matrix(1 0 0 1 1013.7834 895.6436)" fill="#333333" font-family="'KievitOT-Medium'" font-size="21.6978px">Redistribute traffic and verify</text>
<text transform="matrix(1 0 0 1 1097.3169 844.5615)" fill="#333333" font-family="'KievitOT-Medium'" font-size="21.6978px">Yes</text>
<text transform="matrix(1 0 0 1 1295.5889 743.4844)" fill="#333333" font-family="'KievitOT-Medium'" font-size="21.6978px">No</text>
<text transform="matrix(1 0 0 1 1373.0244 511.2352)" fill="#333333" font-family="'KievitOT-Medium'" font-size="21.6978px">Repeat tasks</text>
<text transform="matrix(1 0 0 1 1373.0244 537.2723)" fill="#333333" font-family="'KievitOT-Medium'" font-size="21.6978px">for successive</text>
<text transform="matrix(1 0 0 1 1373.0244 563.3099)" fill="#333333" font-family="'KievitOT-Medium'" font-size="21.6978px">Sync Gateway</text>
<text transform="matrix(1 0 0 1 1373.0244 589.347)" fill="#333333" font-family="'KievitOT-Medium'" font-size="21.6978px">nodes</text>
<g>
	<g>
		<circle fill="#FF8900" cx="876" cy="168.2" r="18.8"/>
	</g>
	<text transform="matrix(1 0 0 1 868.6326 176.388)" fill="#FFFFFF" font-family="'KievitOT-Bold'" font-size="36px">1</text>
</g>
<g>
	<g>
		<circle fill="#FF8900" cx="1238.1" cy="701" r="18.8"/>
	</g>
	<text transform="matrix(1 0 0 1 1225.7457 706.2252)" fill="#FFFFFF" font-family="'KievitOT-Bold'" font-size="36px">4</text>
</g>
<g>
	<g>
		<circle fill="#FF8900" cx="955" cy="383.8" r="18.8"/>
	</g>
	<text transform="matrix(1 0 0 1 945.6327 391.98)" fill="#FFFFFF" font-family="'KievitOT-Bold'" font-size="36px">2</text>
</g>
<g>
	<g>
		<circle fill="#FF8900" cx="876" cy="463" r="18.8"/>
	</g>
	<text transform="matrix(1 0 0 1 868.6326 468.2281)" fill="#FFFFFF" font-family="'KievitOT-Bold'" font-size="36px">3</text>
</g>
<g>
	<g>
		<circle fill="#FF8900" cx="955" cy="889.4" r="18.8"/>
	</g>
	<text transform="matrix(1 0 0 1 946.6326 894.5591)" fill="#FFFFFF" font-family="'KievitOT-Bold'" font-size="36px">5</text>
</g>
<g>
	<g>
		<circle fill="#FF8900" cx="876" cy="965.6" r="18.8"/>
	</g>
	<text transform="matrix(1 0 0 1 864.6326 976.7935)" fill="#FFFFFF" font-family="'KievitOT-Bold'" font-size="36px">6</text>
</g>
<g>
	<g>
		<line fill="none" stroke="#333333" stroke-width="2" stroke-miterlimit="10" x1="1148.5" y1="116.2" x2="1148.5" y2="161.9"/>
		<g>
			<polygon fill="#333333" points="1148.5,171.8 1142.8,157.9 1148.5,161.2 1154.2,157.9 			"/>
		</g>
	</g>
</g>
<g>
	<g>
		<g>
			<path fill="#C6DD9F" d="M1256,528c0,1.1-0.9,2-2,2h-212c-1.1,0-2-0.9-2-2v-66c0-1.1,0.9-2,2-2h212c1.1,0,2,0.9,2,2V528z"/>
			<path fill="none" stroke="#333333" stroke-width="2" stroke-miterlimit="10" d="M1256,528c0,1.1-0.9,2-2,2h-212c-1.1,0-2-0.9-2-2
				v-66c0-1.1,0.9-2,2-2h212c1.1,0,2,0.9,2,2V528z"/>
		</g>
		<text transform="matrix(1 0 0 1 1064.344 488.1086)"><tspan x="0" y="0" fill="#333333" font-family="'KievitOT-Medium'" font-size="22px">Stop and uninstall</tspan><tspan x="1.2" y="26.4" fill="#333333" font-family="'KievitOT-Medium'" font-size="22px">old Sync Gateway</tspan></text>
	</g>
	<g>
		<g>
			<path fill="#C6DD9F" d="M1256,634c0,1.1-0.9,2-2,2h-212c-1.1,0-2-0.9-2-2v-66c0-1.1,0.9-2,2-2h212c1.1,0,2,0.9,2,2V634z"/>
			<path fill="none" stroke="#333333" stroke-width="2" stroke-miterlimit="10" d="M1256,634c0,1.1-0.9,2-2,2h-212c-1.1,0-2-0.9-2-2
				v-66c0-1.1,0.9-2,2-2h212c1.1,0,2,0.9,2,2V634z"/>
		</g>
		<text transform="matrix(1 0 0 1 1075.377 593.7987)"><tspan x="0" y="0" fill="#333333" font-family="'KievitOT-Medium'" font-size="22px">Install and start</tspan><tspan x="-14.5" y="26.4" fill="#333333" font-family="'KievitOT-Medium'" font-size="22px">new Sync Gateway</tspan></text>
	</g>
	<g>
		<g>
			<line fill="none" stroke="#333333" stroke-width="2" stroke-miterlimit="10" x1="1148.5" y1="531.2" x2="1148.5" y2="556.3"/>
			<g>
				<polygon fill="#333333" points="1148.5,566.2 1142.8,552.3 1148.5,555.6 1154.2,552.3 				"/>
			</g>
		</g>
	</g>
</g>
<g>
	<g>
		<path fill="#C6DD9F" d="M1256,1040c0,1.1-0.9,2-2,2h-212c-1.1,0-2-0.9-2-2v-66c0-1.1,0.9-2,2-2h212c1.1,0,2,0.9,2,2V1040z"/>
		<path fill="none" stroke="#333333" stroke-width="2" stroke-miterlimit="10" d="M1256,1040c0,1.1-0.9,2-2,2h-212c-1.1,0-2-0.9-2-2
			v-66c0-1.1,0.9-2,2-2h212c1.1,0,2,0.9,2,2V1040z"/>
	</g>
	<text transform="matrix(1 0 0 1 1064.344 1000.1086)"><tspan x="0" y="0" fill="#333333" font-family="'KievitOT-Medium'" font-size="22px">Stop and uninstall</tspan><tspan x="1.2" y="26.4" fill="#333333" font-family="'KievitOT-Medium'" font-size="22px">old Sync Gateway</tspan></text>
</g>
<g>
	<g>
		<path fill="#C6DD9F" d="M1256,239c0,1.1-0.9,2-2,2h-212c-1.1,0-2-0.9-2-2v-66c0-1.1,0.9-2,2-2h212c1.1,0,2,0.9,2,2V239z"/>
		<path fill="none" stroke="#333333" stroke-width="2" stroke-miterlimit="10" d="M1256,239c0,1.1-0.9,2-2,2h-212c-1.1,0-2-0.9-2-2
			v-66c0-1.1,0.9-2,2-2h212c1.1,0,2,0.9,2,2V239z"/>
	</g>
	<text transform="matrix(1 0 0 1 1075.377 198.7987)"><tspan x="0" y="0" fill="#333333" font-family="'KievitOT-Medium'" font-size="22px">Install and start</tspan><tspan x="-14.5" y="26.4" fill="#333333" font-family="'KievitOT-Medium'" font-size="22px">new Sync Gateway</tspan></text>
</g>
<g>
	<g>
		<line fill="none" stroke="#333333" stroke-width="2" stroke-miterlimit="10" x1="1148.5" y1="241.2" x2="1148.5" y2="352.7"/>
		<g>
			<polygon fill="#333333" points="1148.5,362.6 1142.8,348.7 1148.5,352 1154.2,348.7 			"/>
		</g>
	</g>
</g>
<g>
	<g>
		<line fill="none" stroke="#333333" stroke-width="2" stroke-miterlimit="10" x1="1148.5" y1="405" x2="1148.5" y2="449.6"/>
		<g>
			<polygon fill="#333333" points="1148.5,459.4 1142.8,445.5 1148.5,448.8 1154.2,445.5 			"/>
		</g>
	</g>
</g>
<g>
	<g>
		<line fill="none" stroke="#333333" stroke-width="2" stroke-miterlimit="10" x1="1148.5" y1="636.2" x2="1148.5" y2="686.5"/>
		<g>
			<polygon fill="#333333" points="1148.5,696.4 1142.8,682.5 1148.5,685.8 1154.2,682.5 			"/>
		</g>
	</g>
</g>
<g>
	<g>
		<line fill="none" stroke="#333333" stroke-width="2" stroke-miterlimit="10" x1="1148.5" y1="825.2" x2="1148.5" y2="858.3"/>
		<g>
			<polygon fill="#333333" points="1148.5,868.2 1142.8,854.2 1148.5,857.5 1154.2,854.2 			"/>
		</g>
	</g>
</g>
<g>
	<g>
		<line fill="none" stroke="#333333" stroke-width="2" stroke-miterlimit="10" x1="1148.5" y1="912.2" x2="1148.5" y2="961.8"/>
		<g>
			<polygon fill="#333333" points="1148.5,971.7 1142.8,957.7 1148.5,961 1154.2,957.7 			"/>
		</g>
	</g>
</g>
<g>
	<g>
		<line fill="none" stroke="#333333" stroke-width="2" stroke-miterlimit="10" x1="1148.5" y1="1043.2" x2="1148.5" y2="1111.4"/>
		<g>
			<polygon fill="#333333" points="1148.5,1121.3 1142.8,1107.4 1148.5,1110.7 1154.2,1107.4 			"/>
		</g>
	</g>
</g>
</svg>
