<?xml version="1.0" encoding="utf-8"?>
<!-- Generator: Adobe Illustrator 19.1.0, SVG Export Plug-In . SVG Version: 6.00 Build 0)  -->
<svg version="1.1" id="Layer_1" xmlns="http://www.w3.org/2000/svg" xmlns:xlink="http://www.w3.org/1999/xlink" x="0px" y="0px"
	 viewBox="837 321 672 607" enable-background="new 837 321 672 607" xml:space="preserve">
<path fill="#CCCCCC" d="M1316.6,658.3c0,0.7-0.9,1.3-2,1.3H846.1c-1.1,0-2-0.6-2-1.3V424.8c0-0.7,0.9-1.3,2-1.3h468.5
	c1.1,0,2,0.6,2,1.3V658.3z"/>
<text transform="matrix(1 0 0 1 855.2368 518.8251)" fill="#333333" font-family="'KievitOT-Medium'" font-size="21.6978px">On all</text>
<text transform="matrix(1 0 0 1 855.2368 544.8627)" fill="#333333" font-family="'KievitOT-Medium'" font-size="21.6978px">Sync Gateway</text>
<text transform="matrix(1 0 0 1 855.2368 570.8998)" fill="#333333" font-family="'KievitOT-Medium'" font-size="21.6978px">nodes</text>
<g>
	<path fill="#99DEF3" stroke="#333333" stroke-width="2" stroke-linecap="round" stroke-miterlimit="10" d="M1235.1,371.2h-175.6
		c-4.6,0-8.4-5.3-8.4-11.8v-20.7c0-6.5,3.8-11.8,8.4-11.8h175.6c4.6,0,8.4,5.3,8.4,11.8v20.7
		C1243.4,365.9,1239.7,371.2,1235.1,371.2z"/>
	<text transform="matrix(1 0 0 1 1074.9761 355.2965)" fill="#333333" font-family="'KievitOT-Medium'" font-size="21.6978px">Offline upgrade</text>
</g>
<line fill="none" stroke="#333333" stroke-width="2" stroke-miterlimit="10" x1="1353.6" y1="397" x2="1353.6" y2="744.2"/>
<polygon fill="#EBAAAB" stroke="#333333" stroke-width="2" stroke-miterlimit="10" points="1274.6,743.4 1146.9,808.3 1018.7,745.5 
	1146.5,680.4 "/>
<text transform="matrix(1 0 0 1 1087.3201 739.9043)" fill="#333333" font-family="'KievitOT-Medium'" font-size="21.6978px">Are all nodes</text>
<text transform="matrix(1 0 0 1 1095.7307 765.9414)" fill="#333333" font-family="'KievitOT-Medium'" font-size="21.6978px">upgraded?</text>
<line fill="none" stroke="#333333" stroke-width="2" stroke-miterlimit="10" x1="1274" y1="743.4" x2="1353.6" y2="743.4"/>
<g>
	<path fill="#99DEF3" stroke="#333333" stroke-width="2" stroke-linecap="round" stroke-miterlimit="10" d="M1240.6,923.7h-187.8
		c-6.5,0-11.8-5.3-11.8-11.8v-20.7c0-6.5,5.3-11.8,11.8-11.8h187.8c6.5,0,11.8,5.3,11.8,11.8v20.7
		C1252.4,918.4,1247.1,923.7,1240.6,923.7z"/>
	<text transform="matrix(1 0 0 1 1061.5352 907.7602)" fill="#333333" font-family="'KievitOT-Medium'" font-size="21.6978px">Upgrade complete</text>
</g>
<text transform="matrix(1 0 0 1 1097.3169 828.5615)" fill="#333333" font-family="'KievitOT-Medium'" font-size="21.6978px">Yes</text>
<text transform="matrix(1 0 0 1 1295.5889 727.4844)" fill="#333333" font-family="'KievitOT-Medium'" font-size="21.6978px">No</text>
<text transform="matrix(1 0 0 1 1373.0244 506.8154)" fill="#333333" font-family="'KievitOT-Medium'" font-size="21.6978px">Repeat tasks</text>
<text transform="matrix(1 0 0 1 1373.0244 532.8525)" fill="#333333" font-family="'KievitOT-Medium'" font-size="21.6978px">for successive</text>
<text transform="matrix(1 0 0 1 1373.0244 558.8901)" fill="#333333" font-family="'KievitOT-Medium'" font-size="21.6978px">Sync Gateway</text>
<text transform="matrix(1 0 0 1 1373.0244 584.9272)" fill="#333333" font-family="'KievitOT-Medium'" font-size="21.6978px">nodes</text>
<g>
	<g>
		<circle fill="#FF8900" cx="1017" cy="388.2" r="18.8"/>
	</g>
	<text transform="matrix(1 0 0 1 1009.6326 396.388)" fill="#FFFFFF" font-family="'KievitOT-Bold'" font-size="36px">1</text>
</g>
<g>
	<g>
		<circle fill="#FF8900" cx="878.6" cy="463.3" r="18.8"/>
	</g>
	<text transform="matrix(1 0 0 1 869.3005 471.4618)" fill="#FFFFFF" font-family="'KievitOT-Bold'" font-size="36px">2</text>
</g>
<g>
	<g>
		<circle fill="#FF8900" cx="1056.1" cy="838" r="18.8"/>
	</g>
	<text transform="matrix(1 0 0 1 1048.8077 843.2281)" fill="#FFFFFF" font-family="'KievitOT-Bold'" font-size="36px">3</text>
</g>
<g>
	<g>
		<line fill="none" stroke="#333333" stroke-width="2" stroke-miterlimit="10" x1="1146.7" y1="372.2" x2="1146.7" y2="447.1"/>
		<g>
			<polygon fill="#333333" points="1146.7,457 1141,443.1 1146.7,446.4 1152.4,443.1 			"/>
		</g>
	</g>
</g>
<g>
	<g>
		<g>
			<path fill="#C6DD9F" d="M1255,525c0,1.1-0.9,2-2,2h-212c-1.1,0-2-0.9-2-2v-66c0-1.1,0.9-2,2-2h212c1.1,0,2,0.9,2,2V525z"/>
			<path fill="none" stroke="#333333" stroke-width="2" stroke-miterlimit="10" d="M1255,525c0,1.1-0.9,2-2,2h-212c-1.1,0-2-0.9-2-2
				v-66c0-1.1,0.9-2,2-2h212c1.1,0,2,0.9,2,2V525z"/>
		</g>
		<text transform="matrix(1 0 0 1 1062.5166 485.1086)"><tspan x="0" y="0" fill="#333333" font-family="'KievitOT-Medium'" font-size="22px">Stop and uninstall</tspan><tspan x="1.2" y="26.4" fill="#333333" font-family="'KievitOT-Medium'" font-size="22px">old Sync Gateway</tspan></text>
	</g>
	<g>
		<g>
			<path fill="#C6DD9F" d="M1255,631c0,1.1-0.9,2-2,2h-212c-1.1,0-2-0.9-2-2v-66c0-1.1,0.9-2,2-2h212c1.1,0,2,0.9,2,2V631z"/>
			<path fill="none" stroke="#333333" stroke-width="2" stroke-miterlimit="10" d="M1255,631c0,1.1-0.9,2-2,2h-212c-1.1,0-2-0.9-2-2
				v-66c0-1.1,0.9-2,2-2h212c1.1,0,2,0.9,2,2V631z"/>
		</g>
		<text transform="matrix(1 0 0 1 1073.5496 590.7987)"><tspan x="0" y="0" fill="#333333" font-family="'KievitOT-Medium'" font-size="22px">Install and start</tspan><tspan x="-14.5" y="26.4" fill="#333333" font-family="'KievitOT-Medium'" font-size="22px">new Sync Gateway</tspan></text>
	</g>
	<g>
		<g>
			<line fill="none" stroke="#333333" stroke-width="2" stroke-miterlimit="10" x1="1146.7" y1="528.2" x2="1146.7" y2="553.3"/>
			<g>
				<polygon fill="#333333" points="1146.7,563.2 1141,549.3 1146.7,552.6 1152.4,549.3 				"/>
			</g>
		</g>
	</g>
</g>
<g>
	<g>
		<line fill="none" stroke="#333333" stroke-width="2" stroke-miterlimit="10" x1="1353.6" y1="398" x2="1156.6" y2="398"/>
		<g>
			<polygon fill="#333333" points="1146.7,398 1160.6,392.3 1157.3,398 1160.6,403.7 			"/>
		</g>
	</g>
</g>
<g>
	<g>
		<line fill="none" stroke="#333333" stroke-width="2" stroke-miterlimit="10" x1="1146.7" y1="634.2" x2="1146.7" y2="669.8"/>
		<g>
			<polygon fill="#333333" points="1146.7,679.7 1141,665.7 1146.7,669 1152.4,665.7 			"/>
		</g>
	</g>
</g>
<g>
	<g>
		<line fill="none" stroke="#333333" stroke-width="2" stroke-miterlimit="10" x1="1146.7" y1="809.2" x2="1146.7" y2="868.2"/>
		<g>
			<polygon fill="#333333" points="1146.7,878.1 1141,864.2 1146.7,867.5 1152.4,864.2 			"/>
		</g>
	</g>
</g>
</svg>
