<?xml version="1.0" encoding="utf-8"?>
<!-- Generator: Adobe Illustrator 19.1.0, SVG Export Plug-In . SVG Version: 6.00 Build 0)  -->
<svg version="1.1" id="Layer_1" xmlns="http://www.w3.org/2000/svg" xmlns:xlink="http://www.w3.org/1999/xlink" x="0px" y="0px"
	 viewBox="840 212 669 730" enable-background="new 840 212 669 730" xml:space="preserve">
<path fill="#CCCCCC" d="M1316.6,603.6c0,0.7-0.9,1.2-2,1.2H846.1c-1.1,0-2-0.6-2-1.2V383.2c0-0.7,0.9-1.2,2-1.2h468.5
	c1.1,0,2,0.6,2,1.2V603.6z"/>
<g>
	<path fill="#FFE7A8" d="M1299.3,357c0,1.1-1.3,2-2.9,2H999.6c-1.6,0-2.9-0.9-2.9-2v-38.5c0-1.1,1.3-2,2.9-2h296.9
		c1.6,0,2.9,0.9,2.9,2V357z"/>
	<path fill="none" stroke="#333333" stroke-width="2" stroke-miterlimit="10" d="M1299.3,357c0,1.1-1.3,2-2.9,2H999.6
		c-1.6,0-2.9-0.9-2.9-2v-38.5c0-1.1,1.3-2,2.9-2h296.9c1.6,0,2.9,0.9,2.9,2V357z"/>
</g>
<text transform="matrix(1 0 0 1 1013.2856 344.0645)" fill="#333333" font-family="'KievitOT-Medium'" font-size="21.6978px">Redistribute traffic and verify</text>
<g>
	<path fill="#99DEF3" stroke="#333333" stroke-width="2" stroke-linecap="round" stroke-miterlimit="10" d="M1288.2,263.7h-279.6
		c-7.3,0-13.3-5.3-13.3-11.8v-20.7c0-6.5,6-11.8,13.3-11.8h279.6c7.3,0,13.3,5.3,13.3,11.8v20.7
		C1301.5,258.4,1295.5,263.7,1288.2,263.7z"/>
	<text transform="matrix(1 0 0 1 1012.688 247.7965)" fill="#333333" font-family="'KievitOT-Medium'" font-size="21.6978px">Upgrade without spare nodes</text>
</g>
<line fill="none" stroke="#333333" stroke-width="2" stroke-miterlimit="10" x1="1353.6" y1="288.7" x2="1353.6" y2="696.9"/>
<polygon fill="#EBAAAB" stroke="#333333" stroke-width="2" stroke-miterlimit="10" points="1275.9,697.4 1148.2,762.3 1020.1,699.5 
	1147.8,634.4 "/>
<text transform="matrix(1 0 0 1 1088.2726 693.9043)" fill="#333333" font-family="'KievitOT-Medium'" font-size="21.6978px">Are all nodes</text>
<text transform="matrix(1 0 0 1 1099.4901 719.9414)" fill="#333333" font-family="'KievitOT-Medium'" font-size="21.6978px">upgraded?</text>
<line fill="none" stroke="#333333" stroke-width="2" stroke-miterlimit="10" x1="1274" y1="697.4" x2="1353.6" y2="697.4"/>
<path fill="#99DEF3" stroke="#333333" stroke-width="2" stroke-linecap="round" stroke-miterlimit="10" d="M1241.9,935.2h-187.8
	c-6.5,0-11.8-5.3-11.8-11.8v-20.7c0-6.5,5.3-11.8,11.8-11.8h187.8c6.5,0,11.8,5.3,11.8,11.8v20.7
	C1253.7,929.8,1248.4,935.2,1241.9,935.2z"/>
<text transform="matrix(1 0 0 1 1062.864 921.2734)" fill="#333333" font-family="'KievitOT-Medium'" font-size="21.6978px">Upgrade complete</text>
<g>
	<path fill="#FFE7A8" d="M1299.3,845.4c0,1.1-1.3,2-2.9,2H999.6c-1.6,0-2.9-0.9-2.9-2V807c0-1.1,1.3-2,2.9-2h296.9
		c1.6,0,2.9,0.9,2.9,2V845.4z"/>
	<path fill="none" stroke="#333333" stroke-width="2" stroke-miterlimit="10" d="M1299.3,845.4c0,1.1-1.3,2-2.9,2H999.6
		c-1.6,0-2.9-0.9-2.9-2V807c0-1.1,1.3-2,2.9-2h296.9c1.6,0,2.9,0.9,2.9,2V845.4z"/>
</g>
<text transform="matrix(1 0 0 1 1013.2856 832.4844)" fill="#333333" font-family="'KievitOT-Medium'" font-size="21.6978px">Redistribute traffic and verify</text>
<text transform="matrix(1 0 0 1 1097.3169 782.5615)" fill="#333333" font-family="'KievitOT-Medium'" font-size="21.6978px">Yes</text>
<text transform="matrix(1 0 0 1 1295.5889 681.4844)" fill="#333333" font-family="'KievitOT-Medium'" font-size="21.6978px">No</text>
<text transform="matrix(1 0 0 1 1373.0244 460.0417)" fill="#333333" font-family="'KievitOT-Medium'" font-size="21.6978px">Repeat tasks</text>
<text transform="matrix(1 0 0 1 1373.0244 486.0788)" fill="#333333" font-family="'KievitOT-Medium'" font-size="21.6978px">for remaining</text>
<text transform="matrix(1 0 0 1 1373.0244 512.1164)" fill="#333333" font-family="'KievitOT-Medium'" font-size="21.6978px">Sync Gateway</text>
<text transform="matrix(1 0 0 1 1373.0244 538.1535)" fill="#333333" font-family="'KievitOT-Medium'" font-size="21.6978px">nodes</text>
<g>
	<g>
		<circle fill="#FF8900" cx="956" cy="337.8" r="18.8"/>
	</g>
	<text transform="matrix(1 0 0 1 948.6326 345.98)" fill="#FFFFFF" font-family="'KievitOT-Bold'" font-size="36px">1</text>
</g>
<g>
	<g>
		<circle fill="#FF8900" cx="957.8" cy="827.2" r="18.8"/>
	</g>
	<text transform="matrix(1 0 0 1 945.4381 832.3844)" fill="#FFFFFF" font-family="'KievitOT-Bold'" font-size="36px">4</text>
</g>
<g>
	<g>
		<circle fill="#FF8900" cx="880" cy="414.8" r="18.8"/>
	</g>
	<text transform="matrix(1 0 0 1 870.6327 422.98)" fill="#FFFFFF" font-family="'KievitOT-Bold'" font-size="36px">2</text>
</g>
<g>
	<g>
		<circle fill="#FF8900" cx="1246" cy="646.9" r="18.8"/>
	</g>
	<text transform="matrix(1 0 0 1 1238.6326 652.095)" fill="#FFFFFF" font-family="'KievitOT-Bold'" font-size="36px">3</text>
</g>
<text transform="matrix(1 0 0 1 860.0244 469.4321)" fill="#333333" font-family="'KievitOT-Medium'" font-size="21.6978px">On one</text>
<text transform="matrix(1 0 0 1 860.0244 495.4697)" fill="#333333" font-family="'KievitOT-Medium'" font-size="21.6978px">Sync Gateway</text>
<text transform="matrix(1 0 0 1 860.0244 521.5068)" fill="#333333" font-family="'KievitOT-Medium'" font-size="21.6978px">node</text>
<g>
	<g>
		<line fill="none" stroke="#333333" stroke-width="2" stroke-miterlimit="10" x1="1148" y1="265.2" x2="1148" y2="307.9"/>
		<g>
			<polygon fill="#333333" points="1148,317.8 1142.3,303.8 1148,307.2 1153.7,303.8 			"/>
		</g>
	</g>
</g>
<g>
	<g>
		<line fill="none" stroke="#333333" stroke-width="2" stroke-miterlimit="10" x1="1353.6" y1="289.2" x2="1159.5" y2="289.2"/>
		<g>
			<polygon fill="#333333" points="1149.6,289.2 1163.5,283.5 1160.2,289.2 1163.5,294.9 			"/>
		</g>
	</g>
</g>
<g>
	<g>
		<line fill="none" stroke="#333333" stroke-width="2" stroke-miterlimit="10" x1="1148" y1="360" x2="1148" y2="395.3"/>
		<g>
			<polygon fill="#333333" points="1148,405.2 1142.3,391.3 1148,394.6 1153.7,391.3 			"/>
		</g>
	</g>
</g>
<g>
	<g>
		<g>
			<path fill="#C6DD9F" d="M1256,474c0,1.1-0.9,2-2,2h-212c-1.1,0-2-0.9-2-2v-66c0-1.1,0.9-2,2-2h212c1.1,0,2,0.9,2,2V474z"/>
			<path fill="none" stroke="#333333" stroke-width="2" stroke-miterlimit="10" d="M1256,474c0,1.1-0.9,2-2,2h-212c-1.1,0-2-0.9-2-2
				v-66c0-1.1,0.9-2,2-2h212c1.1,0,2,0.9,2,2V474z"/>
		</g>
		<text transform="matrix(1 0 0 1 1063.8459 434.1086)"><tspan x="0" y="0" fill="#333333" font-family="'KievitOT-Medium'" font-size="22px">Stop and uninstall</tspan><tspan x="1.2" y="26.4" fill="#333333" font-family="'KievitOT-Medium'" font-size="22px">old Sync Gateway</tspan></text>
	</g>
	<g>
		<g>
			<path fill="#C6DD9F" d="M1256,580c0,1.1-0.9,2-2,2h-212c-1.1,0-2-0.9-2-2v-66c0-1.1,0.9-2,2-2h212c1.1,0,2,0.9,2,2V580z"/>
			<path fill="none" stroke="#333333" stroke-width="2" stroke-miterlimit="10" d="M1256,580c0,1.1-0.9,2-2,2h-212c-1.1,0-2-0.9-2-2
				v-66c0-1.1,0.9-2,2-2h212c1.1,0,2,0.9,2,2V580z"/>
		</g>
		<text transform="matrix(1 0 0 1 1074.8788 539.7987)"><tspan x="0" y="0" fill="#333333" font-family="'KievitOT-Medium'" font-size="22px">Install and start</tspan><tspan x="-14.5" y="26.4" fill="#333333" font-family="'KievitOT-Medium'" font-size="22px">new Sync Gateway</tspan></text>
	</g>
	<g>
		<g>
			<line fill="none" stroke="#333333" stroke-width="2" stroke-miterlimit="10" x1="1148" y1="477.2" x2="1148" y2="502.3"/>
			<g>
				<polygon fill="#333333" points="1148,512.2 1142.3,498.3 1148,501.6 1153.7,498.3 				"/>
			</g>
		</g>
	</g>
</g>
<g>
	<g>
		<line fill="none" stroke="#333333" stroke-width="2" stroke-miterlimit="10" x1="1148" y1="582" x2="1148" y2="625.2"/>
		<g>
			<polygon fill="#333333" points="1148,635.1 1142.3,621.2 1148,624.5 1153.7,621.2 			"/>
		</g>
	</g>
</g>
<g>
	<g>
		<line fill="none" stroke="#333333" stroke-width="2" stroke-miterlimit="10" x1="1148" y1="760.5" x2="1148" y2="795.3"/>
		<g>
			<polygon fill="#333333" points="1148,805.2 1142.3,791.3 1148,794.6 1153.7,791.3 			"/>
		</g>
	</g>
</g>
<g>
	<g>
		<line fill="none" stroke="#333333" stroke-width="2" stroke-miterlimit="10" x1="1148" y1="848" x2="1148" y2="881.1"/>
		<g>
			<polygon fill="#333333" points="1148,891 1142.3,877 1148,880.3 1153.7,877 			"/>
		</g>
	</g>
</g>
</svg>
