<?xml version="1.0" encoding="utf-8"?>
<!-- Generator: Adobe Illustrator 19.1.0, SVG Export Plug-In . SVG Version: 6.00 Build 0)  -->
<svg version="1.1" id="Layer_1" xmlns="http://www.w3.org/2000/svg" xmlns:xlink="http://www.w3.org/1999/xlink" x="0px" y="0px"
	 viewBox="0 0 1196.3 668" enable-background="new 0 0 1196.3 668" xml:space="preserve">
<g>
	<path fill="#C6DD9F" d="M829,642c0,1.1-0.9,2-2,2H547c-1.1,0-2-0.9-2-2V66c0-1.1,0.9-2,2-2h280c1.1,0,2,0.9,2,2V642z"/>
</g>
<g>
	<path fill="#FFE7A8" d="M528,641c0,1.1-0.9,2-2,2H237c-1.1,0-2-0.9-2-2V66c0-1.1,0.9-2,2-2h289c1.1,0,2,0.9,2,2V641z"/>
</g>
<g>
	<path fill="none" stroke="#7F7F7F" stroke-width="4" stroke-miterlimit="10" d="M1190,661c0,1.1-0.9,2-2,2H217c-1.1,0-2-0.9-2-2V44
		c0-1.1,0.9-2,2-2h971c1.1,0,2,0.9,2,2V661z"/>
</g>
<text transform="matrix(1 0 0 1 1029.3333 77.0116)" fill="#7F7F7F" font-family="'KievitOT-Bold'" font-size="28px">Data Center</text>
<g>
	<path fill="#FFFFFF" d="M457,613c0,1.1-0.9,2-2,2H288c-1.1,0-2-0.9-2-2V186c0-1.1,0.9-2,2-2h167c1.1,0,2,0.9,2,2V613z"/>
	<path fill="none" stroke="#333333" stroke-width="4" stroke-miterlimit="10" d="M457,613c0,1.1-0.9,2-2,2H288c-1.1,0-2-0.9-2-2V186
		c0-1.1,0.9-2,2-2h167c1.1,0,2,0.9,2,2V613z"/>
</g>
<text transform="matrix(1 0 0 1 285.5668 169.8567)" fill="#333333" font-family="'KievitOT-Bold'" font-size="26px">Reverse Proxy</text>
<g>
	<path fill="#FFFFFF" d="M773,268c0,1.1-0.9,2-2,2H583c-1.1,0-2-0.9-2-2v-82c0-1.1,0.9-2,2-2h188c1.1,0,2,0.9,2,2V268z"/>
	<path fill="none" stroke="#333333" stroke-width="4" stroke-miterlimit="10" d="M773,268c0,1.1-0.9,2-2,2H583c-1.1,0-2-0.9-2-2v-82
		c0-1.1,0.9-2,2-2h188c1.1,0,2,0.9,2,2V268z"/>
</g>
<g>
	<g>
		<path fill="#FFFFFF" stroke="#333333" stroke-width="4" stroke-miterlimit="10" d="M117,344.8H44.5c-9.8,0-17.7-6.9-17.7-16.7
			V145.5c0-9.8,7.9-16.7,17.7-16.7H117c9.8,0,17.7,6.9,17.7,16.7v182.6C134.7,337.9,126.8,344.8,117,344.8z"/>
		<path fill="#FFFFFF" stroke="#333333" stroke-miterlimit="10" d="M89.2,152.8H73.4c-0.9,0-1.7-0.8-1.7-1.7v0
			c0-0.9,0.8-1.7,1.7-1.7h15.8c0.9,0,1.7,0.8,1.7,1.7v0C90.9,152.1,90.1,152.8,89.2,152.8z"/>
		<rect x="36" y="160" fill="#FFFFFF" stroke="#333333" stroke-width="2" stroke-miterlimit="10" width="90" height="147"/>
		<circle fill="#FFFFFF" stroke="#333333" stroke-width="2" stroke-miterlimit="10" cx="81.5" cy="325.7" r="10.2"/>
		<circle fill="#FFFFFF" stroke="#333333" stroke-miterlimit="10" cx="81.5" cy="141.8" r="2.5"/>
		<g>
			<path fill="#FFFFFF" stroke="#333333" stroke-width="2" stroke-miterlimit="10" d="M102,219.3c0-5.5-9.7-9.9-22-9.9
				s-22,4.4-22,9.9V249c0,5.5,9.7,9.9,22,9.9s22-4.4,22-9.9V219.3z"/>
			<g>
				<path fill="#333333" d="M102.8,219.4c0,0,0,0.1,0,0.3c0,0.2,0,0.4-0.1,0.9c-0.3,1-0.8,2.1-1.9,3.3c-1.1,1.1-2.6,2.1-4.4,2.9
					c-1.8,0.8-4,1.5-6.4,1.9c-2.4,0.4-5,0.7-7.7,0.8c-2.8,0.1-5.6,0-8.6-0.4c-3-0.4-6.1-1-9-2.3c-1.5-0.6-2.9-1.5-4.2-2.7
					c-0.3-0.3-0.6-0.6-0.9-1c-0.3-0.3-0.5-0.7-0.7-1.1c-0.3-0.4-0.4-0.9-0.5-1.3c-0.1-0.2-0.1-0.5-0.1-0.7l0-0.4l0-0.2l0-0.1l0,0
					c0-0.1,0,0.1,0-0.2c0.1-0.4,0-0.7,0.2-1.2c0.2-0.5,0.3-1,0.5-1.4c0.2-0.4,0.4-0.8,0.7-1.2c0.3-0.4,0.5-0.7,0.9-1
					c1.2-1.2,2.7-2.2,4.2-2.9c3-1.5,6.1-2.2,9.1-2.7c3-0.5,6-0.6,8.8-0.5c2.8,0.1,5.4,0.5,7.8,1.1c4.8,1.1,8.6,3,10.7,5.3
					c1.1,1.2,1.6,2.4,1.8,3.2c0.1,0.4,0.1,0.8,0.1,1c0,0.2,0,0.4,0,0.4L102.8,219.4z M100.8,219.3c0,0,0-0.1,0-0.2
					c0-0.1,0-0.4-0.1-0.7c-0.2-0.6-0.5-1.4-1.4-2.3c-1.7-1.8-5.2-3.6-9.7-4.6c-2.3-0.5-4.8-0.8-7.4-0.9c-2.7-0.1-5.5,0-8.4,0.4
					c-2.9,0.4-5.8,1.1-8.5,2.4c-1.4,0.6-2.6,1.4-3.6,2.4c-0.3,0.2-0.5,0.5-0.7,0.8c-0.2,0.3-0.4,0.6-0.5,0.8
					c-0.2,0.3-0.2,0.5-0.3,0.8c-0.1,0.1-0.1,0.4-0.1,0.5l-0.1,0.6c0-0.2,0,0,0-0.1l0,0l0,0.1l0,0.1l0,0.2c0,0.2,0,0.3,0.1,0.5
					c0.1,0.3,0.1,0.6,0.3,0.9c0.2,0.3,0.3,0.6,0.5,0.9c0.2,0.3,0.4,0.6,0.7,0.8c1,1,2.2,1.9,3.6,2.6c2.7,1.4,5.6,2.3,8.5,2.9
					c2.9,0.5,5.8,0.7,8.5,0.5c2.7-0.1,5.3-0.5,7.5-1.2c2.3-0.6,4.3-1.4,5.9-2.3c1.6-0.9,2.9-1.9,3.7-2.8c0.8-1,1.2-1.8,1.3-2.3
					c0.1-0.3,0.1-0.6,0.1-0.8c0-0.2,0-0.3,0-0.3L100.8,219.3z"/>
			</g>
		</g>
		<g>
			<g>
				<circle fill="#CC2A2E" cx="98" cy="252.5" r="11.8"/>
			</g>
			<path fill="#FFFFFF" d="M104.8,248.5c-0.4-0.1-1.4-0.1-2.1-0.1c-0.3,0-0.5,0.2-0.5,0.6c0,0,0,3.2,0,3.2c-1.4,0-2.7-0.1-4.1-0.1
				c-1.4,0-2.7,0.1-4.1,0.1c0,0,0-3.2,0-3.2c0-0.3-0.2-0.6-0.5-0.6c-0.7,0-1.7,0.1-2.1,0.1c-0.7,0.1-1.2,0.8-1.2,1.5
				c0,1.5,0,3.1,0,4.6c0,0.7,0.4,1.3,1.2,1.5c1.4,0.2,4.3,0.4,6.8,0.4c2.4,0,5.4-0.1,6.8-0.4c0.8-0.1,1.2-0.8,1.2-1.5
				c0-1.5,0-3.1,0-4.6C106,249.3,105.4,248.6,104.8,248.5z"/>
		</g>
	</g>
	<g>
		<path fill="#FFFFFF" stroke="#333333" stroke-width="4" stroke-miterlimit="10" d="M117,596.8H44.5c-9.8,0-17.7-6.9-17.7-16.7
			V397.5c0-9.8,7.9-16.7,17.7-16.7H117c9.8,0,17.7,6.9,17.7,16.7v182.6C134.7,589.9,126.8,596.8,117,596.8z"/>
		<path fill="#FFFFFF" stroke="#333333" stroke-miterlimit="10" d="M89.2,404.8H73.4c-0.9,0-1.7-0.8-1.7-1.7l0,0
			c0-0.9,0.8-1.7,1.7-1.7h15.8c0.9,0,1.7,0.8,1.7,1.7l0,0C90.9,404.1,90.1,404.8,89.2,404.8z"/>
		<rect x="36" y="412" fill="#FFFFFF" stroke="#333333" stroke-width="2" stroke-miterlimit="10" width="90" height="147"/>
		<circle fill="#FFFFFF" stroke="#333333" stroke-width="2" stroke-miterlimit="10" cx="81.5" cy="577.7" r="10.2"/>
		<circle fill="#FFFFFF" stroke="#333333" stroke-miterlimit="10" cx="81.5" cy="393.8" r="2.5"/>
		<g>
			<path fill="#FFFFFF" stroke="#333333" stroke-width="2" stroke-miterlimit="10" d="M102,471.3c0-5.5-9.7-9.9-22-9.9
				s-22,4.4-22,9.9V501c0,5.5,9.7,9.9,22,9.9s22-4.4,22-9.9V471.3z"/>
			<g>
				<path fill="#333333" d="M102.8,471.4c0,0,0,0.1,0,0.3c0,0.2,0,0.4-0.1,0.9c-0.3,1-0.8,2.1-1.9,3.3c-1.1,1.1-2.6,2.1-4.4,2.9
					c-1.8,0.8-4,1.5-6.4,1.9c-2.4,0.4-5,0.7-7.7,0.8c-2.8,0.1-5.6,0-8.6-0.4c-3-0.4-6.1-1-9-2.3c-1.5-0.6-2.9-1.5-4.2-2.7
					c-0.3-0.3-0.6-0.6-0.9-1c-0.3-0.3-0.5-0.7-0.7-1.1c-0.3-0.4-0.4-0.9-0.5-1.3c-0.1-0.2-0.1-0.5-0.1-0.7l0-0.4l0-0.2l0-0.1l0,0
					c0-0.1,0,0.1,0-0.2c0.1-0.4,0-0.7,0.2-1.2c0.2-0.5,0.3-1,0.5-1.4c0.2-0.4,0.4-0.8,0.7-1.2c0.3-0.4,0.5-0.7,0.9-1
					c1.2-1.2,2.7-2.2,4.2-2.9c3-1.5,6.1-2.2,9.1-2.7c3-0.5,6-0.6,8.8-0.5c2.8,0.1,5.4,0.5,7.8,1.1c4.8,1.1,8.6,3,10.7,5.3
					c1.1,1.2,1.6,2.4,1.8,3.2c0.1,0.4,0.1,0.8,0.1,1c0,0.2,0,0.4,0,0.4L102.8,471.4z M100.8,471.3c0,0,0-0.1,0-0.2
					c0-0.1,0-0.4-0.1-0.7c-0.2-0.6-0.5-1.4-1.4-2.3c-1.7-1.8-5.2-3.6-9.7-4.6c-2.3-0.5-4.8-0.8-7.4-0.9c-2.7-0.1-5.5,0-8.4,0.4
					c-2.9,0.4-5.8,1.1-8.5,2.4c-1.4,0.6-2.6,1.4-3.6,2.4c-0.3,0.2-0.5,0.5-0.7,0.8c-0.2,0.3-0.4,0.6-0.5,0.8
					c-0.2,0.3-0.2,0.5-0.3,0.8c-0.1,0.1-0.1,0.4-0.1,0.5l-0.1,0.6c0-0.2,0,0,0-0.1l0,0l0,0.1l0,0.1l0,0.2c0,0.2,0,0.3,0.1,0.5
					c0.1,0.3,0.1,0.6,0.3,0.9c0.2,0.3,0.3,0.6,0.5,0.9c0.2,0.3,0.4,0.6,0.7,0.8c1,1,2.2,1.9,3.6,2.6c2.7,1.4,5.6,2.3,8.5,2.9
					c2.9,0.5,5.8,0.7,8.5,0.5c2.7-0.1,5.3-0.5,7.5-1.2c2.3-0.6,4.3-1.4,5.9-2.3c1.6-0.9,2.9-1.9,3.7-2.8c0.8-1,1.2-1.8,1.3-2.3
					c0.1-0.3,0.1-0.6,0.1-0.8c0-0.2,0-0.3,0-0.3L100.8,471.3z"/>
			</g>
		</g>
		<g>
			<g>
				<circle fill="#CC2A2E" cx="98" cy="504.5" r="11.8"/>
			</g>
			<path fill="#FFFFFF" d="M104.8,500.5c-0.4-0.1-1.4-0.1-2.1-0.1c-0.3,0-0.5,0.2-0.5,0.6c0,0,0,3.2,0,3.2c-1.4,0-2.7-0.1-4.1-0.1
				c-1.4,0-2.7,0.1-4.1,0.1c0,0,0-3.2,0-3.2c0-0.3-0.2-0.6-0.5-0.6c-0.7,0-1.7,0.1-2.1,0.1c-0.7,0.1-1.2,0.8-1.2,1.5
				c0,1.5,0,3.1,0,4.6c0,0.7,0.4,1.3,1.2,1.5c1.4,0.2,4.3,0.4,6.8,0.4c2.4,0,5.4-0.1,6.8-0.4c0.8-0.1,1.2-0.8,1.2-1.5
				c0-1.5,0-3.1,0-4.6C106,501.3,105.4,500.6,104.8,500.5z"/>
		</g>
	</g>
</g>
<g>
	<g>
		<line fill="none" stroke="#333333" stroke-width="3" stroke-miterlimit="10" x1="151.8" y1="169.1" x2="267.6" y2="212.1"/>
		<g>
			<polygon fill="#333333" points="135.9,163.2 154.9,180.7 153,169.5 161.7,162.4 			"/>
		</g>
		<g>
			<polygon fill="#333333" points="283.5,218 257.7,218.8 266.4,211.6 264.5,200.5 			"/>
		</g>
	</g>
</g>
<g>
	<g>
		<line fill="none" stroke="#333333" stroke-width="3" stroke-miterlimit="10" x1="148.7" y1="387.8" x2="271.8" y2="250.4"/>
		<g>
			<polygon fill="#333333" points="137.4,400.5 160.6,389.2 149.6,386.9 146.1,376.2 			"/>
		</g>
		<g>
			<polygon fill="#333333" points="283.1,237.8 274.5,262.1 271,251.3 259.9,249 			"/>
		</g>
	</g>
</g>
<g>
	<g>
		<line fill="none" stroke="#333333" stroke-width="3" stroke-miterlimit="10" x1="307.5" y1="228" x2="439.1" y2="228"/>
		<g>
			<polygon fill="#333333" points="290.6,228 314.4,237.8 308.8,228 314.4,218.2 			"/>
		</g>
		<g>
			<polygon fill="#333333" points="456,228 432.1,237.8 437.8,228 432.1,218.2 			"/>
		</g>
	</g>
</g>
<g>
	<g>
		<path fill="none" stroke="#333333" stroke-width="3" stroke-miterlimit="10" d="M383.8,297.5c0,49.1,23.2,90.2,54.5,101.2"/>
		<g>
			<polygon fill="#333333" points="455,401.6 429.7,406.6 437.1,398.1 433.4,387.4 			"/>
		</g>
	</g>
</g>
<text transform="matrix(1 0 0 1 7.2642 24.1102)"><tspan x="0" y="0" fill="#333333" font-family="'KievitOT-Bold'" font-size="26px">Couchbase Lite</tspan><tspan x="0" y="31.2" fill="#333333" font-family="'KievitOT-Bold'" font-size="26px">Apps and</tspan><tspan x="0" y="62.4" fill="#333333" font-family="'KievitOT-Bold'" font-size="26px">Databases</tspan></text>
<g>
	<g>
		<line fill="#71AB0F" x1="420" y1="413.2" x2="420" y2="469.3"/>
		<g>
			<line fill="none" stroke="#71AB0F" stroke-width="25" stroke-miterlimit="10" x1="420" y1="447.3" x2="420" y2="469.3"/>
			<g>
				<polygon fill="#71AB0F" points="396.3,454.2 420,413.2 443.7,454.2 				"/>
			</g>
		</g>
	</g>
	<text transform="matrix(1 0 0 1 410.1212 484.5496)" fill="#333333" font-family="'KievitOT-Bold'" font-size="18px">up</text>
</g>
<g>
	<g>
		<line fill="#71AB0F" x1="420" y1="256.1" x2="420" y2="312.2"/>
		<g>
			<line fill="none" stroke="#71AB0F" stroke-width="25" stroke-miterlimit="10" x1="420" y1="290.2" x2="420" y2="312.2"/>
			<g>
				<polygon fill="#71AB0F" points="396.3,297.1 420,256.1 443.7,297.1 				"/>
			</g>
		</g>
	</g>
	<text transform="matrix(1 0 0 1 410.1211 327.4091)" fill="#333333" font-family="'KievitOT-Bold'" font-size="18px">up</text>
</g>
<text transform="matrix(1 0 0 1 582.1211 169.8564)" fill="#333333" font-family="'KievitOT-Bold'" font-size="26px">Sync Gateway 1</text>
<g>
	<g>
		<line fill="none" stroke="#333333" stroke-width="3" stroke-miterlimit="10" x1="478.9" y1="228" x2="562.1" y2="228"/>
		<g>
			<polygon fill="#333333" points="462,228 485.9,237.8 480.2,228 485.9,218.2 			"/>
		</g>
		<g>
			<polygon fill="#333333" points="579,228 555.1,237.8 560.8,228 555.1,218.2 			"/>
		</g>
	</g>
</g>
<text transform="matrix(1 0 0 1 471.597 205.0002)" fill="#00ACE0" font-family="'KievitOT-Bold'" font-size="22px">4984</text>
<text transform="matrix(1 0 0 1 593.5669 210.0002)" fill="#00ACE0" font-family="'KievitOT-Bold'" font-size="22px">172.20.30.41</text>
<g>
	<g>
		<circle fill="#CC2A2E" cx="770.7" cy="269.7" r="24"/>
	</g>
	<path fill="#FFFFFF" d="M784.4,261.5c-0.8-0.1-2.8-0.3-4.3-0.3c-0.6,0-1,0.5-1,1.1c0,0,0,6.6,0,6.6c-2.9,0-5.5-0.2-8.4-0.2
		c-2.9,0-5.5,0.2-8.4,0.2c0,0,0-6.6,0-6.6c0-0.7-0.5-1.1-1-1.1c-1.5,0-3.5,0.1-4.3,0.3c-1.4,0.2-2.5,1.6-2.5,3c0,3.1,0,6.2,0,9.4
		c0,1.4,0.8,2.7,2.5,3c2.8,0.5,8.8,0.8,13.8,0.8c5,0,10.9-0.3,13.8-0.8c1.6-0.3,2.5-1.6,2.5-3c0-3.1,0-6.2,0-9.4
		C786.9,263.1,785.8,261.7,784.4,261.5z"/>
</g>
<text transform="matrix(1 0 0 1 471.5972 256.6095)" fill="#71AB0F" font-family="'KievitOT-Bold'" font-size="24px">50%</text>
<g>
	<path fill="#FFFFFF" d="M773,441c0,1.1-0.9,2-2,2H583c-1.1,0-2-0.9-2-2v-82c0-1.1,0.9-2,2-2h188c1.1,0,2,0.9,2,2V441z"/>
	<path fill="none" stroke="#333333" stroke-width="4" stroke-miterlimit="10" d="M773,441c0,1.1-0.9,2-2,2H583c-1.1,0-2-0.9-2-2v-82
		c0-1.1,0.9-2,2-2h188c1.1,0,2,0.9,2,2V441z"/>
</g>
<text transform="matrix(1 0 0 1 582.1211 342.9818)" fill="#333333" font-family="'KievitOT-Bold'" font-size="26px">Sync Gateway 2</text>
<g>
	<g>
		<circle fill="#CC2A2E" cx="770.7" cy="442.7" r="24"/>
	</g>
	<path fill="#FFFFFF" d="M784.4,434.5c-0.8-0.1-2.8-0.3-4.3-0.3c-0.6,0-1,0.5-1,1.1c0,0,0,6.6,0,6.6c-2.9,0-5.5-0.2-8.4-0.2
		c-2.9,0-5.5,0.2-8.4,0.2c0,0,0-6.6,0-6.6c0-0.7-0.5-1.1-1-1.1c-1.5,0-3.5,0.1-4.3,0.3c-1.4,0.2-2.5,1.6-2.5,3c0,3.1,0,6.2,0,9.4
		c0,1.4,0.8,2.7,2.5,3c2.8,0.5,8.8,0.8,13.8,0.8c5,0,10.9-0.3,13.8-0.8c1.6-0.3,2.5-1.6,2.5-3c0-3.1,0-6.2,0-9.4
		C786.9,436.1,785.8,434.7,784.4,434.5z"/>
</g>
<g>
	<g>
		<line fill="none" stroke="#333333" stroke-width="3" stroke-miterlimit="10" x1="476.9" y1="400.2" x2="560" y2="400.2"/>
		<g>
			<polygon fill="#333333" points="460,400.2 483.8,409.9 478.2,400.2 483.8,390.4 			"/>
		</g>
		<g>
			<polygon fill="#333333" points="577,400.2 553.1,409.9 558.8,400.2 553.1,390.4 			"/>
		</g>
	</g>
</g>
<text transform="matrix(1 0 0 1 596.5669 382.9418)" fill="#00ACE0" font-family="'KievitOT-Bold'" font-size="22px">172.20.30.42</text>
<text transform="matrix(1 0 0 1 471.597 428.4306)" fill="#71AB0F" font-family="'KievitOT-Bold'" font-size="24px">50%</text>
<text transform="matrix(1 0 0 1 471.5973 377.933)" fill="#00ACE0" font-family="'KievitOT-Bold'" font-size="22px">4984</text>
<g>
	<path fill="#FFFFFF" d="M1135,615c0,1.1-0.9,2-2,2H865c-1.1,0-2-0.9-2-2V128c0-1.1,0.9-2,2-2h268c1.1,0,2,0.9,2,2V615z"/>
	<path fill="none" stroke="#333333" stroke-width="4" stroke-miterlimit="10" d="M1135,615c0,1.1-0.9,2-2,2H865c-1.1,0-2-0.9-2-2
		V128c0-1.1,0.9-2,2-2h268c1.1,0,2,0.9,2,2V615z"/>
</g>
<text transform="matrix(1 0 0 1 883.3333 165.7225)"><tspan x="0" y="0" fill="#333333" font-family="'KievitOT-Bold'" font-size="26px">Couchbase Server</tspan><tspan x="0" y="31.2" fill="#333333" font-family="'KievitOT-Bold'" font-size="26px">Cluster</tspan></text>
<text transform="matrix(1 0 0 1 983.1292 294.899)" fill="#333333" font-family="'KievitOT-Bold'" font-size="26px">Node 1</text>
<text transform="matrix(1 0 0 1 983.1292 565.8989)" fill="#333333" font-family="'KievitOT-Bold'" font-size="26px">Node 2</text>
<g>
	<path fill="none" stroke="#333333" stroke-width="4" stroke-miterlimit="10" d="M1107,357c0,1.1-0.9,2-2,2H975c-1.1,0-2-0.9-2-2
		v-92c0-1.1,0.9-2,2-2h130c1.1,0,2,0.9,2,2V357z"/>
</g>
<g>
	<g>
		<path fill="#FFFFFF" stroke="#333333" stroke-width="4" stroke-miterlimit="10" d="M1095,397.8c0-8.8-24.9-15.9-55.7-15.9
			c-30.7,0-55.7,7.1-55.7,15.9v47.7c0,8.8,24.9,15.9,55.7,15.9c30.7,0,55.7-7.1,55.7-15.9V397.8z"/>
		<g>
			<path fill="#333333" d="M1096.3,398c0,0,0,0.2-0.1,0.7c0,0.1,0,0.3-0.1,0.5c-0.1,0.2-0.1,0.5-0.2,0.7c-0.1,0.3-0.2,0.4-0.3,0.7
				c-0.1,0.2-0.2,0.5-0.4,0.7c-1.1,2-3.4,4-6.5,5.5c-3.1,1.6-7,2.9-11.5,4c-4.5,1-9.7,1.9-15.3,2.4c-5.6,0.6-11.7,0.8-18.2,1
				c-6.5,0.1-13.3,0-20.3-0.5c-7-0.4-14.3-1.2-21.7-2.8c-3.7-0.8-7.3-1.9-10.9-3.6c-1.8-0.8-3.5-1.9-5.2-3.3
				c-0.8-0.7-1.6-1.5-2.2-2.6c-0.6-1-1.1-2.3-1.1-3.7l0.1-0.9c0-0.1,0-0.3,0.1-0.5l0.1-0.5c0.1-0.4,0.2-0.7,0.3-0.9
				c0.1-0.3,0.3-0.6,0.4-0.8c0.6-1.1,1.4-1.9,2.2-2.6c1.6-1.5,3.3-2.5,5.1-3.4c3.5-1.8,7.2-3,10.8-4c7.3-2,14.6-3.1,21.7-3.7
				c7.1-0.6,14-0.8,20.5-0.7c6.5,0.2,12.7,0.6,18.3,1.4c5.7,0.7,10.8,1.8,15.3,3c4.5,1.2,8.4,2.7,11.5,4.4c3.1,1.7,5.4,3.7,6.5,5.7
				c0.6,1,0.8,1.9,0.9,2.6c0.1,0.6,0.1,1,0.1,1L1096.3,398z M1092.3,397.8c-0.1,0,0.1-0.5-0.5-1.6c-0.6-1.1-2.2-2.6-4.9-4.1
				c-2.7-1.4-6.3-2.8-10.6-3.9c-4.3-1.1-9.3-2.1-14.8-2.8c-5.5-0.7-11.5-1.1-17.9-1.3c-6.4-0.1-13.1,0-20,0.6
				c-6.9,0.6-14,1.6-21,3.4c-3.5,0.9-6.9,2-10.1,3.6c-1.6,0.8-3,1.7-4.2,2.7c-0.6,0.5-1.1,1.1-1.4,1.7c-0.1,0.1-0.2,0.3-0.2,0.4
				c-0.1,0.1-0.1,0.3-0.1,0.4c0,0,0,0.1,0,0.1c0,0.1,0,0.1-0.1,0.2l0,0.4l0,0.2l0,0.1c0,0,0,0.2,0-0.1c0,1,0.7,2.3,1.9,3.4
				c1.2,1.1,2.7,2,4.2,2.9c3.1,1.7,6.6,2.9,10,4c7,2.1,14.1,3.4,21,4.2c7,0.8,13.8,1,20.2,0.8c6.4-0.2,12.5-0.8,18-1.7
				c5.5-0.9,10.5-2.1,14.8-3.4c2.1-0.7,4.1-1.4,5.9-2.1c1.8-0.7,3.3-1.5,4.7-2.2c2.7-1.5,4.3-3.1,4.9-4.2c0.1-0.3,0.2-0.5,0.3-0.7
				c0-0.1,0-0.1,0-0.2c0-0.1,0-0.1,0.1-0.2c0-0.5,0.1-0.7,0.1-0.7L1092.3,397.8z"/>
		</g>
	</g>
	<text transform="matrix(1 0 0 1 1008.093 437.2274)" fill="#333333" font-family="'KievitOT-Bold'" font-size="21px">Bucket</text>
</g>
<g>
	<g>
		<circle fill="#CC2A2E" cx="1134.7" cy="616.4" r="24"/>
	</g>
	<path fill="#FFFFFF" d="M1148.4,608.2c-0.8-0.1-2.8-0.3-4.3-0.3c-0.6,0-1,0.5-1,1.1c0,0,0,6.6,0,6.6c-2.9,0-5.5-0.2-8.4-0.2
		c-2.9,0-5.5,0.2-8.4,0.2c0,0,0-6.6,0-6.6c0-0.7-0.5-1.1-1-1.1c-1.5,0-3.5,0.1-4.3,0.3c-1.4,0.2-2.5,1.6-2.5,3c0,3.1,0,6.2,0,9.4
		c0,1.4,0.8,2.7,2.5,3c2.8,0.5,8.8,0.8,13.8,0.8c5,0,10.9-0.3,13.8-0.8c1.6-0.3,2.5-1.6,2.5-3c0-3.1,0-6.2,0-9.4
		C1150.9,609.8,1149.8,608.4,1148.4,608.2z"/>
</g>
<g>
	<path fill="none" stroke="#333333" stroke-width="4" stroke-miterlimit="10" d="M1107,577c0,1.1-0.9,2-2,2H975c-1.1,0-2-0.9-2-2
		v-92c0-1.1,0.9-2,2-2h130c1.1,0,2,0.9,2,2V577z"/>
</g>
<g>
	<g>
		<path fill="#FFFFFF" stroke="#333333" stroke-width="3" stroke-miterlimit="10" d="M1033.5,313.7c0-4.3-6.9-7.8-15.5-7.8
			s-15.5,3.5-15.5,7.8V337c0,4.3,6.9,7.8,15.5,7.8s15.5-3.5,15.5-7.8V313.7z"/>
		<g>
			<path fill="#333333" d="M1034.7,313.8c0,0,0,0.3-0.1,0.9c-0.2,0.9-0.6,1.9-1.5,2.8c-0.8,0.9-2,1.8-3.4,2.4
				c-1.4,0.6-3,1.1-4.8,1.4c-1.8,0.3-3.7,0.5-5.7,0.5c-1,0-2.1,0-3.1,0c-1.1-0.1-2.2-0.1-3.3-0.2c-2.2-0.3-4.6-0.6-6.8-1.7
				c-1.1-0.5-2.3-1.1-3.2-2.2c-0.5-0.5-0.9-1.1-1.3-1.8c-0.2-0.3-0.3-0.7-0.4-1.1c-0.1-0.2-0.1-0.4-0.1-0.6l0-0.3l0-0.1l0-0.1l0,0
				c0-0.1,0,0.1,0-0.2c0-0.3,0-0.5,0.1-0.9c0.1-0.4,0.2-0.9,0.4-1.3c0.3-0.7,0.7-1.3,1.2-1.9c0.9-1.1,2-1.9,3.1-2.5
				c2.2-1.3,4.6-1.9,6.9-2.3c2.3-0.4,4.6-0.5,6.6-0.4c2.2,0.1,4.1,0.4,6,0.9c3.6,0.9,6.5,2.6,8.1,4.6c0.8,1,1.2,2.1,1.3,2.8
				c0.1,0.7,0.1,1.1,0.1,1.1L1034.7,313.8z M1031.7,313.7c0,0,0-0.2-0.1-0.5c-0.1-0.3-0.3-0.8-0.8-1.4c-0.5-0.6-1.3-1.3-2.4-1.8
				c-1.1-0.6-2.5-1.1-4.1-1.5c-1.6-0.4-3.4-0.6-5.2-0.7c-2-0.1-3.9,0-6,0.3c-1,0.2-2,0.4-3,0.7c-1,0.3-2,0.7-2.9,1.1
				c-0.9,0.5-1.7,1-2.4,1.7c-0.3,0.3-0.6,0.7-0.7,1c-0.1,0.2-0.1,0.3-0.2,0.4c-0.1,0.2-0.1,0.6-0.1,0.8c0-0.3,0-0.1,0-0.1l0,0l0,0
				l0,0.1l0,0.1c0,0.1,0,0.2,0,0.3c0.1,0.2,0.1,0.4,0.2,0.6c0.2,0.4,0.4,0.8,0.7,1.1c0.6,0.8,1.4,1.4,2.3,2c1.8,1.2,3.9,2,6,2.5
				c1.1,0.2,2.1,0.4,3.1,0.5c0.5,0,1,0,1.6,0.1c0.5,0,1,0,1.5,0c2-0.1,3.8-0.5,5.4-1.1c1.6-0.6,3-1.3,4.1-2c1.1-0.8,1.9-1.5,2.3-2.2
				c0.1-0.2,0.2-0.3,0.3-0.5c0.1-0.1,0.1-0.3,0.2-0.4c0.1-0.1,0.1-0.2,0.1-0.3c0-0.1,0-0.1,0.1-0.2c0-0.5,0.1-0.8,0.1-0.8
				L1031.7,313.7z"/>
		</g>
	</g>
	<g>
		<path fill="#FFFFFF" stroke="#333333" stroke-width="3" stroke-miterlimit="10" d="M1075.5,313.7c0-4.3-6.9-7.8-15.5-7.8
			s-15.5,3.5-15.5,7.8V337c0,4.3,6.9,7.8,15.5,7.8s15.5-3.5,15.5-7.8V313.7z"/>
		<g>
			<path fill="#333333" d="M1076.7,313.8c0,0,0,0.3-0.1,0.9c-0.2,0.9-0.6,1.9-1.5,2.8c-0.8,0.9-2,1.8-3.4,2.4
				c-1.4,0.6-3,1.1-4.8,1.4c-1.8,0.3-3.7,0.5-5.7,0.5c-1,0-2.1,0-3.1,0c-1.1-0.1-2.2-0.1-3.3-0.2c-2.2-0.3-4.6-0.6-6.8-1.7
				c-1.1-0.5-2.3-1.1-3.2-2.2c-0.5-0.5-0.9-1.1-1.3-1.8c-0.2-0.3-0.3-0.7-0.4-1.1c-0.1-0.2-0.1-0.4-0.1-0.6l0-0.3l0-0.1l0-0.1l0,0
				c0-0.1,0,0.1,0-0.2c0-0.3,0-0.5,0.1-0.9c0.1-0.4,0.2-0.9,0.4-1.3c0.3-0.7,0.7-1.3,1.2-1.9c0.9-1.1,2-1.9,3.1-2.5
				c2.2-1.3,4.6-1.9,6.9-2.3c2.3-0.4,4.6-0.5,6.6-0.4c2.2,0.1,4.1,0.4,6,0.9c3.6,0.9,6.5,2.6,8.1,4.6c0.8,1,1.2,2.1,1.3,2.8
				c0.1,0.7,0.1,1.1,0.1,1.1L1076.7,313.8z M1073.7,313.7c0,0,0-0.2-0.1-0.5c-0.1-0.3-0.3-0.8-0.8-1.4c-0.5-0.6-1.3-1.3-2.4-1.8
				c-1.1-0.6-2.5-1.1-4.1-1.5c-1.6-0.4-3.4-0.6-5.2-0.7c-2-0.1-3.9,0-6,0.3c-1,0.2-2,0.4-3,0.7c-1,0.3-2,0.7-2.9,1.1
				c-0.9,0.5-1.7,1-2.4,1.7c-0.3,0.3-0.6,0.7-0.7,1c-0.1,0.2-0.1,0.3-0.2,0.4c-0.1,0.2-0.1,0.6-0.1,0.8c0-0.3,0-0.1,0-0.1l0,0l0,0
				l0,0.1l0,0.1c0,0.1,0,0.2,0,0.3c0.1,0.2,0.1,0.4,0.2,0.6c0.2,0.4,0.4,0.8,0.7,1.1c0.6,0.8,1.4,1.4,2.3,2c1.8,1.2,3.9,2,6,2.5
				c1.1,0.2,2.1,0.4,3.1,0.5c0.5,0,1,0,1.6,0.1c0.5,0,1,0,1.5,0c2-0.1,3.8-0.5,5.4-1.1c1.6-0.6,3-1.3,4.1-2c1.1-0.8,1.9-1.5,2.3-2.2
				c0.1-0.2,0.2-0.3,0.3-0.5c0.1-0.1,0.1-0.3,0.2-0.4c0.1-0.1,0.1-0.2,0.1-0.3c0-0.1,0-0.1,0.1-0.2c0-0.5,0.1-0.8,0.1-0.8
				L1073.7,313.7z"/>
		</g>
	</g>
</g>
<g>
	<g>
		<path fill="#FFFFFF" stroke="#333333" stroke-width="3" stroke-miterlimit="10" d="M1033.5,507.7c0-4.3-6.9-7.8-15.5-7.8
			s-15.5,3.5-15.5,7.8V531c0,4.3,6.9,7.8,15.5,7.8s15.5-3.5,15.5-7.8V507.7z"/>
		<g>
			<path fill="#333333" d="M1035.4,507.8c0,0,0,0.3-0.1,0.9c-0.2,0.9-0.6,1.9-1.5,2.8c-0.8,0.9-2,1.8-3.4,2.4
				c-1.4,0.6-3,1.1-4.8,1.4c-1.8,0.3-3.7,0.5-5.7,0.5c-1,0-2.1,0-3.1,0c-1.1-0.1-2.2-0.1-3.3-0.2c-2.2-0.3-4.6-0.6-6.8-1.7
				c-1.1-0.5-2.3-1.1-3.2-2.2c-0.5-0.5-0.9-1.1-1.3-1.8c-0.2-0.3-0.3-0.7-0.4-1.1c-0.1-0.2-0.1-0.4-0.1-0.6l0-0.3l0-0.1l0-0.1l0,0
				c0-0.1,0,0.1,0-0.2c0-0.3,0-0.5,0.1-0.9c0.1-0.4,0.2-0.9,0.4-1.3c0.3-0.7,0.7-1.3,1.2-1.9c0.9-1.1,2-1.9,3.1-2.5
				c2.2-1.3,4.6-1.9,6.9-2.3c2.3-0.4,4.6-0.5,6.6-0.4c2.2,0.1,4.1,0.4,6,0.9c3.6,0.9,6.5,2.6,8.1,4.6c0.8,1,1.2,2.1,1.3,2.8
				c0.1,0.7,0.1,1.1,0.1,1.1L1035.4,507.8z M1032.4,507.7c0,0,0-0.2-0.1-0.5c-0.1-0.3-0.3-0.8-0.8-1.4c-0.5-0.6-1.3-1.3-2.4-1.8
				c-1.1-0.6-2.5-1.1-4.1-1.5c-1.6-0.4-3.4-0.6-5.2-0.7c-2-0.1-3.9,0-6,0.3c-1,0.2-2,0.4-3,0.7c-1,0.3-2,0.7-2.9,1.1
				c-0.9,0.5-1.7,1-2.4,1.7c-0.3,0.3-0.6,0.7-0.7,1c-0.1,0.2-0.1,0.3-0.2,0.4c-0.1,0.2-0.1,0.6-0.1,0.8c0-0.3,0-0.1,0-0.1l0,0l0,0
				l0,0.1l0,0.1c0,0.1,0,0.2,0,0.3c0.1,0.2,0.1,0.4,0.2,0.6c0.2,0.4,0.4,0.8,0.7,1.1c0.6,0.8,1.4,1.4,2.3,2c1.8,1.2,3.9,2,6,2.5
				c1.1,0.2,2.1,0.4,3.1,0.5c0.5,0,1,0,1.6,0.1c0.5,0,1,0,1.5,0c2-0.1,3.8-0.5,5.4-1.1c1.6-0.6,3-1.3,4.1-2c1.1-0.8,1.9-1.5,2.3-2.2
				c0.1-0.2,0.2-0.3,0.3-0.5c0.1-0.1,0.1-0.3,0.2-0.4c0.1-0.1,0.1-0.2,0.1-0.3c0-0.1,0-0.1,0.1-0.2c0-0.5,0.1-0.8,0.1-0.8
				L1032.4,507.7z"/>
		</g>
	</g>
	<g>
		<path fill="#FFFFFF" stroke="#333333" stroke-width="3" stroke-miterlimit="10" d="M1075.5,507.7c0-4.3-6.9-7.8-15.5-7.8
			s-15.5,3.5-15.5,7.8V531c0,4.3,6.9,7.8,15.5,7.8s15.5-3.5,15.5-7.8V507.7z"/>
		<g>
			<path fill="#333333" d="M1077.4,507.8c0,0,0,0.3-0.1,0.9c-0.2,0.9-0.6,1.9-1.5,2.8c-0.8,0.9-2,1.8-3.4,2.4
				c-1.4,0.6-3,1.1-4.8,1.4c-1.8,0.3-3.7,0.5-5.7,0.5c-1,0-2.1,0-3.1,0c-1.1-0.1-2.2-0.1-3.3-0.2c-2.2-0.3-4.6-0.6-6.8-1.7
				c-1.1-0.5-2.3-1.1-3.2-2.2c-0.5-0.5-0.9-1.1-1.3-1.8c-0.2-0.3-0.3-0.7-0.4-1.1c-0.1-0.2-0.1-0.4-0.1-0.6l0-0.3l0-0.1l0-0.1l0,0
				c0-0.1,0,0.1,0-0.2c0-0.3,0-0.5,0.1-0.9c0.1-0.4,0.2-0.9,0.4-1.3c0.3-0.7,0.7-1.3,1.2-1.9c0.9-1.1,2-1.9,3.1-2.5
				c2.2-1.3,4.6-1.9,6.9-2.3c2.3-0.4,4.6-0.5,6.6-0.4c2.2,0.1,4.1,0.4,6,0.9c3.6,0.9,6.5,2.6,8.1,4.6c0.8,1,1.2,2.1,1.3,2.8
				c0.1,0.7,0.1,1.1,0.1,1.1L1077.4,507.8z M1074.4,507.7c0,0,0-0.2-0.1-0.5c-0.1-0.3-0.3-0.8-0.8-1.4c-0.5-0.6-1.3-1.3-2.4-1.8
				c-1.1-0.6-2.5-1.1-4.1-1.5c-1.6-0.4-3.4-0.6-5.2-0.7c-2-0.1-3.9,0-6,0.3c-1,0.2-2,0.4-3,0.7c-1,0.3-2,0.7-2.9,1.1
				c-0.9,0.5-1.7,1-2.4,1.7c-0.3,0.3-0.6,0.7-0.7,1c-0.1,0.2-0.1,0.3-0.2,0.4c-0.1,0.2-0.1,0.6-0.1,0.8c0-0.3,0-0.1,0-0.1l0,0l0,0
				l0,0.1l0,0.1c0,0.1,0,0.2,0,0.3c0.1,0.2,0.1,0.4,0.2,0.6c0.2,0.4,0.4,0.8,0.7,1.1c0.6,0.8,1.4,1.4,2.3,2c1.8,1.2,3.9,2,6,2.5
				c1.1,0.2,2.1,0.4,3.1,0.5c0.5,0,1,0,1.6,0.1c0.5,0,1,0,1.5,0c2-0.1,3.8-0.5,5.4-1.1c1.6-0.6,3-1.3,4.1-2c1.1-0.8,1.9-1.5,2.3-2.2
				c0.1-0.2,0.2-0.3,0.3-0.5c0.1-0.1,0.1-0.3,0.2-0.4c0.1-0.1,0.1-0.2,0.1-0.3c0-0.1,0-0.1,0.1-0.2c0-0.5,0.1-0.8,0.1-0.8
				L1074.4,507.7z"/>
		</g>
	</g>
</g>
<g>
	<path fill="#FFFFFF" d="M773,614c0,1.1-0.9,2-2,2H583c-1.1,0-2-0.9-2-2v-82c0-1.1,0.9-2,2-2h188c1.1,0,2,0.9,2,2V614z"/>
	<path fill="none" stroke="#333333" stroke-width="4" stroke-miterlimit="10" d="M773,614c0,1.1-0.9,2-2,2H583c-1.1,0-2-0.9-2-2v-82
		c0-1.1,0.9-2,2-2h188c1.1,0,2,0.9,2,2V614z"/>
</g>
<text transform="matrix(1 0 0 1 582.1211 516.0402)" fill="#333333" font-family="'KievitOT-Bold'" font-size="26px">Sync Gateway N</text>
<g>
	<g>
		<circle fill="#CC2A2E" cx="770.7" cy="615.7" r="24"/>
	</g>
	<path fill="#FFFFFF" d="M784.4,607.5c-0.8-0.1-2.8-0.3-4.3-0.3c-0.6,0-1,0.5-1,1.1c0,0,0,6.6,0,6.6c-2.9,0-5.5-0.2-8.4-0.2
		c-2.9,0-5.5,0.2-8.4,0.2c0,0,0-6.5,0-6.6c0-0.7-0.5-1.1-1-1.1c-1.5,0-3.5,0.1-4.3,0.3c-1.4,0.2-2.5,1.6-2.5,3c0,3.1,0,6.2,0,9.4
		c0,1.4,0.8,2.7,2.5,3c2.8,0.5,8.8,0.8,13.8,0.8c5,0,10.9-0.3,13.8-0.8c1.6-0.3,2.5-1.6,2.5-3c0-3.1,0-6.2,0-9.4
		C786.9,609.1,785.8,607.8,784.4,607.5z"/>
</g>
<g>
	<g>
		<line fill="none" stroke="#CC2A2E" stroke-width="3" stroke-miterlimit="10" x1="476.9" y1="573.2" x2="482.9" y2="573.2"/>
		
			<line fill="none" stroke="#CC2A2E" stroke-width="3" stroke-miterlimit="10" stroke-dasharray="10.1585,10.1585" x1="493.1" y1="573.2" x2="548.9" y2="573.2"/>
		<line fill="none" stroke="#CC2A2E" stroke-width="3" stroke-miterlimit="10" x1="554" y1="573.2" x2="560" y2="573.2"/>
		<g>
			<polygon fill="#CC2A2E" points="460,573.2 483.8,583 478.2,573.2 483.8,563.5 			"/>
		</g>
		<g>
			<polygon fill="#CC2A2E" points="577,573.2 553.1,583 558.8,573.2 553.1,563.5 			"/>
		</g>
	</g>
</g>
<text transform="matrix(1 0 0 1 596.5669 556.0002)"><tspan x="0" y="0" fill="#00ACE0" font-family="'KievitOT-Bold'" font-size="22px">172.20.30.</tspan><tspan x="95.6" y="0" fill="#00ACE0" font-family="'KievitOT-BoldItalic'" font-size="22px">n</tspan></text>
<text transform="matrix(1 0 0 1 471.5969 601.4891)" fill="#CC2A2E" font-family="'KievitOT-Bold'" font-size="24px">0%</text>
<text transform="matrix(1 0 0 1 471.5973 550.9915)" fill="#00ACE0" font-family="'KievitOT-Bold'" font-size="22px">4984</text>
<g>
	<g>
		<path fill="none" stroke="#CC2A2E" stroke-width="3" stroke-miterlimit="10" d="M354.3,370.9c0,2,0,4,0,6"/>
		<path fill="none" stroke="#CC2A2E" stroke-width="3" stroke-miterlimit="10" stroke-dasharray="11.4038,11.4038" d="M354.6,388.3
			c3.6,85.5,33.3,155.8,73,178.4"/>
		<path fill="none" stroke="#CC2A2E" stroke-width="3" stroke-miterlimit="10" d="M432.7,569.2c1.8,0.8,3.7,1.6,5.6,2.2"/>
		<g>
			<polygon fill="#CC2A2E" points="455,574.2 429.7,579.4 437.1,570.8 433.3,560.2 			"/>
		</g>
	</g>
</g>
<g>
	<g>
		<path fill="none" stroke="#CC2A2E" stroke-width="3" stroke-miterlimit="10" d="M353.9,371c0-2,0-4,0-6"/>
		<path fill="none" stroke="#CC2A2E" stroke-width="3" stroke-miterlimit="10" stroke-dasharray="11.0474,11.0474" d="M353.6,354
			c-2.2-58.7-15.4-106.3-32.8-120.2"/>
		<path fill="none" stroke="#CC2A2E" stroke-width="3" stroke-miterlimit="10" d="M316.1,230.9c-1.9-0.8-3.8-1.2-5.8-1.2"/>
	</g>
</g>
<g>
	<g>
		<g>
			<line fill="none" stroke="#CC2A2E" stroke-width="25" stroke-miterlimit="10" x1="351.2" y1="549.2" x2="351.2" y2="527.2"/>
			<g>
				<polygon fill="#CC2A2E" points="374.9,542.3 351.2,583.3 327.5,542.3 				"/>
			</g>
		</g>
	</g>
	<text transform="matrix(1 0 0 1 330.2811 598.4954)" fill="#333333" font-family="'KievitOT-Bold'" font-size="18px">down</text>
</g>
<g>
	<g>
		<line fill="none" stroke="#CC2A2E" stroke-width="3" stroke-miterlimit="10" x1="959.9" y1="348.5" x2="956.1" y2="353.2"/>
		
			<line fill="none" stroke="#CC2A2E" stroke-width="3" stroke-miterlimit="10" stroke-dasharray="12.4943,12.4943" x1="948.3" y1="362.8" x2="794.3" y2="551.7"/>
		<line fill="none" stroke="#CC2A2E" stroke-width="3" stroke-miterlimit="10" x1="790.4" y1="556.5" x2="786.6" y2="561.2"/>
		<g>
			<polygon fill="#CC2A2E" points="970.6,335.4 948,347.7 959.1,349.5 963.1,360 			"/>
		</g>
		<g>
			<polygon fill="#CC2A2E" points="775.9,574.3 783.4,549.6 787.4,560.2 798.5,562 			"/>
		</g>
	</g>
</g>
<g>
	<g>
		<line fill="none" stroke="#333333" stroke-width="3" stroke-miterlimit="10" x1="955.5" y1="320.8" x2="788.5" y2="390.1"/>
		<g>
			<polygon fill="#333333" points="971.1,314.3 945.3,314.5 954.3,321.3 952.8,332.5 			"/>
		</g>
		<g>
			<polygon fill="#333333" points="772.9,396.5 791.2,378.4 789.7,389.6 798.7,396.4 			"/>
		</g>
	</g>
</g>
<g>
	<g>
		<line fill="none" stroke="#333333" stroke-width="3" stroke-miterlimit="10" x1="790.3" y1="222.3" x2="955.9" y2="286.6"/>
		<g>
			<polygon fill="#333333" points="774.5,216.1 793.3,233.9 791.5,222.7 800.3,215.7 			"/>
		</g>
		<g>
			<polygon fill="#333333" points="971.7,292.8 945.9,293.2 954.7,286.2 953,275 			"/>
		</g>
	</g>
</g>
<g>
	<text transform="matrix(1.1808 0 0 1 606.2676 461.3899)" fill="#333333" font-family="'KievitOT-Bold'" font-size="24px">.</text>
	<text transform="matrix(1.1808 0 0 1 606.2676 473.3899)" fill="#333333" font-family="'KievitOT-Bold'" font-size="24px">.</text>
	<text transform="matrix(1.1808 0 0 1 606.2676 485.3899)" fill="#333333" font-family="'KievitOT-Bold'" font-size="24px">.</text>
</g>
<g>
	<g>
		<circle fill="#FF8900" cx="173.7" cy="256.5" r="18.8"/>
	</g>
	<text transform="matrix(1 0 0 1 167.3752 264.6675)" fill="#FFFFFF" font-family="'KievitOT-Bold'" font-size="36px">1</text>
</g>
<g>
	<g>
		<circle fill="#FF8900" cx="897.2" cy="296.5" r="18.8"/>
	</g>
	<text transform="matrix(1 0 0 1 884.8848 301.6956)" fill="#FFFFFF" font-family="'KievitOT-Bold'" font-size="36px">4</text>
</g>
<g>
	<g>
		<circle fill="#FF8900" cx="269.1" cy="102" r="18.8"/>
	</g>
	<text transform="matrix(1 0 0 1 259.812 110.175)" fill="#FFFFFF" font-family="'KievitOT-Bold'" font-size="36px">2</text>
</g>
<text transform="matrix(1 0 0 1 300.3134 94.2856)"><tspan x="0" y="0" fill="#333333" font-family="'KievitOT-Bold'" font-size="20px">Redistribute traffic</tspan><tspan x="0" y="24" fill="#333333" font-family="'KievitOT-Bold'" font-size="20px">among Sync Gateways</tspan></text>
<g>
	<g>
		<circle fill="#FF8900" cx="575" cy="103.5" r="18.8"/>
	</g>
	<text transform="matrix(1 0 0 1 567.6921 108.6751)" fill="#FFFFFF" font-family="'KievitOT-Bold'" font-size="36px">3</text>
</g>
<text transform="matrix(1 0 0 1 607.3742 94.2856)"><tspan x="0" y="0" fill="#333333" font-family="'KievitOT-Bold'" font-size="20px">Stop, uninstall, install,</tspan><tspan x="0" y="24" fill="#333333" font-family="'KievitOT-Bold'" font-size="20px">and start Sync Gateways</tspan></text>
<path fill="none" stroke="#333333" stroke-width="3" stroke-miterlimit="10" d="M383.6,300c0-39.8-35.1-72-78.6-72"/>
<text transform="matrix(1 0 0 1 243.597 238.7514)" fill="#00ACE0" font-family="'KievitOT-Bold'" font-size="22px">80</text>
<g>
	<line fill="#CC2A2E" x1="1017.6" y1="339.8" x2="1017.6" y2="388.4"/>
	<g>
		<line fill="none" stroke="#333333" stroke-width="3" stroke-miterlimit="10" x1="1017.6" y1="344.5" x2="1017.6" y2="383.7"/>
		<g>
			<rect x="1012.7" y="339.8" fill="#333333" width="9.9" height="9.9"/>
		</g>
		<g>
			<rect x="1012.7" y="378.5" fill="#333333" width="9.9" height="9.9"/>
		</g>
	</g>
</g>
<g>
	<line fill="#CC2A2E" x1="1061" y1="339" x2="1061" y2="388.4"/>
	<g>
		<line fill="none" stroke="#333333" stroke-width="3" stroke-miterlimit="10" x1="1061" y1="343.7" x2="1061" y2="383.7"/>
		<g>
			<rect x="1056.1" y="339" fill="#333333" width="9.9" height="9.9"/>
		</g>
		<g>
			<rect x="1056.1" y="378.5" fill="#333333" width="9.9" height="9.9"/>
		</g>
	</g>
</g>
<g>
	<line fill="#CC2A2E" x1="1017.6" y1="454.6" x2="1017.6" y2="505.3"/>
	<g>
		<line fill="none" stroke="#333333" stroke-width="3" stroke-miterlimit="10" x1="1017.6" y1="459.3" x2="1017.6" y2="500.6"/>
		<g>
			<rect x="1012.7" y="454.6" fill="#333333" width="9.9" height="9.9"/>
		</g>
		<g>
			<rect x="1012.7" y="495.4" fill="#333333" width="9.9" height="9.9"/>
		</g>
	</g>
</g>
<g>
	<line fill="#CC2A2E" x1="1061" y1="454.6" x2="1061" y2="505.3"/>
	<g>
		<line fill="none" stroke="#333333" stroke-width="3" stroke-miterlimit="10" x1="1061" y1="459.3" x2="1061" y2="500.5"/>
		<g>
			<rect x="1056.1" y="454.6" fill="#333333" width="9.9" height="9.9"/>
		</g>
		<g>
			<rect x="1056.1" y="495.3" fill="#333333" width="9.9" height="9.9"/>
		</g>
	</g>
</g>
</svg>
