<?xml version="1.0" encoding="utf-8"?>
<!-- Generator: Adobe Illustrator 15.0.2, SVG Export Plug-In . SVG Version: 6.00 Build 0)  -->
<!DOCTYPE svg PUBLIC "-//W3C//DTD SVG 1.1//EN" "http://www.w3.org/Graphics/SVG/1.1/DTD/svg11.dtd">
<svg version="1.1" id="Layer_1" xmlns="http://www.w3.org/2000/svg" xmlns:xlink="http://www.w3.org/1999/xlink" x="0px" y="0px"
	 width="250px" height="292.217px" viewBox="10 17.132 1000 1168.868" enable-background="new 10 17.132 1000 1168.868"
	 xml:space="preserve">
<g transform="matrix(2.7759349,0,0,2.7759349,10,17.132446)">
	<path fill="#97C03D" d="M334.629,131.947c-14.147,0-25.622,11.652-25.622,26.02v101.68c0,14.372,11.475,26.019,25.622,26.019
		s25.61-11.646,25.61-26.019v-101.68C360.24,143.599,348.777,131.947,334.629,131.947L334.629,131.947z M25.618,131.947
		C11.463,131.947,0,143.599,0,157.967v101.68c0,14.372,11.462,26.019,25.618,26.019c14.153,0,25.623-11.646,25.623-26.019v-101.68
		C51.233,143.599,39.766,131.947,25.618,131.947L25.618,131.947z"/>
	<path fill="#97C03D" d="M66.651,132.741v185.768c0,11.035,8.948,19.98,19.983,19.98h22.815v56.567
		c0,14.37,11.47,26.016,25.623,26.016c14.148,0,25.623-11.646,25.623-26.016v-56.567h39.878v56.567
		c0,14.37,11.463,26.016,25.61,26.016c14.147,0,25.622-11.646,25.622-26.016v-56.567h22.828c11.022,0,19.971-8.953,19.971-19.98
		V132.74L66.651,132.741L66.651,132.741L66.651,132.741z"/>
	<path fill="#97C03D" d="M234.154,36.482L255.211,5.91c1.245-1.819,0.939-4.199-0.695-5.329c-1.637-1.123-3.968-0.568-5.225,1.251
		l-21.875,31.75c-14.404-5.682-30.418-8.844-47.293-8.844c-16.87,0-32.893,3.162-47.297,8.844l-21.875-31.75
		c-1.257-1.819-3.589-2.375-5.225-1.251c-1.636,1.124-1.946,3.509-0.696,5.329l21.057,30.572
		c-33.464,15.57-56.951,45.166-59.941,79.706h227.956C291.111,81.648,267.624,52.053,234.154,36.482z M132.039,84.657
		c-6.965,0-12.617-5.646-12.617-12.616c0-6.958,5.647-12.61,12.617-12.61c6.97,0,12.603,5.652,12.603,12.61
		C144.642,79.006,139.002,84.657,132.039,84.657z M229.783,84.657c-6.97,0-12.609-5.646-12.609-12.616
		c0-6.958,5.64-12.61,12.609-12.61c6.971,0,12.61,5.652,12.61,12.61C242.393,79.006,236.753,84.657,229.783,84.657z"/>
</g>
</svg>
