<?xml version="1.0" encoding="utf-8"?>
<!-- Generator: Adobe Illustrator 15.0.2, SVG Export Plug-In . SVG Version: 6.00 Build 0)  -->
<!DOCTYPE svg PUBLIC "-//W3C//DTD SVG 1.1//EN" "http://www.w3.org/Graphics/SVG/1.1/DTD/svg11.dtd">
<svg version="1.1"
	 id="svg2811" xmlns:sodipodi="http://sodipodi.sourceforge.net/DTD/sodipodi-0.dtd" sodipodi:docname="Apple logo black.svg" inkscape:version="0.48.4 r9939" xmlns:dc="http://purl.org/dc/elements/1.1/" xmlns:cc="http://creativecommons.org/ns#" xmlns:svg="http://www.w3.org/2000/svg" xmlns:rdf="http://www.w3.org/1999/02/22-rdf-syntax-ns#" xmlns:inkscape="http://www.inkscape.org/namespaces/inkscape"
	 xmlns="http://www.w3.org/2000/svg" xmlns:xlink="http://www.w3.org/1999/xlink" x="0px" y="0px" width="188.91px"
	 height="231.99px" viewBox="0 0 755.64 927.96" enable-background="new 0 0 755.64 927.96" xml:space="preserve">
<sodipodi:namedview  id="namedview3986" inkscape:window-maximized="1" inkscape:pageopacity="0" inkscape:window-height="750" inkscape:pageshadow="2" inkscape:window-width="1280" inkscape:current-layer="svg2811" inkscape:window-y="-8" inkscape:window-x="-8" guidetolerance="10" borderopacity="1" inkscape:cx="754.75322" pagecolor="#ffffff" gridtolerance="10" objecttolerance="10" inkscape:zoom="256" bordercolor="#666666" inkscape:cy="0.061015157" showgrid="false">
	</sodipodi:namedview>
<path id="path188" inkscape:connector-curvature="0" fill="#808080" d="M562.472,0c-46.674,1.874-103.17,31.097-136.684,70.341
	c-30.002,34.683-56.314,90.266-49.182,143.548c52.053,4.035,105.211-26.49,137.618-65.676C546.625,108.97,568.498,54.39,562.472,0z
	 M544.712,223.653c-65.928,0.889-127.023,43.25-160.775,43.25c-36.612,0-93.221-41.455-153.111-40.285
	c-78.839,1.17-151.408,45.791-191.997,116.324c-81.821,141.946-20.879,352.313,58.779,467.53
	c39.01,56.322,85.455,119.764,146.514,117.424c58.836-2.338,81.043-37.986,152.044-37.986c71.002,0,91.008,37.998,153.178,36.887
	c63.225-1.227,103.365-57.561,142.082-114.059c44.684-65.387,63.158-128.65,64.211-131.984
	c-1.404-0.586-123.303-47.309-124.588-187.732c-1.053-117.439,95.91-173.82,100.297-176.569
	c-54.568-79.833-139.477-90.78-169.773-92.066C555.929,223.814,550.3,223.577,544.712,223.653L544.712,223.653z"/>
</svg>
