<?xml version="1.0" encoding="utf-8"?>
<!-- Generator: Adobe Illustrator 15.0.2, SVG Export Plug-In . SVG Version: 6.00 Build 0)  -->
<!DOCTYPE svg PUBLIC "-//W3C//DTD SVG 1.1//EN" "http://www.w3.org/Graphics/SVG/1.1/DTD/svg11.dtd">
<svg version="1.1" id="Layer_1" xmlns="http://www.w3.org/2000/svg" xmlns:xlink="http://www.w3.org/1999/xlink" x="0px" y="0px"
	 width="492px" height="320px" viewBox="0 0 492 320" enable-background="new 0 0 492 320" xml:space="preserve">
<path fill-rule="evenodd" clip-rule="evenodd" fill="#FFFFFF" fill-opacity="0.75" d="M96,130.368h300c53.02,0,96,42.98,96,96
	s-42.98,96-96,96H96c-53.02,0-96-42.98-96-96S42.98,130.368,96,130.368z"/>
<path fill-rule="evenodd" clip-rule="evenodd" fill="#FFFFFF" fill-opacity="0.75" d="M179.521,34.369c53.02,0,96,42.98,96,96
	c0,53.02-42.981,96-96,96s-96-42.98-96-96C83.521,77.349,126.501,34.369,179.521,34.369z"/>
<path fill-rule="evenodd" clip-rule="evenodd" fill="#FFFFFF" fill-opacity="0.75" d="M279.925,2.369c70.692,0,128,57.308,128,128
	c0,70.692-57.308,128-128,128s-128-57.309-128-128C151.925,59.676,209.232,2.369,279.925,2.369z"/>
</svg>
