<?xml version="1.0" encoding="utf-8"?>
<!-- Generator: Adobe Illustrator 15.0.2, SVG Export Plug-In . SVG Version: 6.00 Build 0)  -->
<!DOCTYPE svg PUBLIC "-//W3C//DTD SVG 1.1//EN" "http://www.w3.org/Graphics/SVG/1.1/DTD/svg11.dtd">
<svg version="1.1"
	 id="svg2" xmlns:dc="http://purl.org/dc/elements/1.1/" xmlns:cc="http://creativecommons.org/ns#" xmlns:svg="http://www.w3.org/2000/svg" xmlns:rdf="http://www.w3.org/1999/02/22-rdf-syntax-ns#" xmlns:inkscape="http://www.inkscape.org/namespaces/inkscape"
	 xmlns="http://www.w3.org/2000/svg" xmlns:xlink="http://www.w3.org/1999/xlink" x="0px" y="0px" width="138.483px"
	 height="64.375px" viewBox="149.058 54.832 138.483 64.375" enable-background="new 149.058 54.832 138.483 64.375"
	 xml:space="preserve">
<g id="g10" transform="matrix(1.25,0,0,-1.25,0,250)">
	<g id="g12" transform="scale(0.1,0.1)">
		<path id="path32" inkscape:connector-curvature="0" fill="#FFFFFF" d="M2215.625,1553.34c-53.586,3.699-80.414,5.34-134.078,7.969
			c-19.469,0.961-35.516-16.258-35.594-38.059c-0.273-69.52,0-139.59,0-209.379c-99.844-2.531-199.781-3.922-299.555-3.922
			c-99.828,0.012-199.828,1.402-299.719,3.922c0.02,69.789,0.199,139.738,0.09,209.367c-0.039,21.84-15.98,39.031-35.578,38.07
			c-53.492-2.609-80.43-4.27-133.93-7.969c-46.883-3.23-84.801-46.48-84.801-96.02c0-87.242,0.34-174.84,0-261.75
			c-0.281-70.27,49.578-132.609,121.328-137.102c143.383-8.969,289.109-12.129,432.609-12.117
			c143.461,0,289.133,3.168,432.531,12.117c71.789,4.48,121.695,66.801,121.398,137.102c-0.367,86.879,0,174.508,0,261.75
			C2300.328,1506.859,2262.39,1550.109,2215.625,1553.34"/>
	</g>
</g>
</svg>
