<?xml version="1.0" encoding="utf-8"?>
<!-- Generator: Adobe Illustrator 15.0.2, SVG Export Plug-In . SVG Version: 6.00 Build 0)  -->
<!DOCTYPE svg PUBLIC "-//W3C//DTD SVG 1.1//EN" "http://www.w3.org/Graphics/SVG/1.1/DTD/svg11.dtd">
<svg version="1.1" id="Layer_1" xmlns="http://www.w3.org/2000/svg" xmlns:xlink="http://www.w3.org/1999/xlink" x="0px" y="0px"
	 width="641px" height="1382px" viewBox="0 0 641 1382" enable-background="new 0 0 641 1382" xml:space="preserve">
<path fill-rule="evenodd" clip-rule="evenodd" fill="#FFFFFF" d="M549,1383H98c-50.81,0-92-41.189-92-92V487l-6-3v-49l6-3v-43l-6-3v-49
	l6-3v-51l-6-3v-66l6-3V99C6,48.19,47.19,7,98,7h329l3-6h99l3,6h17c50.811,0,92,41.19,92,92v1192C641,1341.811,599.811,1383,549,1383
	z"/>
<path fill-rule="evenodd" clip-rule="evenodd" fill="#F2F2F2" d="M36,1201V176h568v1025H36z M321.5,1238
	c30.651,0,55.5,24.849,55.5,55.5s-24.849,55.5-55.5,55.5c-30.652,0-55.5-24.849-55.5-55.5S290.848,1238,321.5,1238z M321.5,1346
	c28.995,0,52.5-23.505,52.5-52.5s-23.505-52.5-52.5-52.5s-52.5,23.505-52.5,52.5S292.505,1346,321.5,1346z"/>
</svg>
