<?xml version="1.0" encoding="utf-8"?>
<!-- Generator: Adobe Illustrator 15.0.2, SVG Export Plug-In . SVG Version: 6.00 Build 0)  -->
<!DOCTYPE svg PUBLIC "-//W3C//DTD SVG 1.1//EN" "http://www.w3.org/Graphics/SVG/1.1/DTD/svg11.dtd">
<svg version="1.1" id="Layer_1" xmlns="http://www.w3.org/2000/svg" xmlns:xlink="http://www.w3.org/1999/xlink" x="0px" y="0px"
	 width="256px" height="256px" viewBox="0 0 256 256" enable-background="new 0 0 256 256" xml:space="preserve">
<path fill-rule="evenodd" clip-rule="evenodd" fill="#1376B9" d="M248.771,149.318c-12.477,20.148-34.295,58.382-44.09,75.519
	c-11.45,18.533-11.453,18.211-30.695,18.533c-17.828-0.002-74.122-0.002-91.952,0c-19.24-0.322-19.243,0-30.693-18.533
	c-9.795-17.137-31.614-55.37-44.09-75.519c-9.69-15.65-9.587-25.278,0-40.762c12.476-20.149,34.295-58.381,44.09-75.519
	c11.45-18.531,11.453-18.209,30.693-18.531c17.83,0.001,74.124,0.001,91.952,0c19.242,0.322,19.245,0,30.695,18.531
	c9.795,17.138,31.613,55.37,44.09,75.519C258.358,124.041,258.461,133.668,248.771,149.318z"/>
<path fill-rule="evenodd" clip-rule="evenodd" fill="#FFFFFF" d="M66.212,63.448h26.771L128.011,129l35.028-65.552h26.771
	L154.782,129l35.028,65.552h-26.771L128.011,129l-35.027,65.552H66.212L101.24,129L66.212,63.448z"/>
</svg>
